{"glyphs":{"0":{"ha":726,"x_min":34,"x_max":692,"o":"m 354 32 q 250 50 296 32 q 169 100 204 68 q 108 175 134 132 q 66 265 82 217 q 42 363 50 313 q 34 463 34 414 q 43 566 34 513 q 69 668 52 618 q 114 761 87 717 q 179 837 142 804 q 265 888 217 869 q 372 907 313 907 q 475 889 429 907 q 557 838 522 870 q 618 764 592 806 q 660 673 644 722 q 684 574 676 625 q 692 475 692 524 q 683 372 692 425 q 656 271 674 320 q 611 178 638 222 q 546 102 583 134 q 460 51 509 70 q 354 32 412 32 m 353 297 q 387 307 372 297 q 413 332 402 316 q 432 367 425 347 q 443 408 439 387 q 450 447 448 428 q 452 481 452 467 q 448 531 452 502 q 434 587 444 560 q 407 632 424 613 q 361 651 389 651 q 314 630 332 651 q 284 579 295 609 q 268 517 273 549 q 264 464 264 486 q 268 415 264 444 q 281 360 271 387 q 308 316 291 334 q 353 297 326 297 z "},"1":{"ha":510,"x_min":34,"x_max":476,"o":"m 347 35 q 318 37 333 35 q 291 44 304 39 q 269 58 279 49 q 253 81 258 67 q 239 147 244 105 q 230 239 233 189 q 226 346 227 290 q 224 452 224 401 q 225 546 224 503 q 225 614 225 589 q 224 637 225 627 q 219 654 223 647 q 206 665 214 661 q 184 669 198 669 q 151 666 168 669 q 118 663 135 663 q 56 689 77 663 q 34 753 34 715 q 88 844 34 814 q 202 888 140 872 q 323 905 264 905 q 353 904 338 905 q 382 900 368 903 q 409 889 397 897 q 431 869 422 882 q 450 815 448 845 q 459 645 455 730 q 465 475 463 561 q 471 334 466 404 q 476 193 476 264 q 475 115 476 146 q 464 66 475 84 q 426 42 452 49 q 347 35 399 35 z "},"2":{"ha":666,"x_min":34,"x_max":632,"o":"m 240 40 q 165 44 197 40 q 114 62 134 47 q 85 104 94 76 q 75 182 75 133 q 84 213 75 199 q 103 235 89 221 q 134 263 117 248 q 166 292 151 277 q 191 315 182 306 q 225 353 206 331 q 263 400 243 375 q 301 453 282 425 q 334 508 319 481 q 357 561 349 535 q 366 609 366 587 q 349 660 366 640 q 301 680 332 680 q 270 671 283 680 q 245 650 256 663 q 224 623 234 638 q 202 596 214 608 q 177 575 191 584 q 145 567 163 567 q 102 578 123 567 q 67 608 82 590 q 43 648 52 625 q 34 691 34 670 q 47 750 34 722 q 82 800 60 777 q 132 841 104 823 q 192 871 161 859 q 254 890 223 884 q 312 897 285 897 q 418 878 370 897 q 500 824 466 859 q 554 741 535 789 q 574 635 574 693 q 563 556 574 597 q 536 477 552 515 q 502 404 520 438 q 467 342 483 369 q 440 299 451 316 q 429 281 429 283 q 433 274 429 275 q 441 273 437 273 q 485 278 463 273 q 531 283 507 283 q 573 279 554 283 q 605 264 591 275 q 625 238 618 254 q 632 196 632 221 q 629 156 632 178 q 618 115 626 134 q 596 81 610 96 q 561 62 583 66 q 401 44 483 49 q 240 40 319 40 z "},"3":{"ha":682,"x_min":34,"x_max":648,"o":"m 264 46 q 188 53 229 46 q 114 77 148 60 q 57 123 79 94 q 34 196 34 152 q 41 242 34 220 q 63 283 49 265 q 97 311 77 300 q 143 322 117 322 q 180 317 161 322 q 219 306 199 312 q 260 295 239 300 q 303 290 281 290 q 335 293 318 290 q 366 303 352 296 q 390 323 380 311 q 399 354 399 336 q 392 383 399 370 q 372 405 384 396 q 344 418 359 413 q 315 422 329 422 q 267 417 290 422 q 219 412 243 412 q 183 420 199 412 q 157 441 168 428 q 142 472 147 454 q 136 508 136 489 q 137 525 136 515 q 141 542 138 534 q 150 558 144 551 q 163 568 155 565 q 201 577 177 573 q 250 589 226 582 q 291 609 273 596 q 309 644 309 621 q 301 664 309 656 q 284 676 294 671 q 262 683 274 681 q 241 684 251 684 q 216 682 229 684 q 192 676 204 680 q 168 671 180 673 q 143 668 156 668 q 106 676 123 668 q 77 697 89 684 q 59 729 65 711 q 52 766 52 747 q 65 813 52 793 q 101 846 79 833 q 150 869 123 860 q 206 882 178 878 q 261 889 234 887 q 307 890 288 890 q 395 884 350 890 q 476 859 439 878 q 537 808 513 841 q 560 723 560 776 q 552 673 560 696 q 533 633 545 651 q 507 602 521 616 q 482 579 494 589 q 462 563 470 569 q 454 553 454 556 q 471 543 456 548 q 507 530 486 538 q 553 509 529 522 q 599 474 578 496 q 634 420 620 452 q 648 342 648 388 q 631 251 648 292 q 587 177 615 210 q 521 119 559 144 q 440 79 483 95 q 353 54 398 62 q 264 46 307 46 z "},"4":{"ha":685,"x_min":34,"x_max":651,"o":"m 467 28 q 431 30 450 28 q 397 39 413 33 q 369 68 376 47 q 358 115 361 89 q 356 171 356 142 q 353 224 357 199 q 338 266 349 248 q 301 286 326 283 q 267 288 284 288 q 233 288 250 288 q 191 286 212 288 q 149 283 170 283 q 98 300 120 283 q 62 342 77 317 q 41 396 48 367 q 34 450 34 426 q 42 510 34 481 q 67 564 50 538 q 105 615 81 584 q 162 684 130 647 q 229 758 193 720 q 298 826 264 795 q 363 879 332 857 q 415 905 393 901 q 459 909 437 909 q 531 897 506 909 q 567 864 556 886 q 580 812 578 843 q 582 743 582 781 q 578 613 582 677 q 572 484 574 549 q 574 477 572 479 q 588 475 581 475 q 618 468 606 475 q 637 449 630 460 q 648 423 645 437 q 651 393 651 408 q 641 327 651 350 q 617 292 630 304 q 592 276 604 281 q 576 263 580 271 q 573 249 574 256 q 573 235 573 242 q 573 155 573 196 q 564 76 572 114 q 550 50 559 59 q 526 35 540 40 q 497 29 513 31 q 467 28 481 28 m 334 483 q 363 494 354 483 q 376 523 373 506 q 379 558 380 540 q 378 591 378 577 q 379 634 378 612 q 376 675 379 655 l 375 677 q 363 666 372 677 q 341 635 354 654 q 315 595 329 617 q 290 553 302 573 q 271 516 279 532 q 264 494 264 500 q 273 485 264 488 q 295 483 283 483 q 318 483 307 482 q 334 483 330 483 z "},"5":{"ha":612,"x_min":34,"x_max":578,"o":"m 266 16 q 181 24 222 16 q 106 52 139 32 q 54 104 74 71 q 34 189 34 138 q 39 233 34 208 q 56 280 45 258 q 84 317 67 302 q 125 332 102 332 q 155 326 136 332 q 198 312 174 319 q 248 298 222 304 q 300 292 275 292 q 334 294 315 292 q 369 304 353 297 q 397 324 386 311 q 409 355 409 336 q 391 395 409 380 q 348 419 373 410 q 297 430 323 427 q 252 433 270 433 q 201 429 227 433 q 150 425 176 425 q 107 439 125 425 q 78 476 90 454 q 59 527 66 498 q 48 584 52 555 q 43 637 44 612 q 42 681 42 663 q 50 766 42 729 q 75 829 57 802 q 125 874 94 856 q 203 903 156 892 q 356 921 280 921 q 435 916 398 921 q 500 893 472 910 q 544 847 528 877 q 559 766 559 817 q 557 733 559 751 q 549 700 555 715 q 531 674 543 684 q 500 664 519 664 q 468 671 487 664 q 427 686 450 677 q 378 701 404 694 q 325 708 353 708 q 289 703 300 708 q 272 687 277 698 q 269 661 268 677 q 269 623 269 645 q 269 615 269 620 q 270 605 269 610 q 273 596 271 600 q 281 592 276 592 q 308 595 294 592 q 334 598 321 598 q 436 578 391 598 q 513 524 481 559 q 562 442 545 489 q 578 340 578 395 q 555 213 578 272 q 491 110 532 154 q 392 41 450 66 q 266 16 335 16 z "},"6":{"ha":660,"x_min":34,"x_max":626,"o":"m 336 36 q 202 67 259 36 q 108 149 145 98 q 52 265 71 199 q 34 401 34 331 q 47 525 34 463 q 85 642 60 586 q 148 745 111 697 q 233 827 184 792 q 339 881 281 861 q 465 901 397 901 q 499 888 484 901 q 523 857 513 876 q 538 819 533 839 q 543 782 543 798 q 532 732 543 748 q 500 709 520 716 q 455 701 481 703 q 401 695 429 700 q 344 679 373 690 q 289 640 315 667 q 275 623 282 633 q 261 602 267 613 q 251 579 255 591 q 248 558 248 568 q 256 547 248 547 q 282 552 268 547 q 313 563 296 557 q 348 573 329 568 q 388 578 367 578 q 482 561 439 578 q 557 513 526 544 q 608 440 589 483 q 626 347 626 398 q 606 226 626 283 q 548 127 586 170 q 457 60 511 85 q 336 36 404 36 m 344 269 q 371 274 357 269 q 396 289 385 279 q 414 312 407 299 q 421 338 421 324 q 409 371 421 359 q 378 390 396 383 q 340 398 360 396 q 306 400 320 400 q 282 399 296 400 q 254 395 268 399 q 231 384 241 391 q 221 361 221 376 q 234 327 221 344 q 267 297 248 310 q 307 276 286 284 q 344 269 328 269 z "},"7":{"ha":608,"x_min":34,"x_max":574,"o":"m 311 15 q 271 18 294 15 q 227 30 248 22 q 192 53 206 39 q 177 90 177 67 q 188 205 177 145 q 216 326 199 265 q 252 445 233 387 q 289 556 272 503 q 297 579 292 566 q 305 605 301 591 q 312 631 309 618 q 315 654 315 644 q 310 674 315 667 q 295 685 304 681 q 276 690 286 688 q 256 691 265 691 q 210 689 233 691 q 163 688 186 688 q 105 694 130 688 q 65 715 81 701 q 42 754 50 730 q 34 813 34 778 q 44 854 34 836 q 76 882 54 873 q 115 895 92 889 q 165 904 138 900 q 221 912 192 909 q 278 917 250 915 q 331 921 306 920 q 373 922 355 922 q 442 919 407 922 q 507 903 477 916 q 555 865 536 890 q 574 796 574 840 q 567 744 574 781 q 549 656 560 707 q 522 546 537 606 q 491 424 507 486 q 457 302 474 362 q 424 191 439 242 q 395 103 408 140 q 373 49 382 66 q 347 23 363 31 q 311 15 331 15 z "},"8":{"ha":643,"x_min":34,"x_max":609,"o":"m 313 28 q 205 49 256 28 q 116 106 155 70 q 56 193 78 143 q 34 301 34 243 q 48 385 34 349 q 81 446 63 420 q 114 486 99 471 q 128 509 128 501 q 119 536 128 519 q 97 575 109 553 q 76 626 85 598 q 66 682 66 653 q 84 778 66 735 q 134 852 102 821 q 210 899 165 882 q 306 916 254 916 q 401 900 356 916 q 479 854 446 884 q 533 783 513 825 q 553 689 553 741 q 546 633 553 661 q 530 581 538 606 q 515 537 522 557 q 508 505 508 517 q 515 487 508 496 q 534 466 523 477 q 558 440 545 454 q 583 406 572 425 q 602 359 594 386 q 609 297 609 332 q 585 186 609 235 q 520 101 561 136 q 426 47 479 66 q 313 28 372 28 m 332 222 q 358 228 346 222 q 380 241 370 233 q 395 262 389 250 q 401 288 401 274 q 393 319 401 303 q 373 350 385 335 q 347 378 361 365 q 323 399 334 391 q 307 373 314 388 q 296 341 300 357 q 288 308 291 325 q 286 277 286 292 q 297 239 286 256 q 332 222 309 222 m 317 591 q 331 618 325 603 q 342 649 337 633 q 350 680 347 665 q 353 710 353 696 q 343 748 353 733 q 308 764 333 764 q 272 750 283 764 q 260 712 260 736 q 264 679 260 696 q 277 647 269 663 q 296 616 286 631 q 317 591 307 602 z "},"9":{"ha":669,"x_min":34,"x_max":635,"o":"m 256 1 q 220 15 236 1 q 192 49 203 28 q 175 92 181 69 q 169 132 169 115 q 185 183 169 164 q 233 208 201 203 q 303 224 267 212 q 370 257 340 236 q 419 308 399 278 q 438 379 438 338 q 436 388 438 383 q 429 393 435 393 q 406 386 420 393 q 371 370 391 378 q 327 353 351 361 q 273 346 302 346 q 170 367 215 346 q 95 424 125 388 q 50 508 65 460 q 34 611 34 556 q 54 732 34 675 q 112 831 75 789 q 204 897 150 873 q 325 922 258 922 q 425 904 380 922 q 504 854 469 886 q 563 782 538 823 q 604 694 588 741 q 628 597 620 647 q 635 501 635 548 q 625 387 635 445 q 594 276 614 330 q 542 174 573 222 q 469 90 511 127 q 375 30 427 53 q 261 1 323 6 l 256 1 m 309 568 q 345 571 323 568 q 387 583 366 574 q 421 604 407 591 q 436 636 436 617 q 425 668 436 654 q 398 692 414 682 q 364 706 382 701 q 330 711 346 711 q 295 705 312 711 q 263 688 277 699 q 241 662 250 677 q 233 626 233 646 q 239 598 233 610 q 257 581 246 587 q 281 571 267 574 q 309 568 294 568 z "},"\u0000":{"ha":0,"x_min":0,"x_max":0,"o":""},"\r":{"ha":347,"x_min":0,"x_max":0,"o":""}," ":{"ha":345,"x_min":0,"x_max":0,"o":""}," ":{"ha":345,"x_min":0,"x_max":0,"o":""},"!":{"ha":349,"x_min":41,"x_max":290,"o":"m 156 283 q 131 284 144 283 q 107 290 119 286 q 85 301 95 294 q 68 319 75 308 q 61 345 64 328 q 56 385 58 362 q 54 433 55 408 q 54 483 54 459 q 54 526 54 507 q 54 557 54 546 q 53 600 54 572 q 53 661 53 627 q 55 732 54 695 q 59 801 56 768 q 66 857 62 833 q 77 891 71 882 q 96 907 85 901 q 119 917 107 913 q 144 921 132 920 q 170 922 157 922 q 214 919 195 922 q 248 907 234 916 q 269 882 262 899 q 276 838 276 865 q 279 646 276 741 q 281 454 281 551 q 281 379 281 411 q 271 325 281 347 q 234 293 260 304 q 156 283 208 283 m 161 16 q 115 23 136 16 q 77 46 93 31 q 51 81 60 60 q 41 126 41 101 q 52 174 41 153 q 80 207 62 194 q 121 227 98 220 q 169 234 144 234 q 215 228 193 234 q 253 209 237 221 q 280 177 270 196 q 290 131 290 157 q 279 82 290 104 q 251 46 269 61 q 210 23 233 31 q 161 16 186 16 z "},"\"":{"ha":387,"x_min":33,"x_max":353,"o":"m 102 619 q 58 629 73 619 q 39 656 44 640 q 34 693 33 672 q 34 735 34 713 q 34 806 34 770 q 38 878 34 842 q 46 897 39 889 q 62 909 52 905 q 82 915 71 913 q 103 917 93 917 q 128 915 115 917 q 153 906 142 912 q 173 891 165 901 q 181 868 181 882 q 174 768 181 818 q 168 668 168 719 q 161 646 168 655 q 146 631 155 637 q 125 622 137 625 q 102 619 114 619 m 274 624 q 232 633 245 624 q 212 656 218 642 q 206 690 206 671 q 206 730 206 709 q 205 806 206 767 q 209 882 205 845 q 217 901 210 894 q 234 913 224 909 q 255 919 243 918 q 275 921 266 921 q 300 919 286 921 q 325 910 313 916 q 345 896 336 905 q 353 873 353 886 q 346 773 353 823 q 340 673 340 724 q 334 651 340 661 q 318 635 328 642 q 297 627 309 629 q 274 624 286 624 z "},"#":{"ha":867,"x_min":34,"x_max":833,"o":"m 568 30 q 543 31 556 30 q 516 35 529 31 q 494 46 504 39 q 481 68 485 54 q 475 102 477 81 q 473 145 473 123 q 472 189 472 168 q 472 223 472 210 q 469 240 472 235 q 461 248 467 245 q 449 250 456 250 q 432 250 441 250 q 417 250 426 250 q 402 249 408 250 q 391 231 394 247 q 387 192 388 215 q 384 142 385 169 q 379 93 383 116 q 365 54 374 70 q 338 35 355 37 q 302 31 321 32 q 266 30 284 30 q 218 35 236 30 q 189 50 199 40 q 175 73 179 59 q 171 104 172 87 q 172 142 171 121 q 174 186 174 163 q 163 234 174 222 q 135 245 152 245 q 111 242 123 245 q 85 240 98 240 q 66 243 75 240 q 49 257 56 247 q 38 284 42 267 q 34 331 34 302 q 41 370 34 356 q 60 391 48 385 q 86 400 71 398 q 115 401 100 401 q 135 401 125 401 q 153 403 145 401 q 167 408 161 404 q 175 419 173 412 q 179 440 178 429 q 182 464 181 452 q 183 489 183 477 q 184 511 184 501 q 179 522 184 517 q 166 529 174 526 q 149 532 159 531 q 127 532 138 532 q 101 532 114 532 q 79 531 88 531 q 53 540 62 531 q 40 563 44 549 q 35 591 35 576 q 34 618 34 606 q 40 657 34 643 q 58 678 47 671 q 82 688 68 686 q 111 690 96 690 q 156 690 134 690 q 190 701 177 690 q 201 728 199 709 q 203 771 203 747 q 208 822 204 795 q 223 869 211 848 q 258 905 235 891 q 323 919 281 919 q 395 898 372 919 q 418 827 418 876 q 416 772 418 800 q 413 718 413 745 q 421 701 413 704 q 441 698 429 698 q 455 698 446 698 q 473 699 464 698 q 490 703 482 701 q 500 711 497 706 q 503 729 503 718 q 504 747 503 740 q 510 812 507 781 q 524 867 513 844 q 559 905 535 891 q 626 919 583 919 q 697 897 672 919 q 721 827 723 876 l 717 727 q 724 705 716 710 q 745 701 732 701 q 774 702 758 701 q 803 697 789 703 q 825 675 816 692 q 833 625 833 659 q 829 577 833 595 q 818 549 825 559 q 801 536 810 539 q 781 532 791 532 q 758 534 769 532 q 737 536 747 536 q 713 526 720 536 q 709 509 710 522 q 707 481 707 496 q 706 455 706 467 q 706 439 706 442 q 716 415 705 421 q 741 410 726 410 q 761 411 751 410 q 781 412 772 412 q 809 406 798 412 q 825 389 819 399 q 832 364 830 378 q 833 336 833 351 q 830 282 833 301 q 815 256 826 264 q 783 247 804 248 q 729 245 763 245 q 712 245 722 245 q 696 239 702 244 q 686 216 688 233 q 683 177 684 199 q 683 131 683 155 q 679 86 683 106 q 667 51 675 66 q 642 35 659 37 q 605 31 624 32 q 568 30 587 30 m 450 410 q 460 411 455 410 q 470 413 465 411 q 477 427 475 415 q 481 454 480 439 q 483 484 483 469 q 484 504 484 498 q 481 521 484 515 q 473 529 478 527 q 460 532 468 532 q 443 532 452 532 q 430 532 437 532 q 417 530 423 532 q 408 514 410 528 q 404 485 405 500 q 403 455 403 469 q 404 440 404 441 q 410 416 404 422 q 434 410 416 410 l 450 410 z "},"$":{"ha":720,"x_min":34,"x_max":686,"o":"m 361 -87 q 321 -79 334 -87 q 302 -58 307 -71 q 295 -25 296 -44 q 293 14 294 -7 q 196 29 242 16 q 115 68 150 42 q 60 134 80 94 q 39 232 39 174 q 44 273 39 252 q 58 309 48 293 q 84 336 68 326 q 123 347 100 347 q 177 339 151 347 q 229 322 203 332 q 281 306 255 313 q 336 298 308 298 q 351 300 343 298 q 364 304 358 301 q 374 314 370 308 q 378 328 378 319 q 363 363 378 349 q 325 386 349 376 q 270 404 300 396 q 206 424 239 412 q 143 450 174 435 q 88 489 112 465 q 49 547 64 513 q 34 631 34 582 q 56 729 34 684 q 115 811 79 775 q 197 874 151 848 q 290 914 243 900 q 288 951 289 932 q 288 987 288 969 q 295 1008 288 1000 q 314 1021 302 1016 q 337 1028 325 1026 q 359 1030 349 1030 q 404 1023 389 1030 q 426 1001 419 1015 q 432 968 432 987 q 431 926 432 949 q 470 920 447 925 q 518 907 493 915 q 568 887 543 899 q 613 862 593 876 q 645 830 633 847 q 657 791 657 812 q 645 743 657 768 q 614 696 633 718 q 572 662 595 675 q 524 648 548 648 q 498 651 511 648 q 473 659 486 654 q 449 666 461 663 q 422 669 436 669 q 394 666 412 669 q 360 655 376 663 q 332 638 344 648 q 320 613 320 627 q 327 597 320 604 q 343 585 334 590 q 364 577 353 581 q 381 573 374 574 q 457 554 420 564 q 529 531 495 545 q 591 498 563 517 q 641 453 620 479 q 674 390 662 426 q 686 306 686 354 q 664 204 686 250 q 606 124 642 159 q 523 64 570 89 q 427 27 477 40 q 428 -5 427 11 q 429 -37 429 -21 q 423 -60 429 -51 q 407 -76 416 -70 q 385 -85 397 -82 q 361 -87 372 -87 z "},"%":{"ha":868,"x_min":34,"x_max":834,"o":"m 264 24 q 232 28 250 24 q 198 42 214 33 q 172 65 182 52 q 161 95 161 78 q 171 127 161 102 q 198 192 181 153 q 239 281 216 231 q 290 386 263 331 q 346 499 317 441 q 404 613 375 557 q 458 719 432 669 q 507 808 485 768 q 545 873 529 847 q 568 905 561 899 q 597 916 579 916 q 624 911 609 916 q 653 899 640 907 q 675 879 666 890 q 684 852 684 867 q 674 824 684 848 q 647 761 664 800 q 606 671 629 722 q 557 564 583 621 q 502 447 530 507 q 447 331 474 388 q 394 223 419 274 q 349 132 369 172 q 315 67 328 92 q 296 37 301 41 q 281 26 289 29 q 264 24 274 24 m 648 16 q 571 33 604 16 q 516 78 538 50 q 483 143 494 106 q 471 220 471 180 q 483 299 471 261 q 518 367 495 338 q 576 414 542 397 q 654 432 610 432 q 731 415 698 432 q 788 369 765 397 q 822 302 810 340 q 834 224 834 264 q 822 145 834 183 q 785 78 809 107 q 727 33 762 50 q 648 16 692 16 m 650 158 q 669 165 662 158 q 682 182 677 172 q 688 204 686 193 q 690 224 690 216 q 688 244 690 233 q 682 264 686 255 q 670 280 677 274 q 651 287 663 287 q 633 280 640 287 q 621 264 625 274 q 615 244 616 255 q 613 224 613 233 q 615 205 613 216 q 621 183 616 193 q 632 165 625 172 q 650 158 639 158 m 204 508 q 131 522 163 508 q 77 562 99 536 q 45 621 56 587 q 34 694 34 655 q 47 779 34 737 q 86 852 60 820 q 148 904 111 884 q 231 924 184 924 q 303 908 272 924 q 355 867 334 893 q 387 807 376 842 q 397 734 397 773 q 385 651 397 692 q 347 578 372 610 q 286 527 322 547 q 204 508 250 508 m 218 646 q 236 653 229 646 q 247 669 243 659 q 253 690 252 679 q 255 709 255 701 q 254 727 255 716 q 249 749 252 739 q 239 766 245 759 q 222 773 232 773 q 203 766 211 773 q 191 747 195 758 q 184 725 186 736 q 182 704 182 713 q 183 686 182 696 q 189 667 185 675 q 200 652 193 659 q 218 646 207 646 z "},"&":{"ha":768,"x_min":34,"x_max":734,"o":"m 255 16 q 170 28 210 16 q 99 64 130 40 q 52 125 69 88 q 34 210 34 161 q 44 277 34 246 q 68 335 54 309 q 100 382 83 361 q 131 420 117 404 q 156 447 146 436 q 165 464 165 458 q 162 479 165 472 q 155 494 158 486 q 115 593 129 541 q 102 698 102 645 q 116 787 102 746 q 156 858 130 828 q 221 904 182 887 q 311 920 260 920 q 385 909 347 920 q 455 877 423 899 q 506 824 486 856 q 526 751 526 793 q 518 694 526 723 q 496 637 509 665 q 468 586 483 610 q 440 542 453 562 q 418 510 427 523 q 410 492 410 497 q 412 483 410 489 q 419 472 415 477 q 428 463 423 467 q 436 459 433 459 q 447 468 443 459 q 453 481 451 477 q 479 528 462 502 q 520 579 497 555 q 569 619 543 603 q 618 635 594 635 q 657 624 639 635 q 688 594 675 612 q 710 555 702 576 q 718 515 718 534 q 708 480 718 492 q 685 461 699 469 q 654 449 671 454 q 625 433 638 444 q 611 419 618 427 q 597 400 604 410 q 585 381 590 391 q 575 363 579 371 q 572 349 572 355 q 584 319 572 332 q 614 294 596 306 q 653 272 632 283 q 692 251 674 262 q 722 228 710 240 q 734 202 734 216 q 727 168 734 187 q 707 130 720 148 q 680 100 695 113 q 648 88 664 88 q 597 101 625 88 q 542 130 568 114 q 495 158 515 145 q 467 171 474 171 q 453 159 461 171 q 434 131 446 148 q 408 93 423 113 q 370 56 392 73 q 320 27 349 39 q 255 16 292 16 m 311 642 q 326 649 319 642 q 337 668 332 657 q 343 689 341 678 q 346 707 346 700 q 337 731 346 720 q 315 741 328 741 q 301 737 307 741 q 293 727 296 733 q 288 714 290 721 q 287 700 287 707 q 288 685 287 694 q 291 665 288 675 q 298 649 294 656 q 311 642 302 642 m 258 209 q 279 217 266 209 q 303 237 292 226 q 323 260 315 248 q 332 279 332 273 q 328 291 332 285 q 318 304 324 298 q 307 314 313 310 q 295 318 300 318 q 278 307 287 318 q 261 281 269 296 q 248 252 253 267 q 243 229 243 237 q 246 215 243 221 q 258 209 250 209 z "},"'":{"ha":212,"x_min":34,"x_max":178,"o":"m 107 627 q 86 629 97 627 q 67 636 76 631 q 51 649 58 642 q 43 669 45 657 q 35 774 36 720 q 34 881 34 829 q 41 902 34 893 q 60 915 49 910 q 83 922 71 920 q 104 924 95 924 q 133 921 119 924 q 156 912 146 918 q 172 894 166 905 q 178 867 178 883 q 177 771 178 819 q 176 676 176 724 q 169 653 176 663 q 153 638 163 644 q 131 629 143 632 q 107 627 119 627 z "},"(":{"ha":412,"x_min":34,"x_max":378,"o":"m 252 -142 q 189 -121 217 -142 q 139 -64 161 -100 q 101 18 117 -28 q 73 116 85 64 q 54 220 62 168 q 42 320 46 273 q 36 407 37 368 q 34 471 34 446 q 36 534 34 494 q 42 621 37 573 q 54 721 47 668 q 74 825 62 773 q 102 923 85 876 q 140 1005 118 969 q 190 1061 162 1040 q 252 1082 218 1082 q 294 1073 272 1082 q 335 1048 316 1063 q 366 1013 353 1033 q 378 972 378 993 q 374 956 378 964 q 287 721 313 840 q 260 471 260 602 q 287 220 260 340 q 374 -16 313 101 q 378 -32 378 -24 q 366 -72 378 -52 q 335 -107 353 -92 q 294 -132 316 -123 q 252 -142 272 -142 z "},")":{"ha":412,"x_min":34,"x_max":378,"o":"m 161 -142 q 119 -132 142 -142 q 78 -107 97 -123 q 46 -73 59 -92 q 34 -32 34 -53 q 38 -16 34 -24 q 90 101 68 43 q 126 220 112 160 q 147 342 140 280 q 153 471 153 405 q 126 721 153 602 q 38 956 99 840 q 34 972 34 964 q 46 1013 34 993 q 78 1048 59 1033 q 119 1073 96 1063 q 160 1082 141 1082 q 222 1061 195 1082 q 272 1005 250 1040 q 311 923 294 969 q 339 825 327 876 q 358 721 351 773 q 370 621 366 668 q 377 534 375 573 q 378 471 378 494 q 376 382 378 433 q 367 276 373 332 q 350 162 361 220 q 323 53 339 105 q 284 -41 307 1 q 232 -111 262 -84 q 199 -133 218 -125 q 161 -142 181 -142 z "},"*":{"ha":425,"x_min":34,"x_max":391,"o":"m 292 576 q 264 585 277 576 q 240 606 251 593 q 218 632 229 618 q 199 656 208 646 q 181 636 192 649 q 157 610 170 623 q 132 588 144 597 q 108 578 119 578 q 90 583 99 578 q 74 593 81 587 q 63 609 67 600 q 58 626 58 617 q 67 652 58 640 q 89 676 77 665 q 115 698 102 688 q 137 718 128 709 q 106 727 124 723 q 73 739 89 732 q 45 756 56 745 q 34 786 34 768 q 37 804 34 795 q 44 822 39 814 q 57 835 50 830 q 75 840 65 840 q 96 836 83 840 q 120 825 108 831 q 144 813 133 819 q 164 803 156 806 q 160 836 163 820 q 157 869 157 852 q 171 910 157 895 q 212 926 184 926 q 232 923 222 926 q 249 916 241 921 q 262 902 257 910 q 267 883 267 895 q 265 843 267 863 q 262 803 263 823 q 280 817 271 809 q 298 832 289 825 q 318 844 308 839 q 340 849 329 849 q 361 843 351 849 q 377 827 370 837 q 387 807 383 818 q 391 785 391 795 q 379 753 391 765 q 351 734 368 742 q 315 722 334 727 q 283 711 296 718 q 304 695 292 703 q 328 679 317 688 q 348 659 340 669 q 356 635 356 648 q 350 612 356 623 q 335 593 345 602 q 315 581 326 585 q 292 576 304 576 z "},"+":{"ha":528,"x_min":34,"x_max":494,"o":"m 262 278 q 223 286 237 278 q 202 306 209 294 q 193 335 195 319 q 191 367 191 351 q 190 397 191 382 q 186 420 190 411 q 172 428 182 426 q 147 429 162 429 q 116 429 132 429 q 84 430 99 429 q 57 437 68 432 q 42 452 46 441 q 35 480 37 466 q 34 509 34 495 q 41 548 34 534 q 59 569 48 562 q 85 578 71 576 q 114 580 99 580 q 150 579 133 580 q 177 586 168 579 q 186 605 185 592 q 186 635 187 618 q 185 670 185 652 q 190 704 184 688 q 210 728 196 719 q 253 738 224 738 q 309 732 291 738 q 335 714 328 727 q 341 678 342 701 q 340 622 340 656 q 351 589 340 597 q 379 582 361 582 q 406 584 391 582 q 437 585 421 585 q 481 566 469 585 q 494 519 494 547 q 490 465 494 484 q 474 439 486 447 q 441 431 462 432 q 389 431 421 431 q 353 425 363 431 q 340 409 342 419 q 339 382 337 398 q 341 346 341 366 q 337 308 341 321 q 325 288 334 294 q 300 280 315 281 q 262 278 285 278 z "},",":{"ha":289,"x_min":34,"x_max":255,"o":"m 157 -126 q 136 -124 148 -126 q 114 -117 125 -122 q 97 -105 104 -113 q 90 -86 90 -97 q 96 -65 90 -78 q 110 -37 102 -52 q 124 -8 117 -22 q 130 18 130 7 q 123 28 130 26 q 104 33 115 31 q 80 40 93 35 q 56 62 67 45 q 34 129 34 92 q 44 166 34 150 q 70 194 54 182 q 105 211 85 205 q 142 217 124 217 q 195 205 174 217 q 230 173 216 193 q 249 127 243 153 q 255 74 255 101 q 253 40 255 60 q 245 -2 250 20 q 232 -46 240 -24 q 213 -86 224 -68 q 188 -115 202 -104 q 157 -126 174 -126 z "},"-":{"ha":528,"x_min":34,"x_max":493,"o":"m 164 323 q 131 322 146 323 q 101 321 115 321 q 73 323 85 321 q 52 335 60 326 q 38 360 43 344 q 34 403 34 376 q 35 423 34 413 q 41 441 37 433 q 52 456 45 450 q 69 466 58 463 q 123 474 89 471 q 194 479 157 477 q 266 480 231 480 q 322 480 301 480 q 359 481 335 480 q 408 481 383 482 q 454 475 433 479 q 482 458 475 470 q 491 437 488 448 q 493 414 493 425 q 492 377 493 393 q 485 349 491 360 q 467 331 479 337 q 431 324 454 324 q 298 324 364 325 q 164 323 231 323 z "},"­":{"ha":528,"x_min":34,"x_max":493,"o":"m 164 323 q 131 322 146 323 q 101 321 115 321 q 73 323 85 321 q 52 335 60 326 q 38 360 43 344 q 34 403 34 376 q 35 423 34 413 q 41 441 37 433 q 52 456 45 450 q 69 466 58 463 q 123 474 89 471 q 194 479 157 477 q 266 480 231 480 q 322 480 301 480 q 359 481 335 480 q 408 481 383 482 q 454 475 433 479 q 482 458 475 470 q 491 437 488 448 q 493 414 493 425 q 492 377 493 393 q 485 349 491 360 q 467 331 479 337 q 431 324 454 324 q 298 324 364 325 q 164 323 231 323 z "},".":{"ha":259,"x_min":34,"x_max":225,"o":"m 130 16 q 90 23 108 16 q 60 45 73 31 q 41 77 47 59 q 34 117 34 96 q 41 156 34 138 q 62 188 49 174 q 94 208 75 201 q 133 216 112 216 q 199 190 174 216 q 225 124 225 165 q 219 83 225 103 q 201 48 213 64 q 171 24 189 33 q 130 16 153 16 z "},"/":{"ha":435,"x_min":34,"x_max":401,"o":"m 125 16 q 97 19 113 16 q 67 29 81 22 q 43 47 53 36 q 34 75 34 58 q 43 129 34 87 q 67 228 52 170 q 102 356 82 286 q 143 500 121 427 q 185 643 164 573 q 225 770 207 713 q 258 866 244 827 q 279 916 273 905 q 298 929 287 926 q 321 932 309 932 q 347 929 333 932 q 373 919 361 926 q 393 902 385 912 q 401 877 401 891 q 395 845 401 871 q 379 778 389 819 q 356 686 370 738 q 328 576 343 634 q 297 458 313 519 q 265 340 281 398 q 234 231 249 283 q 208 138 220 179 q 187 70 196 97 q 175 36 178 43 q 154 19 168 22 q 125 16 139 16 z "},":":{"ha":327,"x_min":68,"x_max":259,"o":"m 163 16 q 124 23 142 16 q 94 45 106 31 q 75 77 81 59 q 68 117 68 96 q 75 156 68 138 q 96 188 83 174 q 127 208 109 201 q 167 216 146 216 q 233 190 208 216 q 259 124 259 165 q 253 83 259 103 q 235 48 247 64 q 204 24 222 33 q 163 16 186 16 m 163 536 q 124 544 142 536 q 94 566 106 552 q 75 597 81 579 q 68 637 68 616 q 75 676 68 658 q 96 708 83 694 q 127 729 109 721 q 167 736 146 736 q 233 711 208 736 q 259 645 259 686 q 253 604 259 624 q 235 569 247 585 q 204 545 222 554 q 163 536 186 536 z "},";":{"ha":357,"x_min":68,"x_max":289,"o":"m 191 -126 q 170 -124 182 -126 q 148 -117 159 -122 q 131 -105 138 -113 q 123 -86 123 -97 q 130 -65 123 -78 q 144 -37 136 -52 q 158 -8 151 -22 q 164 18 164 7 q 157 28 164 26 q 138 33 149 31 q 114 40 127 35 q 90 62 101 45 q 68 129 68 92 q 78 166 68 150 q 103 194 87 182 q 139 211 119 205 q 176 217 158 217 q 229 205 208 217 q 263 173 250 193 q 283 127 277 153 q 289 74 289 101 q 287 40 289 60 q 279 -2 284 20 q 266 -46 274 -24 q 247 -86 258 -68 q 222 -115 236 -104 q 191 -126 208 -126 m 163 536 q 124 544 142 536 q 94 566 106 552 q 75 597 81 579 q 68 637 68 616 q 75 676 68 658 q 96 708 83 694 q 127 729 109 721 q 167 736 146 736 q 233 711 208 736 q 259 645 259 686 q 253 604 259 624 q 235 569 247 585 q 204 545 222 554 q 163 536 186 536 z "},"<":{"ha":494,"x_min":34,"x_max":460,"o":"m 395 281 q 365 291 389 281 q 306 315 340 300 q 233 348 272 330 q 159 382 194 366 q 98 411 124 399 q 64 428 73 424 q 40 459 46 438 q 34 499 34 479 q 35 519 34 508 q 39 541 37 530 q 47 561 42 551 q 58 576 52 570 q 82 592 65 583 q 122 614 99 602 q 173 641 145 627 q 229 668 201 654 q 285 693 258 681 q 335 715 313 705 q 373 730 357 724 q 395 735 389 735 q 421 724 409 735 q 441 698 433 713 q 454 665 450 682 q 459 636 459 648 q 450 612 459 623 q 426 595 444 604 q 382 576 407 586 q 332 555 358 566 q 283 536 305 545 q 246 520 260 528 q 231 507 231 512 q 248 492 231 500 q 291 475 265 484 q 346 455 316 466 q 400 433 375 445 q 443 407 426 421 q 460 377 460 393 q 454 350 460 366 q 440 318 449 333 q 419 292 431 302 q 395 281 407 281 z "},"=":{"ha":499,"x_min":34,"x_max":465,"o":"m 158 522 q 126 521 141 522 q 100 520 112 520 q 72 523 84 520 q 51 534 60 526 q 38 557 43 542 q 34 596 34 572 q 40 633 34 615 q 67 656 47 650 q 118 665 85 662 q 187 669 151 667 q 257 670 223 670 q 310 670 290 670 q 343 671 326 670 q 378 672 361 672 q 411 670 395 672 q 439 661 427 667 q 458 641 451 654 q 465 607 465 628 q 461 562 465 579 q 450 536 458 545 q 430 524 442 527 q 401 522 418 522 q 370 523 387 522 q 333 524 353 524 q 245 523 289 524 q 158 522 202 523 m 158 346 q 126 345 141 346 q 100 344 112 344 q 72 347 84 344 q 51 357 60 349 q 38 380 43 366 q 34 420 34 395 q 35 439 34 429 q 40 456 37 448 q 51 471 44 465 q 67 480 57 477 q 118 488 85 486 q 187 492 151 491 q 257 494 223 494 q 310 494 290 494 q 343 495 326 494 q 378 496 361 496 q 411 493 395 496 q 439 484 427 491 q 458 465 451 477 q 465 431 465 452 q 461 386 465 403 q 450 360 458 369 q 430 348 442 351 q 401 345 418 345 q 370 346 387 345 q 333 347 353 347 q 245 347 289 347 q 158 346 202 347 z "},">":{"ha":494,"x_min":34,"x_max":460,"o":"m 98 281 q 74 292 86 281 q 54 318 62 303 q 39 350 45 334 q 34 377 34 366 q 51 407 34 393 q 93 433 68 421 q 148 456 119 446 q 203 476 178 467 q 245 493 229 485 q 262 507 262 500 q 248 519 262 512 q 211 536 233 527 q 163 555 189 545 q 112 575 136 566 q 68 595 87 585 q 43 612 50 604 q 34 636 34 623 q 39 665 34 648 q 52 698 43 682 q 73 724 61 713 q 99 735 85 735 q 132 726 106 735 q 191 701 157 716 q 264 668 225 686 q 338 632 303 650 q 400 600 373 614 q 435 576 427 585 q 447 561 442 570 q 454 541 452 551 q 458 519 457 530 q 460 499 460 508 q 454 459 460 479 q 429 428 448 438 q 395 411 421 424 q 335 382 370 399 q 260 348 300 366 q 187 315 221 330 q 129 291 153 300 q 98 281 104 281 z "},"?":{"ha":568,"x_min":34,"x_max":534,"o":"m 205 273 q 178 281 189 273 q 163 302 168 290 q 155 329 157 315 q 153 357 153 344 q 165 427 153 395 q 195 489 177 460 q 234 543 214 517 q 273 591 255 568 q 303 637 292 614 q 315 682 315 659 q 312 697 315 690 q 299 704 309 704 q 270 695 281 704 q 251 674 259 687 q 236 646 243 661 q 218 617 229 631 q 193 596 208 604 q 154 587 178 587 q 105 592 127 587 q 67 609 83 597 q 43 640 52 621 q 34 687 34 659 q 57 780 34 737 q 116 855 79 823 q 199 905 153 887 q 293 924 245 924 q 385 909 341 924 q 461 866 429 894 q 514 797 494 838 q 534 706 534 757 q 526 644 534 673 q 503 588 517 614 q 467 537 488 561 q 423 493 447 513 q 371 427 391 465 q 351 347 351 389 q 350 321 351 334 q 347 297 350 309 q 324 279 342 285 q 283 273 306 274 q 238 272 260 271 q 205 273 216 273 m 254 16 q 208 23 230 16 q 170 45 186 31 q 144 80 154 60 q 135 126 135 101 q 146 174 135 154 q 174 208 157 194 q 215 228 192 221 q 263 234 239 234 q 309 228 287 234 q 347 208 330 221 q 374 176 364 195 q 385 131 385 157 q 374 82 385 104 q 345 46 363 61 q 303 23 327 31 q 254 16 280 16 z "},"@":{"ha":977,"x_min":34,"x_max":943,"o":"m 448 -99 q 272 -66 349 -99 q 142 26 195 -33 q 61 165 89 85 q 34 341 34 246 q 48 478 34 410 q 92 608 63 546 q 161 725 120 671 q 255 818 202 779 q 373 880 309 857 q 512 903 437 903 q 686 871 607 903 q 822 783 765 840 q 911 647 880 726 q 943 473 943 568 q 928 355 943 414 q 880 247 912 295 q 798 168 848 198 q 682 137 749 137 q 633 143 653 137 q 600 159 613 149 q 578 179 587 168 q 565 199 570 190 q 554 215 559 209 q 543 221 549 221 q 529 217 536 221 q 510 207 521 212 q 485 197 499 201 q 454 193 471 193 q 382 211 412 193 q 334 258 353 229 q 306 323 315 287 q 297 395 297 359 q 309 484 297 439 q 344 566 320 529 q 405 626 368 602 q 491 649 441 649 q 546 636 522 649 q 587 599 570 624 l 592 595 q 598 601 596 597 q 604 607 601 604 q 611 613 606 610 q 627 615 616 615 q 679 596 663 615 q 694 543 694 576 q 689 463 694 503 q 684 382 684 422 q 685 365 684 378 q 688 339 686 352 q 694 315 690 326 q 706 304 699 304 q 728 314 718 304 q 744 337 737 323 q 755 370 751 352 q 762 406 760 388 q 766 438 765 423 q 767 462 767 453 q 751 573 767 521 q 705 664 736 625 q 626 726 673 703 q 516 749 579 749 q 427 734 467 749 q 355 692 387 719 q 300 630 323 665 q 260 553 276 594 q 237 468 245 512 q 229 382 229 425 q 240 284 229 335 q 276 191 252 233 q 340 121 301 149 q 435 94 380 94 q 504 98 470 94 q 572 102 538 102 q 600 94 589 102 q 618 72 611 85 q 627 43 625 59 q 630 14 630 28 q 628 -12 630 3 q 621 -40 626 -26 q 608 -65 616 -54 q 587 -81 600 -77 q 555 -90 572 -86 q 518 -95 537 -93 q 481 -98 500 -97 q 448 -99 463 -99 m 515 372 q 532 378 526 372 q 541 391 538 383 q 544 409 543 399 q 545 425 545 418 q 545 448 545 435 q 544 472 546 460 q 535 491 542 484 q 515 499 529 499 q 478 481 490 499 q 466 439 466 463 q 469 416 466 429 q 477 395 471 404 q 493 379 484 385 q 515 372 503 372 z "},"A":{"ha":749,"x_min":12,"x_max":732,"o":"m 575 18 q 533 35 550 18 q 504 79 516 53 q 481 137 491 106 q 463 194 472 168 q 443 238 454 220 q 417 256 432 256 q 393 255 410 256 q 359 254 377 255 q 325 251 341 253 q 303 247 309 250 q 279 216 291 242 q 256 156 268 189 q 232 93 244 123 q 205 50 219 62 q 181 37 195 40 q 153 33 167 33 q 107 39 132 33 q 61 56 83 44 q 26 85 40 67 q 12 128 12 103 q 21 222 12 166 q 46 341 31 277 q 81 473 62 405 q 122 604 101 541 q 164 721 144 667 q 202 810 185 774 q 267 892 226 861 q 366 924 309 924 q 431 916 403 924 q 481 892 460 908 q 519 851 503 876 q 547 793 535 827 q 575 711 557 764 q 613 593 593 658 q 655 458 634 528 q 693 325 676 388 q 721 212 710 262 q 732 138 732 162 q 715 92 732 113 q 675 54 699 70 q 624 27 651 37 q 575 18 597 18 m 337 429 q 360 429 345 429 q 391 431 376 429 q 418 439 407 433 q 430 456 430 445 q 427 471 430 459 q 420 500 425 484 q 409 536 415 517 q 396 571 403 555 q 384 598 390 587 q 372 608 378 608 q 360 598 367 608 q 347 572 353 588 q 333 536 340 555 q 322 498 327 517 q 314 466 317 480 q 311 444 311 451 q 320 431 311 433 q 337 429 329 429 z "},"B":{"ha":716,"x_min":47,"x_max":688,"o":"m 243 7 q 200 8 222 7 q 157 14 178 9 q 112 53 130 21 q 81 130 93 84 q 62 229 69 175 q 53 333 56 282 q 49 426 50 383 q 49 490 49 468 q 48 569 49 528 q 49 652 47 610 q 56 733 51 693 q 73 810 61 773 q 106 871 84 848 q 157 906 128 894 q 220 921 186 918 q 290 924 254 924 q 377 917 334 924 q 457 890 420 909 q 522 840 494 871 q 564 762 549 808 q 571 712 571 737 q 563 660 571 684 q 546 616 555 636 q 529 582 536 596 q 521 557 521 567 q 533 541 521 549 q 564 523 546 533 q 605 497 583 512 q 645 459 627 482 q 676 404 663 436 q 688 326 688 371 q 668 225 688 270 q 614 144 648 180 q 536 83 581 109 q 441 40 491 57 q 341 15 392 23 q 243 7 290 7 m 279 577 q 333 598 313 577 q 352 654 352 619 q 348 681 352 667 q 337 707 345 695 q 318 727 330 720 q 292 735 307 735 q 280 729 283 735 q 276 716 277 724 q 270 652 272 685 q 268 589 268 620 q 270 579 268 583 q 279 577 274 577 m 322 235 q 351 243 338 235 q 374 263 364 251 q 389 291 384 276 q 395 320 395 306 q 374 370 395 352 q 323 389 353 389 q 308 383 313 389 q 303 368 304 378 q 299 318 301 343 q 296 269 296 294 q 301 245 296 254 q 322 235 307 235 z "},"C":{"ha":676,"x_min":18,"x_max":635,"o":"m 375 28 q 264 47 314 28 q 174 100 214 66 q 105 178 134 133 q 57 274 76 222 q 28 379 37 325 q 18 488 18 434 q 40 649 18 570 q 106 790 62 728 q 219 890 151 852 q 380 928 288 928 q 479 913 434 928 q 558 869 525 899 q 609 798 591 840 q 628 699 628 755 q 616 653 628 673 q 586 622 604 634 q 544 603 567 609 q 496 597 520 597 q 444 606 463 597 q 414 627 425 614 q 398 655 404 640 q 388 684 393 671 q 373 705 382 696 q 345 714 363 714 q 309 701 325 714 q 282 668 294 688 q 264 622 271 648 q 252 572 256 597 q 245 524 248 547 q 243 487 243 501 q 245 451 243 471 q 250 411 246 431 q 261 370 254 390 q 279 335 269 351 q 306 310 290 319 q 342 300 321 300 q 375 309 360 300 q 400 331 389 318 q 419 360 411 345 q 433 391 427 376 q 451 420 441 410 q 474 436 461 431 q 502 443 486 441 q 535 444 517 444 q 582 431 563 444 q 613 396 602 417 q 630 351 625 376 q 635 302 635 326 q 616 197 635 247 q 562 110 597 147 q 480 50 528 72 q 375 28 432 28 z "},"D":{"ha":681,"x_min":44,"x_max":640,"o":"m 176 45 q 129 50 151 45 q 90 76 108 54 q 64 136 73 98 q 50 216 54 174 q 45 300 45 259 q 44 368 44 340 q 45 413 44 385 q 46 476 45 441 q 50 551 47 511 q 56 630 52 590 q 64 708 59 670 q 76 778 69 746 q 91 833 82 810 q 109 869 99 857 q 165 903 132 894 q 231 913 198 913 q 388 882 314 913 q 518 798 463 851 q 607 671 574 744 q 640 515 640 598 q 623 391 640 450 q 577 279 607 331 q 505 183 547 227 q 411 110 463 140 q 300 62 359 79 q 176 45 240 45 m 288 355 q 323 372 309 355 q 347 412 338 389 q 360 459 356 435 q 364 499 364 484 q 361 537 364 515 q 350 579 358 559 q 329 614 342 600 q 295 629 315 629 q 286 621 288 629 q 283 608 283 613 q 274 498 275 556 q 273 389 273 441 q 273 379 273 385 q 275 368 273 374 q 279 359 276 363 q 288 355 282 355 z "},"E":{"ha":617,"x_min":38,"x_max":602,"o":"m 314 36 q 263 38 292 36 q 206 46 235 40 q 153 66 178 53 q 117 100 129 79 q 91 165 102 127 q 71 247 79 203 q 56 340 62 292 q 45 434 50 388 q 40 520 41 479 q 38 592 38 562 q 47 731 38 670 q 85 836 56 793 q 169 901 115 878 q 312 924 222 924 q 348 922 327 924 q 394 917 370 920 q 443 908 418 913 q 489 893 467 902 q 527 874 511 885 q 550 848 543 863 q 559 821 556 835 q 562 793 562 807 q 557 759 562 777 q 545 724 553 740 q 522 697 536 708 q 489 687 508 687 q 386 696 436 687 q 283 713 335 705 l 277 713 q 260 709 267 713 q 249 697 253 704 q 242 681 244 690 q 239 663 239 671 q 242 623 239 641 q 252 591 244 604 q 275 571 260 578 q 315 564 290 564 q 369 569 342 564 q 424 574 396 574 q 456 571 440 574 q 485 559 472 567 q 506 538 498 551 q 513 506 513 525 q 507 468 513 488 q 488 433 500 449 q 458 407 475 417 q 422 397 441 397 q 377 403 399 397 q 333 409 356 409 q 288 395 304 409 q 271 351 271 380 q 288 296 271 314 q 341 277 304 277 q 385 281 363 277 q 428 288 406 284 q 470 295 449 292 q 513 298 492 298 q 579 276 555 298 q 602 211 602 253 q 597 162 602 188 q 580 114 591 136 q 551 74 569 91 q 507 53 533 58 q 411 40 460 43 q 314 36 362 36 z "},"F":{"ha":562,"x_min":43,"x_max":570,"o":"m 194 7 q 133 22 160 7 q 94 72 105 38 q 70 173 79 116 q 54 289 60 229 q 45 407 47 349 q 43 512 43 465 q 47 644 43 585 q 64 749 51 703 q 100 828 77 795 q 164 882 124 861 q 262 913 204 903 q 401 924 320 924 l 435 924 q 484 921 460 924 q 528 909 509 919 q 558 881 547 900 q 570 827 570 861 q 566 792 570 812 q 553 752 562 772 q 532 718 545 733 q 503 699 519 703 q 472 695 493 696 q 427 692 452 694 q 377 688 403 690 q 330 680 351 685 q 296 667 309 675 q 282 646 282 659 q 283 633 282 640 q 286 619 283 625 q 293 608 288 612 q 307 604 298 604 q 356 610 332 604 q 406 616 380 616 q 452 607 434 616 q 481 582 471 597 q 496 544 492 566 q 500 497 500 522 q 485 438 500 458 q 446 410 469 418 q 396 399 422 401 q 346 395 369 397 q 307 387 322 393 q 292 363 292 381 q 296 308 292 336 q 302 253 300 280 q 311 165 305 208 q 323 78 316 122 l 324 74 q 309 44 324 57 q 272 23 294 32 q 229 11 251 15 q 194 7 208 7 z "},"G":{"ha":701,"x_min":22,"x_max":658,"o":"m 342 8 q 240 26 286 8 q 158 77 194 45 q 97 151 123 109 q 55 241 71 193 q 30 340 38 289 q 22 439 22 391 q 33 549 22 492 q 65 659 44 605 q 118 761 86 713 q 191 845 149 809 q 283 903 232 882 q 396 924 335 924 q 432 921 410 924 q 477 912 453 918 q 525 897 500 906 q 569 877 549 888 q 602 852 589 866 q 618 822 616 838 q 620 812 620 817 q 620 802 620 808 q 611 756 620 783 q 587 704 602 729 q 552 662 572 680 q 510 644 532 644 q 479 653 494 644 q 446 673 463 662 q 408 692 429 684 q 363 701 388 701 q 326 691 341 701 q 299 665 310 682 q 281 628 288 649 q 270 586 274 608 q 264 544 266 565 q 263 507 263 524 q 265 464 263 490 q 273 408 267 437 q 287 350 278 379 q 309 297 296 321 q 340 259 322 274 q 382 245 358 245 q 415 252 398 245 q 445 272 431 260 q 466 300 458 284 q 475 333 475 316 q 471 356 475 347 q 459 369 467 364 q 443 375 452 374 q 424 377 434 377 q 402 376 413 377 q 381 375 391 375 q 348 386 361 375 q 327 414 335 397 q 315 450 319 431 q 311 486 311 469 q 325 542 311 520 q 359 575 338 564 q 409 592 381 587 q 465 596 436 596 q 553 585 517 596 q 613 549 589 573 q 647 488 636 526 q 658 400 658 451 q 649 306 658 353 q 623 215 640 259 q 579 134 606 172 q 518 68 553 96 q 439 24 484 40 q 342 8 395 8 z "},"H":{"ha":751,"x_min":47,"x_max":688,"o":"m 575 16 q 539 19 557 16 q 505 28 522 22 q 477 51 487 36 q 465 84 468 65 q 451 177 457 131 q 443 271 445 224 q 441 298 442 284 q 432 324 439 313 q 420 333 428 330 q 404 338 412 336 q 386 340 395 340 q 371 340 377 340 q 316 326 334 340 q 299 272 299 311 q 302 232 299 252 q 308 192 304 212 q 315 152 312 172 q 317 112 317 132 q 305 65 317 83 q 272 37 292 47 q 228 24 252 27 q 180 20 203 20 q 138 26 158 20 q 104 50 119 33 q 90 88 96 60 q 77 157 83 117 q 67 247 72 197 q 60 347 63 296 q 54 450 56 399 q 50 545 52 501 q 47 622 48 589 q 47 671 47 655 q 47 768 47 726 q 62 839 48 810 q 109 883 75 867 q 207 898 142 898 q 269 889 248 898 q 298 863 290 880 q 307 820 307 846 q 307 760 307 794 q 303 676 307 718 q 299 593 299 635 q 306 564 299 574 q 323 551 312 555 q 347 548 334 547 q 376 548 361 548 q 387 548 380 548 q 401 549 393 548 q 416 551 409 549 q 425 555 422 552 q 433 584 431 559 q 435 643 435 608 q 435 719 435 678 q 437 797 435 760 q 444 865 439 835 q 459 907 449 895 q 477 921 467 916 q 499 929 488 926 q 523 932 511 932 q 547 932 536 932 q 579 931 562 932 q 610 924 595 930 q 635 907 625 918 q 647 878 645 897 q 676 530 665 705 q 688 182 688 356 q 688 115 688 145 q 679 62 688 84 q 646 28 670 40 q 575 16 623 16 z "},"I":{"ha":365,"x_min":52,"x_max":294,"o":"m 157 28 q 135 28 146 28 q 114 32 124 29 q 96 42 104 35 q 83 60 88 48 q 72 109 77 76 q 63 184 66 142 q 58 274 60 227 q 54 365 56 321 q 53 445 53 408 q 52 502 52 481 l 53 802 q 88 893 53 865 q 182 920 123 920 q 210 918 196 920 q 235 911 223 916 q 256 896 247 905 q 269 871 264 886 q 275 833 272 861 q 280 765 277 805 q 284 676 282 725 q 288 575 286 627 q 291 471 290 523 q 293 374 292 420 q 294 293 294 329 q 294 237 294 258 q 294 166 294 201 q 291 94 294 130 q 282 60 290 75 q 255 39 275 44 q 206 31 231 34 q 157 28 180 28 z "},"J":{"ha":625,"x_min":9,"x_max":619,"o":"m 284 20 q 165 46 217 20 q 79 118 114 73 q 26 220 44 162 q 9 340 9 278 q 9 357 9 349 q 10 374 9 366 q 28 407 13 393 q 65 431 44 421 q 109 445 87 440 q 147 450 132 450 q 194 437 178 450 q 218 403 210 423 q 227 359 225 383 q 230 316 228 336 q 237 282 231 296 q 258 269 242 269 q 283 288 273 269 q 299 336 293 307 q 309 400 306 365 q 314 468 312 435 q 315 527 315 501 q 315 564 315 553 q 315 591 315 573 q 315 628 315 609 q 314 664 315 647 q 311 688 313 681 q 301 700 307 696 q 286 703 294 703 q 257 700 271 703 q 227 694 242 697 q 198 688 212 691 q 169 686 183 686 q 139 702 153 686 q 115 740 125 718 q 100 785 105 762 q 94 822 94 808 q 107 869 94 850 q 149 892 120 887 q 304 915 224 907 q 461 924 383 924 q 536 922 506 924 q 585 907 567 920 q 611 869 604 895 q 619 793 619 842 q 619 773 619 783 q 616 754 618 763 q 609 737 614 745 q 594 724 604 729 q 574 718 587 720 q 551 713 562 716 q 531 706 539 711 q 522 692 522 702 q 524 674 522 683 q 526 656 525 665 q 533 574 532 616 q 534 491 534 532 q 531 398 534 450 q 519 295 528 347 q 493 193 510 243 q 449 105 477 144 q 381 43 421 66 q 284 20 340 20 z "},"K":{"ha":727,"x_min":46,"x_max":705,"o":"m 203 16 q 174 17 189 16 q 145 23 159 18 q 120 37 131 28 q 104 62 109 46 q 84 135 93 92 q 70 228 76 178 q 59 330 64 277 q 52 434 54 383 q 47 529 49 484 q 46 607 46 574 q 46 645 46 621 q 48 699 47 669 q 53 758 50 728 q 62 816 56 789 q 76 863 67 843 q 96 891 84 883 q 139 910 116 904 q 186 917 163 917 q 230 909 212 917 q 260 886 248 901 q 278 851 272 871 q 283 807 283 831 q 277 761 283 783 q 271 717 271 739 l 273 712 q 292 727 278 713 q 327 764 307 742 q 373 812 348 786 q 425 860 399 838 q 476 896 451 882 q 522 911 502 911 q 559 901 543 911 q 586 875 575 890 q 604 840 597 859 q 610 802 610 821 q 595 755 610 782 q 559 701 581 729 q 512 646 537 673 q 465 596 487 618 q 429 557 444 573 q 414 536 414 541 q 418 529 414 531 q 425 526 422 528 q 478 515 448 518 q 538 503 508 512 q 610 456 578 488 q 662 381 641 423 q 694 294 684 340 q 705 209 705 248 q 699 165 705 182 q 679 137 692 148 q 648 119 666 126 q 606 106 629 113 q 581 101 593 103 q 555 98 569 98 q 509 126 523 98 q 476 186 494 157 q 436 241 458 216 q 387 288 414 267 q 327 321 360 309 q 323 323 326 322 q 319 323 321 323 q 307 314 309 323 q 304 297 304 304 q 308 246 304 271 q 314 195 311 220 q 321 145 318 170 q 324 94 324 119 q 324 80 324 87 q 323 67 324 74 q 306 42 320 52 q 273 26 292 33 q 235 18 254 20 q 203 16 216 16 z "},"L":{"ha":605,"x_min":45,"x_max":598,"o":"m 272 34 q 174 51 214 34 q 109 96 134 67 q 71 163 84 125 q 52 245 58 202 q 46 335 47 289 q 45 424 45 380 q 53 633 45 528 q 74 842 60 739 q 87 878 77 864 q 114 901 98 892 q 150 911 130 909 q 189 914 170 914 q 222 913 203 914 q 260 906 241 911 q 291 889 278 900 q 305 859 304 878 l 306 808 q 302 641 306 724 q 298 474 298 558 q 297 446 298 465 q 298 403 297 427 q 300 353 298 379 q 307 307 302 328 q 318 272 311 286 q 336 258 326 258 q 367 267 348 258 q 410 285 386 275 q 461 303 434 295 q 515 312 488 312 q 555 302 538 312 q 581 277 571 293 q 594 241 590 261 q 598 201 598 221 q 594 155 598 179 q 581 111 591 130 q 551 79 572 92 q 501 58 530 66 q 440 45 473 50 q 376 38 408 40 q 317 35 345 35 q 272 34 290 34 z "},"M":{"ha":901,"x_min":50,"x_max":841,"o":"m 176 38 q 148 40 165 38 q 113 47 130 42 q 83 61 96 52 q 66 83 70 69 q 60 127 63 96 q 56 199 58 158 q 53 286 54 240 q 51 374 52 332 q 51 451 51 416 q 50 502 50 485 q 53 648 50 575 q 63 794 55 722 q 78 850 67 828 q 106 886 88 873 q 148 904 123 899 q 205 909 173 909 q 241 907 223 909 q 274 895 258 904 q 299 866 286 888 q 326 814 312 844 q 353 750 339 785 q 378 683 366 715 q 398 623 389 650 q 413 580 408 595 q 416 571 414 576 q 421 559 418 565 q 428 549 424 553 q 436 545 431 545 q 455 564 444 545 q 481 614 467 584 q 512 681 496 644 q 542 752 528 718 q 569 815 557 787 q 589 855 581 843 q 610 877 596 867 q 641 893 624 886 q 674 902 657 899 q 705 905 691 905 q 762 889 739 905 q 791 838 786 873 q 828 507 814 673 q 841 174 841 342 q 832 120 841 144 q 807 78 823 96 q 766 51 790 60 q 712 41 743 41 q 687 43 703 41 q 655 51 671 45 q 628 64 640 56 q 617 85 617 73 q 619 193 617 140 q 621 301 621 247 q 621 337 621 315 q 620 381 621 358 q 617 426 619 404 q 611 460 615 447 q 608 467 610 463 q 602 472 606 472 q 595 468 599 472 q 590 460 592 465 q 585 451 587 456 q 582 444 583 446 q 569 409 574 427 q 560 374 564 391 q 549 316 553 345 q 534 264 545 288 q 504 227 524 241 q 443 212 483 212 q 418 214 431 212 q 392 221 405 216 q 369 234 380 227 q 353 253 359 242 q 342 277 350 260 q 325 317 334 295 q 303 364 315 340 q 282 409 292 389 q 264 441 272 429 q 252 454 256 454 q 246 450 248 454 q 243 439 244 445 q 242 428 242 433 q 242 420 242 422 q 247 339 242 380 q 257 258 252 298 q 268 178 263 218 q 273 98 273 138 q 264 65 273 77 q 241 47 255 53 q 210 39 227 41 q 176 38 193 38 z "},"N":{"ha":808,"x_min":50,"x_max":739,"o":"m 228 36 q 193 38 213 36 q 153 47 172 41 q 117 63 133 53 q 95 89 101 73 q 79 154 86 113 q 67 248 72 196 q 59 357 62 300 q 54 467 56 414 q 51 565 52 520 q 50 638 50 610 q 50 691 50 660 q 52 755 50 722 q 58 818 54 787 q 71 867 62 848 q 92 896 77 884 q 123 915 106 908 q 160 926 141 922 q 197 929 180 929 q 231 925 216 929 q 257 911 246 920 q 277 889 269 903 q 294 857 286 876 q 309 822 298 848 q 335 762 320 795 q 368 691 351 728 q 402 624 385 654 q 435 573 420 593 q 460 553 450 553 q 473 563 468 553 q 481 584 478 572 q 486 607 484 595 q 488 624 488 619 q 498 752 496 688 q 505 881 501 817 q 513 903 505 893 q 533 919 522 913 q 557 929 545 926 q 581 933 570 933 q 609 932 593 933 q 642 928 625 931 q 675 922 659 926 q 701 911 690 918 q 711 887 707 908 q 720 832 716 865 q 727 756 724 798 q 732 668 730 713 q 735 578 734 623 q 738 496 736 534 q 739 430 739 458 q 739 390 739 401 q 739 353 739 378 q 738 297 739 328 q 735 233 737 267 q 728 170 732 199 q 718 118 724 140 q 703 87 712 95 q 640 51 676 62 q 568 39 604 39 q 528 50 545 39 q 499 78 511 60 q 455 151 476 114 q 415 225 435 188 q 374 301 395 263 q 332 375 354 338 q 328 381 331 377 q 322 391 326 386 q 316 399 319 395 q 309 402 312 402 q 303 397 305 402 q 301 387 302 393 q 300 375 300 380 q 300 368 300 369 q 304 304 300 336 q 311 241 307 273 q 319 178 315 210 q 322 115 322 146 q 316 75 322 91 q 297 51 309 60 q 267 39 285 43 q 228 36 250 36 z "},"O":{"ha":755,"x_min":20,"x_max":709,"o":"m 360 27 q 253 45 301 27 q 167 94 205 63 q 101 168 129 125 q 56 258 74 210 q 28 359 37 307 q 20 462 20 411 q 29 569 20 515 q 57 674 38 623 q 104 770 75 726 q 171 849 132 815 q 260 902 210 882 q 371 921 310 921 q 478 903 430 921 q 564 852 526 884 q 629 778 602 821 q 674 686 656 735 q 701 585 692 637 q 709 481 709 532 q 701 375 709 429 q 673 270 692 321 q 626 175 654 220 q 559 98 598 131 q 471 46 520 65 q 360 27 421 27 m 354 286 q 382 296 370 286 q 401 325 393 307 q 415 363 410 342 q 423 405 420 385 q 427 444 426 426 q 428 473 428 462 q 427 503 428 484 q 423 546 426 523 q 415 594 420 570 q 402 638 410 618 q 382 671 393 659 q 354 684 370 684 q 326 674 338 684 q 304 649 313 665 q 289 613 295 633 q 279 573 283 593 q 274 536 275 553 q 272 507 272 518 q 273 474 272 495 q 278 429 275 454 q 288 379 282 404 q 303 333 294 353 q 325 299 312 312 q 354 286 337 286 z "},"P":{"ha":641,"x_min":43,"x_max":612,"o":"m 197 16 q 158 18 178 16 q 123 31 139 20 q 92 71 105 44 q 70 132 79 98 q 55 206 60 167 q 47 282 50 245 q 44 351 45 319 q 43 402 43 382 q 44 461 43 427 q 47 534 45 495 q 53 615 50 574 q 61 694 56 656 q 72 765 66 732 q 87 819 79 798 q 126 871 99 850 q 186 905 153 892 q 256 922 220 917 q 322 927 292 927 q 440 905 387 927 q 532 844 494 884 q 591 751 570 805 q 612 633 612 697 q 592 516 612 568 q 535 425 572 463 q 447 364 498 387 q 332 338 395 342 q 299 324 308 336 q 291 290 291 311 q 295 245 291 267 q 304 201 299 223 q 313 157 309 179 q 317 111 317 134 q 308 60 317 79 q 284 32 300 41 q 247 19 269 22 q 197 16 224 16 m 294 545 q 327 553 312 545 q 351 574 341 561 q 367 603 361 587 q 373 635 373 618 q 368 667 373 651 q 353 696 363 683 q 329 716 343 709 q 297 724 315 724 q 290 714 292 724 q 286 692 288 705 q 284 668 285 680 q 284 654 284 656 q 283 609 283 631 q 283 564 283 587 q 284 551 283 557 q 294 545 286 545 z "},"Q":{"ha":744,"x_min":14,"x_max":748,"o":"m 658 -18 q 614 -10 637 -18 q 571 12 592 -1 q 533 43 551 26 q 505 77 516 60 q 500 85 504 79 q 493 99 497 92 q 486 112 489 106 q 481 119 482 118 q 458 110 469 116 q 436 98 447 103 q 386 83 412 89 q 334 77 360 77 q 241 96 284 77 q 162 148 197 115 q 99 223 126 180 q 53 313 71 266 q 24 408 34 359 q 14 500 14 456 q 23 601 14 551 q 50 698 32 651 q 95 785 68 745 q 159 855 122 825 q 243 902 196 885 q 347 920 290 920 q 449 903 403 920 q 531 856 494 886 q 593 787 567 827 q 637 702 620 747 q 664 606 655 656 q 672 508 672 557 q 663 407 672 457 q 634 309 654 356 q 619 268 626 290 q 612 225 612 247 q 622 189 612 203 q 647 163 632 174 q 680 145 662 153 q 713 130 698 138 q 738 113 728 122 q 748 89 748 103 q 742 51 748 70 q 724 16 736 31 q 695 -9 712 1 q 658 -18 679 -18 m 346 314 q 380 325 366 314 q 405 352 394 335 q 422 389 416 368 q 433 432 429 410 q 439 473 437 453 q 441 507 441 492 q 439 537 441 519 q 434 575 438 555 q 425 615 431 595 q 409 651 418 635 q 386 677 399 667 q 355 687 372 687 q 321 677 336 687 q 296 650 307 667 q 279 613 286 633 q 269 571 273 592 q 263 530 264 549 q 261 496 261 510 q 262 466 261 484 q 267 427 264 447 q 277 386 271 406 q 292 350 283 366 q 314 324 301 334 q 346 314 328 314 z "},"R":{"ha":696,"x_min":41,"x_max":659,"o":"m 170 16 q 136 21 153 16 q 105 36 119 26 q 79 72 90 47 q 61 127 68 96 q 50 194 54 159 q 44 263 46 230 q 41 326 42 297 q 41 374 41 355 q 49 551 41 463 q 70 726 58 638 q 103 822 78 784 q 164 882 127 860 q 249 913 201 904 q 351 922 296 922 q 467 899 414 922 q 557 836 519 876 q 616 742 595 796 q 637 626 637 688 q 632 575 637 601 q 618 526 628 549 q 594 481 609 502 q 558 444 579 460 q 549 438 555 442 q 537 429 543 434 q 527 419 531 425 q 522 410 522 414 q 526 402 522 406 q 534 395 529 398 q 544 389 538 391 q 551 384 549 386 q 597 341 577 368 q 631 283 617 315 q 651 219 644 252 q 659 157 659 186 q 645 104 659 126 q 610 67 631 81 q 561 45 588 52 q 506 39 534 39 q 484 40 497 39 q 459 45 471 41 q 436 55 446 48 q 422 71 426 61 q 411 107 417 84 q 398 159 406 131 q 381 216 391 186 q 361 269 372 245 q 335 307 349 292 q 302 322 320 322 q 291 318 295 322 q 284 309 286 315 q 281 297 282 304 q 281 285 281 290 q 287 221 281 252 q 294 157 294 189 q 287 100 294 126 q 266 55 281 74 q 228 26 251 37 q 170 16 204 16 m 307 499 q 337 510 324 499 q 359 537 350 522 q 373 571 368 553 q 378 604 378 589 q 374 628 378 616 q 364 649 371 640 q 346 664 357 659 q 321 669 336 669 q 305 661 311 669 q 296 638 299 652 q 292 607 293 624 q 291 574 291 590 q 292 545 291 558 q 292 524 292 531 q 294 507 292 515 q 307 499 296 499 z "},"S":{"ha":711,"x_min":30,"x_max":681,"o":"m 305 14 q 204 26 252 14 q 118 63 155 37 q 58 131 80 89 q 35 232 35 172 q 40 272 35 252 q 54 309 44 292 q 80 336 64 326 q 119 347 96 347 q 173 339 147 347 q 225 322 199 332 q 277 306 251 313 q 332 298 304 298 q 347 300 339 298 q 360 304 354 301 q 370 314 366 308 q 374 328 374 319 q 359 362 374 349 q 320 386 345 376 q 266 404 296 395 q 202 423 235 412 q 139 450 170 434 q 84 489 108 465 q 45 547 60 513 q 30 630 30 581 q 45 714 30 675 q 87 786 60 753 q 149 846 114 819 q 224 890 184 872 q 307 918 264 908 q 389 928 349 928 q 433 924 407 928 q 489 913 460 920 q 548 894 518 905 q 601 868 577 883 q 638 833 624 852 q 653 791 653 814 q 641 743 653 768 q 610 697 629 718 q 567 662 591 675 q 520 648 544 648 q 494 651 507 648 q 469 659 481 654 q 445 666 457 663 q 418 669 432 669 q 390 666 408 669 q 356 655 372 663 q 328 638 340 648 q 316 613 316 627 q 323 597 316 604 q 339 585 330 590 q 360 577 349 581 q 377 573 370 574 q 489 544 435 560 q 587 499 544 528 q 655 424 629 470 q 681 307 681 378 q 665 217 681 258 q 622 144 649 176 q 557 87 594 111 q 479 46 521 62 q 393 22 437 31 q 305 14 348 14 z "},"T":{"ha":696,"x_min":-11,"x_max":706,"o":"m 376 15 q 344 17 361 15 q 312 24 327 18 q 285 40 297 30 q 268 68 273 51 q 255 136 260 94 q 248 224 250 178 q 244 314 245 271 q 243 386 243 357 q 246 483 243 435 q 250 581 250 532 q 244 620 250 605 q 228 643 238 635 q 204 654 218 652 q 174 657 190 657 q 137 655 156 657 q 99 654 119 654 q 54 668 74 654 q 19 703 33 682 q -3 748 5 724 q -11 795 -11 773 q 11 862 -11 836 q 73 892 33 887 q 247 906 159 905 q 421 907 334 907 q 523 908 472 907 q 625 904 574 908 q 662 891 646 902 q 687 865 677 881 q 701 830 696 849 q 706 791 706 810 q 703 763 706 777 q 695 735 701 749 q 670 696 685 709 q 637 679 655 684 q 601 673 620 673 q 565 672 583 673 q 531 668 547 671 q 503 652 515 664 q 483 617 490 640 q 476 555 476 595 q 483 366 476 460 q 490 176 490 271 q 489 111 490 140 q 476 60 487 81 q 443 27 466 39 q 376 15 420 15 z "},"U":{"ha":706,"x_min":33,"x_max":651,"o":"m 337 23 q 227 49 274 23 q 146 118 180 75 q 90 217 112 161 q 55 332 68 273 q 38 449 43 391 q 33 555 33 507 q 34 604 33 574 q 39 670 35 634 q 48 743 42 705 q 62 814 54 781 q 83 872 71 847 q 112 908 96 897 q 155 921 132 921 q 199 918 175 921 q 242 905 222 914 q 275 879 262 896 q 288 837 288 863 q 288 822 288 829 q 286 807 287 814 q 280 693 282 749 q 277 578 277 636 q 277 544 277 569 q 279 488 277 519 q 284 423 281 457 q 296 361 288 389 q 315 315 303 334 q 343 297 326 297 q 372 313 360 297 q 392 352 384 328 q 404 406 399 376 q 410 464 408 436 q 413 516 412 492 q 413 551 413 539 q 412 633 413 592 q 408 715 410 674 q 399 787 405 751 q 394 859 394 824 q 402 888 394 877 q 424 907 411 900 q 452 917 437 914 q 483 920 468 920 q 515 917 498 920 q 550 907 533 913 q 580 890 566 901 q 600 864 593 880 q 624 784 614 829 q 640 690 633 739 q 648 594 646 642 q 651 510 651 547 q 646 402 651 458 q 628 292 641 347 q 592 189 614 238 q 534 103 569 140 q 451 45 499 66 q 337 23 402 23 z "},"V":{"ha":721,"x_min":3,"x_max":722,"o":"m 335 -1 q 301 8 315 -1 q 275 33 286 18 q 232 102 253 63 q 192 186 211 142 q 155 277 173 230 q 122 371 138 325 q 94 460 106 417 q 71 538 81 503 q 62 570 68 549 q 48 617 56 591 q 32 673 40 644 q 18 728 24 702 q 7 775 11 755 q 3 805 3 795 q 15 852 3 831 q 46 890 26 874 q 89 915 65 905 q 137 924 113 924 q 219 878 191 924 q 241 833 231 858 q 258 781 250 808 q 273 728 267 754 q 285 679 279 701 q 290 659 286 674 q 299 623 294 643 q 311 580 304 602 q 325 539 318 558 q 339 509 332 521 q 353 496 347 496 q 364 506 359 496 q 373 527 369 515 q 381 550 378 538 q 385 566 384 561 q 427 709 404 637 q 481 849 450 781 q 515 896 494 876 q 568 916 536 916 q 617 907 591 916 q 668 883 644 899 q 707 847 691 868 q 722 800 722 825 q 711 749 722 787 q 681 658 700 711 q 638 541 663 605 q 587 410 613 476 q 533 281 560 345 q 482 166 506 218 q 440 80 458 115 q 412 35 421 45 q 377 9 396 20 q 335 -1 357 -1 z "},"W":{"ha":1002,"x_min":43,"x_max":942,"o":"m 732 17 q 657 35 689 17 q 603 81 626 54 q 563 140 580 108 q 534 199 547 172 q 513 246 522 227 q 494 266 504 265 q 476 243 486 262 q 453 196 467 223 q 422 137 440 168 q 381 79 405 105 q 325 35 357 52 q 253 17 294 17 q 165 49 201 17 q 106 132 130 81 q 70 247 83 183 q 52 373 58 310 q 45 492 46 436 q 44 583 44 547 q 44 645 44 613 q 45 710 43 677 q 50 774 46 742 q 61 835 53 806 q 105 900 73 877 q 181 924 138 924 q 280 892 245 924 q 314 795 314 861 q 309 747 314 772 q 300 700 304 723 q 283 595 291 648 q 275 489 275 542 q 276 470 275 482 q 280 446 277 458 q 289 426 283 435 q 306 417 295 417 q 320 426 315 417 q 327 442 326 435 q 337 496 332 464 q 351 565 342 528 q 370 637 359 601 q 398 702 381 673 q 438 749 415 731 q 492 768 461 768 q 555 748 532 768 q 591 696 578 728 q 612 625 605 665 q 626 547 618 586 q 643 475 633 509 q 672 421 653 441 q 681 413 675 417 q 692 409 686 409 q 705 415 701 409 q 712 430 710 421 q 715 447 715 438 q 716 462 716 456 q 709 547 716 505 q 694 632 702 589 q 679 716 686 674 q 671 802 671 759 q 708 894 671 864 q 804 924 744 924 q 845 918 825 924 q 880 900 864 911 q 907 872 896 889 q 924 835 919 856 q 936 774 932 806 q 941 711 939 743 q 942 647 942 679 q 941 585 941 615 q 940 504 941 553 q 934 399 939 455 q 920 284 929 342 q 895 175 911 226 q 856 86 880 125 q 800 32 833 48 q 767 21 784 24 q 732 17 749 17 z "},"X":{"ha":759,"x_min":21,"x_max":763,"o":"m 610 5 q 560 26 586 5 q 508 79 534 47 q 459 148 483 111 q 417 216 436 184 q 383 269 397 248 q 361 290 368 290 q 344 266 354 287 q 321 214 334 244 q 292 149 309 184 q 256 85 276 115 q 213 37 237 56 q 161 18 189 18 q 119 26 143 18 q 73 50 94 35 q 36 84 51 65 q 21 125 21 104 q 32 163 21 138 q 60 217 43 187 q 97 280 77 247 q 138 342 118 313 q 175 396 158 372 q 201 433 192 420 q 212 452 207 442 q 216 473 216 462 q 202 505 216 484 q 167 555 189 527 q 121 616 146 584 q 76 679 97 648 q 40 738 54 710 q 26 784 26 765 q 40 831 26 808 q 75 870 54 853 q 121 898 96 888 q 169 909 146 909 q 229 879 207 909 q 246 853 234 871 q 273 812 258 836 q 304 765 288 789 q 335 720 321 741 q 360 686 349 699 q 373 673 370 673 q 392 696 380 676 q 421 743 404 715 q 457 803 437 771 q 499 861 477 834 q 545 905 521 888 q 592 923 568 923 q 632 913 610 923 q 673 888 654 903 q 705 853 692 873 q 718 814 718 834 q 703 756 718 788 q 666 692 688 724 q 618 627 644 659 q 570 568 592 595 q 533 518 548 540 q 518 486 518 497 q 536 449 518 475 q 582 389 554 423 q 641 316 609 355 q 700 239 672 277 q 745 170 727 202 q 763 116 763 137 q 746 75 763 95 q 705 40 729 55 q 655 15 681 24 q 610 5 629 5 z "},"Y":{"ha":693,"x_min":-18,"x_max":715,"o":"m 376 16 q 324 18 345 16 q 291 28 304 20 q 269 56 277 37 q 255 106 261 74 q 229 381 229 242 q 225 421 229 401 q 213 459 222 441 q 181 509 202 481 q 134 568 159 537 q 81 631 109 599 q 32 695 54 664 q -4 755 10 726 q -18 806 -18 783 q -1 843 -18 823 q 37 881 15 863 q 83 911 60 899 q 123 924 107 924 q 168 904 144 924 q 213 855 191 884 q 257 791 236 826 q 297 728 279 757 q 331 679 316 699 q 355 659 346 659 q 377 679 363 659 q 408 729 391 699 q 444 794 425 759 q 485 859 464 829 q 529 908 507 888 q 574 928 551 928 q 620 916 595 928 q 666 883 645 903 q 701 839 687 863 q 715 793 715 815 q 699 752 715 777 q 657 697 682 727 q 603 636 632 668 q 548 573 573 604 q 506 516 523 543 q 490 469 490 489 q 492 368 490 418 q 494 267 494 318 q 493 237 494 256 q 492 195 493 218 q 490 147 492 172 q 486 101 489 123 q 479 62 484 79 q 470 37 475 45 q 452 22 463 27 q 427 16 440 18 q 401 15 414 14 q 376 16 388 16 z "},"Z":{"ha":656,"x_min":18,"x_max":633,"o":"m 186 25 q 59 66 101 25 q 18 195 18 108 q 31 271 18 235 q 65 339 44 307 q 112 401 85 372 q 164 459 138 431 q 244 552 207 504 q 320 649 282 601 q 329 662 323 653 q 334 676 334 671 q 331 682 334 680 q 324 683 328 683 q 280 679 302 683 q 235 671 258 675 q 191 662 213 666 q 146 659 168 659 q 120 668 132 659 q 99 693 109 678 q 83 728 90 709 q 72 766 77 747 q 65 801 68 785 q 63 829 63 818 q 66 856 63 840 q 78 880 68 871 q 110 896 87 889 q 160 906 132 902 q 222 913 189 911 q 286 917 254 916 q 343 919 317 918 q 387 919 370 919 q 425 919 405 919 q 464 917 444 918 q 501 914 483 916 q 532 907 519 911 q 568 881 553 901 q 592 834 583 861 q 605 782 601 808 q 610 736 610 755 q 606 700 610 718 q 592 665 602 681 q 556 617 579 646 q 505 555 532 589 q 448 486 477 522 q 395 415 418 450 q 356 352 371 381 q 341 301 341 322 q 348 284 341 290 q 366 279 355 279 q 408 281 387 279 q 451 287 429 284 q 493 293 472 290 q 536 295 515 295 q 585 290 568 295 q 610 272 602 284 q 621 241 618 260 q 627 195 624 222 q 631 166 629 180 q 633 138 633 153 q 628 107 633 121 q 605 85 623 93 q 548 67 581 75 q 477 52 515 59 q 399 40 439 45 q 320 32 359 35 q 247 27 281 28 q 186 25 212 25 z "},"[":{"ha":445,"x_min":34,"x_max":411,"o":"m 337 -142 l 145 -142 q 80 -126 102 -142 q 48 -84 58 -110 q 37 -26 38 -58 q 35 39 35 7 q 35 256 35 149 q 34 472 34 363 q 35 688 34 581 q 35 904 35 795 q 37 969 35 937 q 48 1027 38 1002 q 80 1069 58 1053 q 145 1085 102 1085 l 337 1085 q 372 1070 358 1085 q 395 1035 387 1056 q 407 992 404 1015 q 411 954 411 970 q 408 920 411 938 q 397 886 405 901 q 377 860 390 870 q 345 849 364 849 q 316 850 330 849 q 288 850 302 850 q 246 839 257 850 q 235 796 235 827 l 235 147 q 239 119 235 130 q 251 102 243 108 q 269 94 258 96 q 290 92 279 92 q 317 93 303 92 q 345 94 331 94 q 377 84 364 94 q 397 58 390 73 q 408 24 405 42 q 411 -10 411 5 q 407 -49 411 -26 q 395 -92 404 -71 q 372 -127 387 -113 q 337 -142 358 -142 z "},"\\":{"ha":435,"x_min":34,"x_max":401,"o":"m 310 16 q 281 19 296 16 q 260 36 267 22 q 248 70 256 43 q 228 137 239 96 q 201 230 216 178 q 170 340 186 282 q 138 458 155 398 q 107 576 122 519 q 78 686 92 634 q 55 778 65 738 q 40 845 45 819 q 34 877 34 871 q 42 902 34 892 q 62 919 50 913 q 89 929 75 926 q 115 932 102 932 q 137 929 126 932 q 155 916 149 926 q 177 864 163 904 q 211 767 192 825 q 251 639 229 709 q 293 495 272 568 q 334 352 315 422 q 369 224 353 281 q 393 126 384 166 q 401 75 401 86 q 392 47 401 58 q 369 29 382 36 q 339 19 355 22 q 310 16 323 16 z "},"]":{"ha":445,"x_min":34,"x_max":411,"o":"m 300 -142 l 108 -142 q 73 -127 87 -142 q 50 -92 59 -113 q 38 -49 41 -71 q 34 -10 34 -26 q 37 24 34 5 q 47 58 40 42 q 68 84 55 73 q 100 94 81 94 q 129 94 115 94 q 157 93 142 93 q 199 104 188 93 q 210 147 210 116 l 210 796 q 206 825 210 814 q 194 842 201 836 q 176 850 186 848 q 155 852 166 852 q 128 850 142 852 q 100 849 114 849 q 68 860 81 849 q 47 886 55 870 q 37 920 40 901 q 34 954 34 938 q 38 992 34 970 q 50 1035 41 1015 q 73 1070 59 1056 q 108 1085 87 1085 l 300 1085 q 365 1069 342 1085 q 397 1027 387 1053 q 409 969 408 1002 q 410 904 410 937 q 410 688 410 795 q 411 472 411 581 q 410 256 411 363 q 410 39 410 149 q 408 -26 410 6 q 397 -84 407 -58 q 365 -126 387 -110 q 300 -142 342 -142 z "},"^":{"ha":469,"x_min":34,"x_max":435,"o":"m 338 559 q 319 561 330 559 q 303 570 309 563 q 288 598 297 578 q 270 641 279 619 q 251 680 260 663 q 235 696 241 696 q 221 681 229 696 q 204 647 212 666 q 188 609 195 627 q 176 584 180 590 q 151 566 169 571 q 119 562 134 562 q 91 565 106 562 q 63 575 76 568 q 42 593 51 582 q 34 621 34 604 q 41 662 34 637 q 59 715 47 687 q 84 773 70 743 q 114 829 99 802 q 145 877 130 855 q 172 909 160 898 q 185 917 177 913 q 204 921 194 920 q 223 923 214 922 q 238 924 232 924 q 269 921 252 924 q 296 908 286 919 q 320 877 306 898 q 350 829 334 856 q 381 773 366 802 q 408 716 396 743 q 428 665 420 688 q 435 627 435 642 q 426 597 435 610 q 402 575 416 584 q 370 563 387 567 q 338 559 353 559 z "},"_":{"ha":564,"x_min":34,"x_max":530,"o":"m 171 -92 q 140 -93 160 -92 q 100 -93 120 -94 q 62 -87 79 -92 q 41 -71 45 -82 q 35 -44 37 -58 q 34 -17 34 -31 q 41 19 34 1 q 67 42 47 37 q 104 48 81 46 q 155 52 127 51 q 213 54 182 54 q 271 55 243 55 q 323 56 299 56 q 362 56 347 56 q 384 56 370 56 q 413 57 397 56 q 446 56 429 57 q 478 53 463 56 q 504 47 493 51 q 519 35 515 43 q 527 15 525 26 q 530 -7 530 4 q 526 -52 530 -35 q 514 -78 522 -68 q 494 -90 507 -87 q 466 -93 482 -93 q 432 -92 450 -93 q 390 -91 413 -91 q 280 -91 335 -91 q 171 -92 226 -92 z "},"`":{"ha":330,"x_min":34,"x_max":296,"o":"m 229 868 q 210 877 224 868 q 177 898 195 885 q 137 927 158 911 q 97 958 116 943 q 64 985 78 973 q 45 1002 50 998 q 34 1028 34 1013 q 41 1058 34 1042 q 61 1087 49 1074 q 87 1109 73 1101 q 117 1118 102 1118 q 140 1107 125 1118 q 172 1080 155 1097 q 208 1043 189 1063 q 242 1005 227 1023 q 271 972 258 987 q 288 953 283 958 q 296 931 296 943 q 290 909 296 920 q 273 888 283 897 q 251 874 263 880 q 229 868 239 868 z "},"a":{"ha":669,"x_min":32,"x_max":621,"o":"m 495 33 q 457 38 471 33 q 437 50 444 43 q 428 67 431 58 q 422 83 425 76 q 415 96 420 91 q 397 101 410 101 q 367 93 385 101 q 327 75 349 85 q 278 56 304 64 q 223 48 252 48 q 140 70 176 48 q 80 125 104 91 q 44 201 56 159 q 32 286 32 243 q 45 374 32 333 q 84 446 58 415 q 148 494 110 476 q 235 512 186 512 q 290 508 263 512 q 344 503 316 503 q 387 516 372 503 q 401 558 401 530 q 387 583 401 577 q 358 589 374 589 q 300 581 332 589 q 240 561 269 572 q 186 541 210 550 q 149 532 162 532 q 111 546 127 532 q 81 581 94 560 q 63 624 69 601 q 56 664 56 646 q 106 745 56 721 q 226 789 162 771 q 352 807 290 807 q 448 791 407 807 q 519 748 490 776 q 569 684 549 721 q 600 605 588 648 q 616 517 611 563 q 621 426 621 471 q 620 375 621 404 q 617 312 619 345 q 613 245 616 279 q 605 178 610 210 q 595 118 601 146 q 581 71 589 90 q 566 52 576 60 q 544 40 556 45 q 518 34 532 36 q 495 33 505 33 m 300 263 q 336 268 317 263 q 371 279 355 273 q 391 293 385 285 q 399 310 397 300 q 400 332 401 320 q 400 356 400 344 q 395 381 400 372 q 372 390 389 390 q 333 384 354 390 q 293 367 311 378 q 262 339 275 356 q 250 302 250 323 q 266 272 250 280 q 300 263 281 263 z "},"b":{"ha":665,"x_min":47,"x_max":640,"o":"m 322 16 q 256 18 289 16 q 191 30 223 21 q 143 56 162 37 q 112 100 123 74 q 90 165 100 129 q 74 243 81 202 q 61 329 66 285 q 53 414 56 372 q 49 495 50 456 q 47 565 47 534 q 48 611 47 581 q 51 675 49 640 q 58 748 53 711 q 70 818 62 785 q 90 873 78 850 q 120 904 102 897 q 150 912 134 910 q 181 915 165 915 q 228 912 208 915 q 263 900 249 909 q 286 873 278 890 q 294 825 294 855 q 291 788 294 806 q 284 751 288 770 q 277 715 280 733 q 274 679 274 696 q 283 654 274 661 q 309 648 293 648 q 340 650 325 648 q 371 652 355 652 q 491 624 440 652 q 574 550 541 596 q 624 446 608 505 q 640 325 640 387 q 617 194 640 252 q 552 97 594 137 q 452 37 511 58 q 322 16 394 16 m 342 227 q 373 240 359 227 q 395 271 386 253 q 408 310 404 290 q 412 344 412 330 q 409 375 412 358 q 398 405 406 391 q 379 428 391 419 q 350 437 368 437 q 324 427 328 437 q 319 397 319 416 q 322 327 319 362 q 327 257 326 292 q 327 248 327 253 q 329 238 328 243 q 333 231 330 234 q 342 227 336 227 z "},"c":{"ha":656,"x_min":32,"x_max":630,"o":"m 327 9 q 196 40 252 9 q 104 120 140 70 q 50 234 67 170 q 32 366 32 298 q 41 465 32 415 q 70 562 51 515 q 116 650 88 609 q 181 722 144 691 q 264 770 218 752 q 366 787 311 787 q 455 771 410 787 q 535 726 499 755 q 594 656 571 696 q 616 569 616 616 q 606 525 616 544 q 579 492 596 505 q 540 471 562 478 q 495 464 518 464 q 457 472 471 464 q 434 492 443 480 q 421 519 426 505 q 409 546 416 534 q 391 566 402 558 q 360 574 380 574 q 324 563 340 574 q 297 534 309 552 q 278 493 286 515 q 265 447 270 470 q 258 402 260 424 q 256 366 256 381 q 259 322 256 348 q 270 273 262 296 q 294 232 279 249 q 333 215 309 215 q 370 225 353 215 q 401 251 386 235 q 430 283 416 266 q 458 316 444 301 q 490 342 473 332 q 528 352 507 352 q 569 339 550 352 q 601 306 587 326 q 622 264 614 287 q 630 222 630 241 q 615 167 630 194 q 575 117 600 140 q 518 73 550 93 q 452 39 486 54 q 386 17 418 25 q 327 9 353 9 z "},"d":{"ha":702,"x_min":31,"x_max":638,"o":"m 511 17 q 479 19 495 17 q 448 28 463 22 q 425 45 431 36 q 417 63 418 55 q 415 77 416 71 q 406 83 414 83 q 386 74 399 83 q 353 54 373 64 q 308 34 334 43 q 249 25 281 25 q 177 39 209 25 q 121 78 145 54 q 80 133 97 102 q 52 200 62 165 q 36 271 41 235 q 31 340 31 307 q 37 417 31 378 q 56 493 43 456 q 89 562 68 530 q 136 617 109 593 q 200 655 164 641 q 279 669 235 669 q 323 664 302 669 q 366 659 345 659 q 395 671 388 659 q 401 704 401 684 q 396 763 401 734 q 391 823 391 792 q 418 899 391 873 q 494 924 446 924 q 531 920 510 924 q 572 907 553 916 q 607 886 592 899 q 625 854 623 873 q 634 786 631 821 q 637 714 636 750 q 638 642 638 678 q 637 572 637 606 q 634 342 637 456 q 631 111 631 227 q 621 68 631 86 q 594 39 610 50 q 555 22 577 27 q 511 17 534 17 m 358 271 q 370 272 363 271 q 382 276 376 273 q 391 283 387 278 q 395 294 395 288 q 394 315 395 300 q 393 352 394 331 q 392 395 393 372 q 389 439 391 418 q 384 474 387 459 q 376 494 380 489 q 349 505 366 505 q 310 493 326 505 q 282 463 293 481 q 266 422 271 444 q 260 381 260 401 q 267 338 260 358 q 285 303 273 318 q 315 280 297 288 q 358 271 334 271 z "},"e":{"ha":678,"x_min":31,"x_max":657,"o":"m 363 16 q 217 45 279 16 q 113 125 155 75 q 52 244 72 176 q 31 391 31 313 q 40 484 31 437 q 66 575 49 531 q 110 658 83 619 q 170 726 136 697 q 249 771 205 755 q 345 788 292 788 q 462 760 410 788 q 549 686 513 732 q 603 582 584 640 q 621 463 621 524 q 614 422 621 440 q 593 392 606 405 q 562 371 580 379 q 523 359 544 363 q 416 341 470 351 q 311 314 362 331 q 288 301 298 309 q 279 277 279 293 q 283 259 279 267 q 295 244 288 250 q 311 234 302 237 q 330 230 320 230 q 375 237 351 230 q 423 255 399 244 q 470 279 447 267 q 512 303 492 292 q 547 321 532 314 q 570 328 562 328 q 608 314 592 328 q 635 279 624 300 q 652 236 646 259 q 657 195 657 213 q 651 154 657 174 q 629 119 645 134 q 574 77 606 96 q 505 45 541 58 q 432 24 469 31 q 363 16 395 16 m 289 460 q 312 463 293 460 q 352 469 331 465 q 392 477 374 473 q 412 484 410 481 q 420 503 420 492 q 413 528 420 517 q 394 546 406 538 q 370 558 383 554 q 345 562 357 562 q 314 557 330 562 q 285 544 298 553 q 263 521 272 534 q 254 492 254 508 q 264 468 254 476 q 289 460 273 460 z "},"f":{"ha":615,"x_min":8,"x_max":623,"o":"m 277 -39 q 241 -36 259 -39 q 212 -16 224 -33 q 194 24 201 -2 q 183 83 187 51 q 176 150 178 115 q 174 219 174 186 q 174 280 174 252 q 174 325 174 308 q 174 338 174 332 q 171 349 174 345 q 164 357 169 354 q 151 359 159 359 q 120 356 135 359 q 90 353 105 353 q 50 367 66 353 q 25 401 34 381 q 12 445 16 422 q 8 487 8 468 q 16 534 8 517 q 35 559 23 551 q 61 569 46 567 q 91 571 76 571 q 112 571 102 571 q 131 572 122 571 q 145 578 139 574 q 155 591 152 583 q 162 629 163 609 q 161 669 161 650 q 178 773 161 726 q 228 854 195 821 q 306 907 260 888 q 410 926 352 926 q 483 918 445 926 q 551 892 520 910 q 603 845 583 874 q 623 775 623 817 q 617 731 623 756 q 600 685 612 707 q 571 647 588 663 q 530 632 553 632 q 506 636 518 632 q 480 647 493 641 q 454 657 468 652 q 425 661 440 661 q 370 606 370 661 q 371 594 370 600 q 377 584 372 587 q 399 579 383 580 q 435 578 415 579 q 477 574 455 578 q 517 559 498 570 q 547 527 535 548 q 558 470 558 506 q 536 392 558 419 q 460 364 513 364 q 427 367 444 364 q 393 369 410 369 q 371 363 378 369 q 365 341 365 357 q 375 269 365 309 q 396 186 385 228 q 417 106 408 144 q 427 41 427 68 q 411 -2 427 14 q 372 -26 395 -18 q 323 -37 349 -35 q 277 -39 298 -39 z "},"g":{"ha":703,"x_min":24,"x_max":654,"o":"m 364 -125 q 259 -110 313 -125 q 161 -71 205 -94 q 137 -50 146 -63 q 122 -20 127 -37 q 114 13 116 -4 q 111 44 111 30 q 115 81 111 60 q 126 119 118 102 q 149 149 135 137 q 184 161 163 161 q 226 154 205 161 q 268 136 247 146 q 310 119 288 127 q 355 111 332 111 q 396 122 380 111 q 423 150 413 133 q 438 189 433 168 q 442 231 442 210 q 442 247 442 238 q 440 266 441 256 q 435 282 438 275 q 427 295 432 290 q 404 276 416 291 q 375 244 393 261 q 332 215 358 228 q 264 202 305 202 q 161 228 206 202 q 86 295 117 254 q 40 388 56 336 q 24 492 24 439 q 42 597 24 544 q 94 692 60 650 q 174 762 127 735 q 278 789 221 789 q 334 780 309 789 q 381 750 359 772 q 389 743 385 747 q 397 738 393 740 q 407 749 405 740 q 411 764 409 758 q 424 782 415 774 q 443 793 432 789 q 466 799 454 798 q 488 801 477 801 q 523 797 506 801 q 556 784 541 792 q 582 762 571 775 q 600 730 593 749 q 625 634 614 684 q 642 533 635 584 q 651 431 648 482 q 654 331 654 380 q 649 230 654 283 q 633 127 645 178 q 601 31 621 76 q 548 -50 581 -15 q 471 -104 516 -84 q 364 -125 425 -125 m 268 437 q 295 440 280 437 q 323 450 310 444 q 345 467 336 457 q 354 492 354 477 q 353 518 354 505 q 348 540 352 530 q 335 556 344 550 q 310 562 326 562 q 276 557 294 562 q 244 545 258 553 q 220 522 229 536 q 211 488 211 508 q 228 450 211 463 q 268 437 245 437 z "},"h":{"ha":738,"x_min":50,"x_max":699,"o":"m 196 13 q 166 15 183 13 q 132 22 149 17 q 102 37 115 27 q 85 60 89 46 q 72 128 77 87 q 63 216 66 168 q 57 314 59 263 q 53 414 54 366 q 51 504 52 462 q 50 576 50 547 q 51 641 50 602 q 54 719 51 679 q 63 795 56 759 q 82 854 69 831 q 103 879 91 869 q 131 892 116 888 q 162 899 146 897 q 195 900 178 900 q 254 894 233 900 q 285 874 275 888 q 297 837 295 860 q 299 779 299 814 q 296 723 299 751 q 294 668 294 696 q 294 664 294 667 q 294 657 294 661 q 296 651 295 654 q 300 648 298 648 q 321 659 308 648 q 352 681 334 669 q 396 703 371 692 q 454 713 421 713 q 550 688 510 713 q 616 624 589 664 q 659 533 643 584 q 683 429 675 482 q 694 325 692 376 q 696 233 696 273 q 698 181 696 207 q 696 133 699 155 q 680 90 692 110 q 642 56 668 71 q 543 31 595 31 q 512 35 527 31 q 484 45 496 38 q 463 65 471 53 q 450 94 454 77 q 444 151 446 113 q 439 233 442 188 q 432 325 437 278 q 416 410 427 372 q 390 473 406 449 q 347 498 373 498 q 322 486 331 498 q 308 457 313 474 q 302 424 303 441 q 300 395 300 406 q 307 273 300 334 q 313 149 313 212 q 310 88 313 114 q 295 46 307 62 q 259 21 283 29 q 196 13 236 13 z "},"i":{"ha":354,"x_min":24,"x_max":336,"o":"m 189 691 q 137 698 165 691 q 83 719 108 705 q 41 753 58 732 q 24 804 24 774 q 39 851 24 831 q 76 884 54 871 q 125 904 98 897 q 174 910 151 910 q 225 903 197 910 q 278 883 254 897 q 320 849 303 869 q 336 800 336 828 q 322 752 336 772 q 287 718 309 731 q 239 697 265 704 q 189 691 214 691 m 188 16 q 163 16 176 16 q 139 20 151 17 q 117 31 127 24 q 101 50 107 37 q 85 91 92 66 q 73 143 79 115 q 64 202 68 172 q 59 261 61 233 q 55 316 56 290 q 54 361 54 342 q 55 397 54 375 q 56 445 55 419 q 58 499 56 471 q 63 553 60 528 q 70 598 66 578 q 81 628 75 618 q 96 645 87 638 q 116 655 105 651 q 138 660 126 659 q 161 661 150 661 q 215 651 189 661 q 261 622 241 642 q 275 594 271 611 q 279 557 279 576 q 278 519 279 538 q 277 486 277 500 q 281 334 277 410 q 292 183 286 259 q 297 134 294 159 q 299 85 299 109 q 288 50 299 64 q 261 29 277 37 q 225 18 244 21 q 188 16 205 16 z "},"j":{"ha":542,"x_min":9,"x_max":502,"o":"m 342 707 q 292 713 317 707 q 245 732 267 719 q 210 765 224 745 q 197 814 197 785 q 212 865 197 844 q 250 899 227 886 q 301 917 273 911 q 353 923 329 923 q 403 918 377 923 q 451 900 429 912 q 488 868 473 888 q 502 819 502 848 q 486 767 502 788 q 447 733 471 746 q 394 713 422 720 q 342 707 366 707 m 256 -75 q 164 -51 209 -75 q 85 12 120 -26 q 30 96 51 50 q 9 189 9 143 q 18 229 9 212 q 43 258 28 246 q 79 275 59 269 q 119 281 98 281 q 171 268 154 281 q 196 237 189 256 q 205 196 204 218 q 209 156 207 174 q 217 124 211 137 q 241 112 223 112 q 255 121 250 112 q 261 144 259 131 q 263 169 263 157 q 263 187 263 181 q 258 287 263 237 q 246 387 252 337 q 234 486 239 436 q 229 585 229 535 q 242 626 229 609 q 275 653 255 643 q 319 668 296 664 q 363 673 342 673 q 392 670 376 673 q 422 663 408 668 q 447 647 436 657 q 463 623 458 637 q 469 591 467 613 q 474 540 472 569 q 479 479 477 511 q 482 416 481 446 q 484 361 484 386 q 485 323 485 336 q 482 240 485 284 q 471 151 479 195 q 447 66 463 107 q 407 -6 432 25 q 344 -56 381 -37 q 256 -75 307 -75 z "},"k":{"ha":663,"x_min":50,"x_max":662,"o":"m 169 27 q 150 28 160 27 q 129 32 139 28 q 111 40 119 35 q 98 55 102 45 q 82 115 90 75 q 69 203 75 154 q 60 308 64 253 q 54 414 56 363 q 51 507 52 465 q 50 574 50 550 q 50 640 50 606 q 52 707 50 673 q 59 773 54 741 q 72 837 63 806 q 118 903 83 881 q 196 926 152 926 q 234 922 216 926 q 267 910 252 919 q 290 887 281 901 q 298 850 298 872 q 294 763 298 806 q 290 677 290 720 q 290 664 290 673 q 291 646 290 655 q 296 629 293 636 q 305 621 299 621 q 324 633 313 621 q 346 662 334 644 q 370 701 358 680 q 393 742 382 722 q 413 778 404 762 q 427 801 422 794 q 470 823 443 823 q 506 812 484 823 q 548 785 528 802 q 584 751 569 769 q 598 718 598 732 q 585 653 598 687 q 551 586 572 618 q 507 525 531 553 q 462 476 484 496 q 451 464 456 471 q 445 449 445 457 q 461 427 445 440 q 501 397 477 414 q 553 359 526 380 q 606 316 581 339 q 646 268 630 293 q 662 216 662 242 q 654 195 662 208 q 635 168 647 182 q 609 139 623 154 q 579 113 594 125 q 552 94 565 101 q 532 86 540 86 q 502 102 521 86 q 459 142 482 118 q 411 194 435 166 q 363 247 386 222 q 323 287 341 271 q 297 302 306 302 q 291 298 293 302 q 287 289 288 294 q 286 278 286 283 q 286 270 286 273 q 290 180 286 224 q 294 90 294 135 q 280 57 294 69 q 246 38 266 45 q 205 30 227 32 q 169 27 184 27 z "},"l":{"ha":500,"x_min":39,"x_max":509,"o":"m 313 26 q 273 30 293 26 q 234 40 252 33 q 163 94 193 56 q 111 183 133 132 q 76 293 90 234 q 53 411 62 353 q 42 522 45 469 q 39 610 39 574 q 39 649 39 625 q 42 702 40 673 q 48 761 45 731 q 58 818 52 791 q 73 865 64 845 q 94 895 82 886 q 106 900 99 898 q 122 904 114 903 q 137 905 130 905 q 151 905 145 905 q 201 903 175 905 q 250 892 228 901 q 288 866 273 884 q 302 819 302 849 q 299 783 302 801 q 294 747 296 765 q 286 649 288 698 q 284 551 284 600 q 283 507 284 536 q 284 445 283 479 q 289 377 286 412 q 302 313 293 342 q 326 267 311 285 q 363 249 340 249 q 381 253 373 249 q 397 262 389 257 q 412 271 404 267 q 429 275 420 275 q 463 259 448 275 q 488 221 477 243 q 503 176 498 199 q 509 136 509 152 q 496 85 509 109 q 464 58 488 69 q 413 40 441 47 q 358 30 385 33 q 313 26 330 26 z "},"m":{"ha":1040,"x_min":56,"x_max":996,"o":"m 863 16 q 819 20 838 16 q 786 35 799 24 q 766 63 772 45 q 759 109 759 81 q 762 168 759 138 q 770 227 766 197 q 778 285 774 256 q 781 345 781 315 q 780 371 781 354 q 777 409 779 389 q 769 450 774 429 q 758 488 765 471 q 740 515 750 505 q 715 526 729 526 q 684 514 696 526 q 665 481 672 501 q 654 437 657 461 q 650 389 651 412 q 650 345 650 365 q 650 314 650 325 q 649 233 650 273 q 643 152 648 192 q 629 127 641 137 q 600 111 616 117 q 566 103 584 105 q 536 100 549 100 q 500 104 519 100 q 465 116 481 108 q 438 139 448 125 q 427 174 427 153 q 432 283 427 229 q 436 391 436 336 q 435 426 436 404 q 430 471 435 449 q 413 509 425 493 q 382 526 402 526 q 351 510 364 526 q 330 467 338 494 q 315 405 321 439 q 307 332 310 370 q 304 256 304 294 q 303 185 303 218 q 304 127 303 153 q 305 90 305 102 q 291 61 306 73 q 255 43 276 50 q 213 33 235 36 q 179 31 192 31 q 146 33 165 31 q 110 42 127 35 q 81 59 93 48 q 66 89 68 71 q 58 248 59 168 q 56 408 56 328 q 58 558 56 481 q 71 707 60 634 q 83 740 73 727 q 109 762 94 753 q 141 773 123 770 q 176 777 159 777 q 204 775 186 777 q 238 768 222 773 q 267 754 255 764 q 279 730 279 745 q 279 721 279 728 q 280 706 279 713 q 281 694 280 699 q 286 688 283 688 q 301 696 289 688 q 331 713 313 704 q 371 730 349 722 q 416 737 393 737 q 458 729 439 737 q 493 710 477 722 q 522 686 509 699 q 544 661 534 672 q 561 642 554 650 q 573 634 568 634 q 587 644 579 634 q 606 670 595 654 q 631 703 616 685 q 664 735 646 720 q 707 761 683 751 q 762 771 732 771 q 852 746 814 771 q 915 680 889 721 q 957 587 941 639 q 982 482 973 535 q 993 379 990 429 q 996 292 996 329 q 994 197 996 245 q 983 102 991 149 q 940 37 974 58 q 863 16 907 16 z "},"n":{"ha":801,"x_min":53,"x_max":763,"o":"m 205 16 q 180 16 195 16 q 152 19 166 17 q 124 25 138 21 q 103 37 111 29 q 83 74 92 46 q 70 140 75 102 q 61 221 64 178 q 56 304 58 264 q 54 377 54 345 q 53 427 53 410 q 55 506 53 463 q 61 593 56 549 q 75 679 66 637 q 98 753 83 721 q 114 770 102 764 q 140 781 126 777 q 169 787 155 785 q 193 788 183 788 q 233 784 213 788 q 270 770 254 780 q 297 745 287 761 q 308 706 308 730 q 308 694 308 701 q 311 684 308 688 q 323 694 317 688 q 334 705 329 700 q 393 747 362 730 q 463 763 425 763 q 563 744 520 763 q 637 692 606 725 q 691 616 669 660 q 727 522 713 572 q 748 417 741 471 q 759 311 755 363 q 763 210 762 258 q 763 121 763 161 q 751 68 763 87 q 718 40 739 50 q 672 29 698 31 q 621 27 647 27 q 594 27 608 27 q 567 30 581 28 q 541 35 553 31 q 519 44 529 38 q 504 62 509 52 q 497 84 498 72 q 492 204 490 144 q 494 323 494 264 q 494 358 494 336 q 492 405 494 380 q 485 455 490 429 q 472 502 480 481 q 450 535 463 522 q 418 549 437 549 q 390 539 402 549 q 368 519 377 530 q 335 461 347 495 q 316 388 323 427 q 308 307 310 349 q 306 225 306 264 q 307 150 306 185 q 309 90 309 115 q 300 53 309 67 q 276 30 291 38 q 243 19 262 22 q 205 16 224 16 z "},"o":{"ha":713,"x_min":27,"x_max":678,"o":"m 355 30 q 256 45 301 30 q 174 89 210 61 q 110 154 138 116 q 64 235 83 191 q 36 327 45 279 q 27 423 27 374 q 47 560 27 495 q 106 674 67 625 q 204 752 145 723 q 340 781 262 781 q 484 749 421 781 q 590 664 547 718 q 656 542 633 611 q 678 397 678 472 q 657 257 678 323 q 595 140 636 191 q 494 60 554 90 q 355 30 433 30 m 354 260 q 390 275 376 260 q 411 311 404 290 q 422 354 419 332 q 425 393 425 376 q 424 422 425 404 q 419 459 422 439 q 409 498 415 479 q 394 534 403 518 q 372 559 385 549 q 342 569 359 569 q 306 554 320 569 q 282 519 291 540 q 269 476 273 498 q 265 436 265 453 q 267 406 265 424 q 273 368 269 388 q 284 329 277 349 q 301 295 291 310 q 324 270 311 279 q 354 260 337 260 z "},"p":{"ha":674,"x_min":50,"x_max":642,"o":"m 179 -112 q 150 -109 165 -112 q 122 -101 136 -106 q 92 -70 104 -94 q 72 -14 80 -46 q 60 56 64 18 q 53 129 55 94 q 50 194 51 164 q 50 240 50 224 q 51 310 50 271 q 55 391 52 349 q 63 476 58 433 q 76 560 68 519 q 92 637 83 601 q 114 703 102 674 q 146 749 125 730 q 196 774 166 767 q 265 785 231 783 q 334 787 300 787 q 459 765 403 787 q 556 702 516 743 q 619 605 597 662 q 642 480 642 549 q 626 359 642 418 q 576 254 610 300 q 492 179 543 208 q 372 151 441 151 q 342 153 357 151 q 311 155 327 155 q 285 149 294 155 q 276 124 276 142 q 279 88 276 106 q 286 52 282 70 q 292 16 289 34 q 295 -22 295 -3 q 287 -70 295 -52 q 263 -97 279 -87 q 227 -109 248 -106 q 179 -112 205 -112 m 351 366 q 381 375 369 366 q 400 398 393 384 q 410 428 407 412 q 413 459 413 444 q 409 493 413 473 q 396 532 405 513 q 374 563 387 550 q 342 576 361 576 q 336 572 338 576 q 331 565 333 569 q 329 555 330 560 q 328 547 328 551 q 323 477 326 513 q 321 406 321 441 q 326 377 321 389 q 351 366 331 366 z "},"q":{"ha":696,"x_min":27,"x_max":633,"o":"m 490 -119 q 414 -94 441 -119 q 387 -18 387 -68 q 392 42 387 13 q 397 101 397 71 q 390 134 397 121 q 361 146 382 146 q 317 141 339 146 q 272 136 295 136 q 193 149 228 136 q 130 186 157 163 q 83 241 102 210 q 51 309 64 273 q 33 384 39 345 q 27 460 27 422 q 32 531 27 494 q 47 604 37 568 q 75 671 58 640 q 116 728 92 703 q 173 766 140 752 q 246 781 205 781 q 303 771 277 781 q 348 751 328 762 q 381 731 368 741 q 401 722 395 722 q 410 728 410 722 q 413 742 411 734 q 420 760 414 750 q 444 777 426 769 q 474 785 458 783 q 506 787 490 787 q 551 782 529 787 q 589 766 572 777 q 616 737 606 755 q 626 694 626 720 q 629 463 626 578 q 633 233 633 349 q 632 91 633 164 q 621 -50 632 18 q 603 -81 618 -68 q 568 -103 587 -94 q 527 -115 548 -111 q 490 -119 505 -119 m 354 351 q 370 357 363 351 q 380 370 376 362 q 386 386 384 377 q 387 402 387 395 l 390 581 q 386 593 390 589 q 376 600 382 597 q 363 603 370 602 q 351 604 357 604 q 309 594 326 604 q 279 569 291 585 q 262 532 268 553 q 257 489 257 511 q 263 443 257 467 q 280 399 269 419 q 310 365 292 378 q 354 351 329 351 z "},"r":{"ha":743,"x_min":54,"x_max":734,"o":"m 205 16 q 180 16 195 16 q 152 19 166 17 q 124 25 138 21 q 103 37 111 29 q 83 76 92 47 q 70 143 75 104 q 61 227 64 182 q 56 313 58 272 q 54 388 54 355 q 54 439 54 422 q 55 519 54 473 q 62 611 57 564 q 75 703 66 659 q 98 779 84 747 q 115 795 103 789 q 140 806 126 802 q 169 812 155 810 q 193 813 183 813 q 233 809 213 813 q 270 796 254 805 q 297 771 287 787 q 308 732 308 755 q 308 720 308 726 q 311 709 309 714 q 324 718 318 712 q 335 729 330 724 q 394 771 363 755 q 463 787 425 787 q 568 765 522 787 q 648 706 614 743 q 703 621 682 669 q 734 518 724 572 l 734 513 q 726 492 734 501 q 704 477 718 484 q 673 467 690 471 q 640 460 656 463 q 609 457 623 458 q 587 456 595 456 q 525 464 547 456 q 491 485 503 472 q 474 511 479 497 q 465 538 470 526 q 452 559 460 551 q 424 567 444 567 q 394 556 407 567 q 371 534 380 546 q 337 473 350 508 q 318 398 325 437 q 308 315 311 358 q 306 232 306 273 q 308 154 307 191 q 309 90 309 117 q 300 53 309 67 q 276 30 291 38 q 243 19 262 22 q 205 16 224 16 z "},"s":{"ha":714,"x_min":28,"x_max":688,"o":"m 333 7 q 280 10 310 7 q 218 18 250 12 q 155 34 186 24 q 99 60 123 44 q 60 99 75 76 q 45 152 45 121 q 54 197 45 174 q 78 239 62 220 q 114 271 93 258 q 157 283 134 283 q 193 278 172 283 q 239 265 214 272 q 291 252 264 258 q 343 246 318 246 q 362 247 349 246 q 388 251 375 248 q 410 259 400 254 q 420 273 420 264 q 407 289 420 283 q 377 299 394 295 q 345 305 361 303 q 323 307 329 307 q 218 328 271 313 q 123 372 165 343 q 54 445 81 401 q 28 550 28 488 q 45 630 28 595 q 91 692 62 665 q 158 736 120 718 q 237 766 196 755 q 319 782 278 777 q 397 787 361 787 q 446 785 418 787 q 503 778 474 783 q 560 763 532 772 q 610 739 588 754 q 645 702 631 724 q 658 652 658 681 q 649 605 658 627 q 624 566 640 583 q 586 539 608 549 q 540 530 564 530 q 484 538 511 530 q 430 556 457 547 q 374 575 402 566 q 317 583 346 583 q 303 583 312 583 q 286 579 294 582 q 271 573 277 577 q 265 561 265 568 q 270 550 265 555 q 278 543 274 546 q 304 530 286 536 q 342 518 321 524 q 381 510 362 513 q 411 505 401 507 q 519 479 469 494 q 607 437 570 465 q 666 366 644 410 q 688 254 688 323 q 672 169 688 206 q 631 104 657 132 q 569 59 604 77 q 495 28 534 40 q 414 12 456 17 q 333 7 372 7 z "},"t":{"ha":595,"x_min":3,"x_max":577,"o":"m 394 16 q 287 35 329 16 q 219 86 244 54 q 183 161 194 118 q 168 252 172 204 q 166 350 165 300 q 168 446 168 399 q 164 472 168 462 q 155 487 161 481 q 140 494 149 492 q 121 496 132 496 q 99 495 111 496 q 74 494 87 494 q 41 502 55 494 q 19 524 28 511 q 7 554 11 537 q 3 587 3 571 q 8 629 3 610 q 26 664 14 649 q 56 687 38 678 q 98 695 73 695 q 127 693 113 695 q 157 692 142 692 q 169 694 163 692 q 178 703 175 696 q 181 732 181 711 q 182 779 182 753 q 181 827 182 804 q 182 865 181 851 q 195 893 184 882 q 221 910 206 904 q 254 919 237 916 q 286 921 271 921 q 319 919 298 921 q 360 910 340 916 q 396 892 381 903 q 411 865 411 882 q 409 801 411 833 q 406 737 406 770 q 407 720 406 730 q 412 703 408 709 q 431 693 417 694 q 463 691 445 691 q 502 688 481 690 q 539 677 522 686 q 566 650 555 669 q 577 600 577 632 q 571 562 577 580 q 553 528 565 544 q 512 499 536 505 q 465 494 488 494 q 436 494 450 494 q 413 491 423 494 q 398 481 404 488 q 392 458 392 473 q 395 375 392 418 q 406 292 397 332 q 417 277 409 281 q 436 273 425 273 q 458 275 448 273 q 479 277 469 277 q 512 263 498 277 q 535 230 526 249 q 548 189 544 210 q 553 153 553 168 q 540 91 553 117 q 506 48 528 65 q 456 23 485 31 q 394 16 427 16 z "},"u":{"ha":715,"x_min":39,"x_max":661,"o":"m 490 16 q 454 23 465 16 q 436 39 442 31 q 428 56 431 48 q 416 63 425 63 q 399 57 411 63 q 370 43 387 50 q 331 29 353 35 q 283 22 309 22 q 194 42 232 22 q 130 95 157 62 q 85 170 102 127 q 58 258 68 212 q 43 350 47 304 q 39 434 39 395 q 42 510 39 470 q 51 591 45 551 q 69 671 58 632 q 96 742 80 709 q 134 778 109 766 q 186 789 160 789 q 229 783 209 789 q 263 763 248 776 q 286 731 277 750 q 294 689 294 713 q 290 604 294 646 q 286 518 286 561 q 286 485 286 506 q 287 438 286 463 q 293 388 289 414 q 305 342 297 363 q 325 308 313 321 q 357 295 338 295 q 390 311 377 295 q 409 350 402 328 q 417 396 415 372 q 419 433 419 419 q 415 546 419 490 q 411 659 411 602 q 416 710 411 687 q 432 748 420 732 q 465 773 444 764 q 517 781 486 781 q 559 775 538 781 q 595 755 580 768 q 622 715 611 741 q 640 657 633 690 q 651 589 647 625 q 658 518 656 553 q 661 453 660 484 q 661 404 661 423 q 661 353 661 382 q 660 290 661 323 q 656 222 659 257 q 647 157 653 188 q 632 99 642 125 q 610 58 623 73 q 585 37 599 45 q 555 24 571 28 q 523 17 539 19 q 490 16 507 16 z "},"v":{"ha":676,"x_min":12,"x_max":662,"o":"m 316 16 q 259 28 283 16 q 216 67 235 41 q 171 144 195 96 q 125 251 148 193 q 82 374 102 310 q 46 499 62 438 q 21 613 30 560 q 12 701 12 666 q 27 735 12 721 q 63 759 42 750 q 107 773 84 768 q 145 777 130 777 q 162 777 153 777 q 180 773 172 776 q 197 766 189 770 q 209 753 205 761 q 224 707 216 741 q 243 629 233 673 q 265 537 254 585 q 288 449 276 489 q 311 383 299 409 q 334 357 323 357 q 342 363 339 357 q 347 373 346 370 q 369 438 361 403 q 385 504 377 473 q 413 616 398 560 q 454 726 429 673 q 484 763 465 750 q 530 777 502 777 q 573 770 549 777 q 616 752 596 764 q 649 722 635 740 q 662 682 662 705 q 655 642 662 669 q 640 583 649 614 q 623 524 631 552 q 610 482 614 496 q 591 422 602 456 q 567 350 581 388 q 538 274 553 313 q 508 199 524 235 q 476 132 492 163 q 444 81 460 102 q 389 32 420 49 q 316 16 357 16 z "},"w":{"ha":995,"x_min":44,"x_max":941,"o":"m 732 17 q 657 33 689 17 q 603 72 626 48 q 563 123 579 96 q 534 174 546 150 q 512 213 522 197 q 494 229 503 229 q 490 226 492 229 q 486 222 487 224 q 480 214 482 218 q 475 204 477 209 q 454 168 466 188 q 429 128 442 148 q 401 91 415 109 q 372 60 387 73 q 317 28 348 39 q 254 17 286 17 q 167 43 203 17 q 108 111 132 68 q 72 205 85 153 q 53 311 59 258 q 45 414 47 365 q 44 498 44 463 q 44 548 44 519 q 46 607 45 576 q 52 665 48 637 q 61 713 55 694 q 79 746 67 732 q 108 769 92 760 q 143 783 124 779 q 181 787 162 787 q 233 782 209 787 q 275 764 257 777 q 303 730 293 751 q 314 679 314 709 q 308 616 314 650 q 295 545 302 581 q 282 471 288 508 q 276 399 276 433 q 277 385 276 393 q 280 369 278 377 q 288 356 283 361 q 300 351 292 351 q 317 360 311 351 q 327 378 324 370 q 342 439 336 408 q 355 501 349 470 q 369 563 361 532 q 389 623 376 593 q 408 649 396 637 q 434 667 420 660 q 465 679 449 675 q 497 682 481 682 q 556 667 534 682 q 592 627 578 652 q 611 571 605 603 q 623 508 618 540 q 634 445 628 475 q 651 391 640 414 q 658 378 654 386 q 667 365 662 371 q 679 353 673 358 q 692 349 686 349 q 705 355 701 349 q 712 370 709 361 q 715 388 715 378 q 716 402 716 397 q 709 473 716 438 q 694 543 702 508 q 679 613 686 578 q 671 684 671 648 q 683 733 671 713 q 712 765 694 753 q 754 782 730 777 q 804 787 778 787 q 842 783 823 787 q 877 769 861 779 q 906 746 893 760 q 924 713 918 732 q 934 666 930 694 q 939 608 937 637 q 941 549 941 578 q 941 500 941 521 q 940 415 941 465 q 932 311 939 365 q 912 205 926 258 q 876 110 899 152 q 818 43 853 68 q 732 17 783 17 z "},"x":{"ha":765,"x_min":13,"x_max":767,"o":"m 170 20 q 123 28 151 20 q 72 52 96 37 q 30 87 47 67 q 13 130 13 107 q 30 169 13 144 q 72 221 47 193 q 126 280 97 250 q 181 337 156 310 q 223 384 206 363 q 240 412 240 404 q 224 437 240 420 q 183 477 208 454 q 130 526 158 500 q 76 577 101 552 q 35 624 52 602 q 19 661 19 646 q 36 708 19 685 q 77 748 52 730 q 129 775 101 765 q 178 786 157 786 q 221 772 199 786 q 266 736 244 758 q 309 691 288 715 q 348 645 330 666 q 378 610 365 624 q 396 595 391 595 q 407 607 398 595 q 430 635 416 618 q 458 673 443 652 q 489 713 474 694 q 514 747 503 732 q 531 766 526 762 q 557 782 543 777 q 587 787 571 787 q 631 779 608 787 q 674 757 654 771 q 706 723 693 743 q 718 680 718 703 q 705 639 718 663 q 672 589 692 615 q 630 537 652 563 q 587 488 607 511 q 554 449 568 466 q 541 426 541 433 q 558 404 541 420 q 600 363 574 387 q 654 310 625 339 q 709 251 684 281 q 750 193 734 221 q 767 142 767 165 q 752 95 767 117 q 715 56 737 73 q 666 31 692 40 q 617 21 640 21 q 580 28 597 21 q 549 49 563 35 q 476 136 511 90 q 411 228 441 181 q 402 241 408 233 q 389 250 396 250 q 373 236 385 250 q 345 201 361 222 q 309 154 328 180 q 273 106 290 129 q 242 65 256 83 q 222 40 229 47 q 198 24 212 29 q 170 20 184 20 z "},"y":{"ha":699,"x_min":21,"x_max":652,"o":"m 291 -50 q 225 -45 260 -50 q 161 -26 191 -40 q 114 12 132 -12 q 95 76 95 37 q 101 118 95 94 q 118 162 106 141 q 145 198 129 184 q 184 213 162 213 q 211 208 197 213 q 240 197 224 203 q 272 186 256 191 q 306 181 289 181 q 341 192 327 181 q 365 220 356 203 q 378 256 374 237 q 382 293 382 276 q 382 304 382 297 q 380 318 382 311 q 375 330 378 325 q 366 335 372 335 q 359 333 363 335 q 354 329 355 330 q 305 303 330 311 q 249 296 279 296 q 168 312 203 296 q 108 356 133 328 q 66 420 83 384 q 39 496 49 456 q 25 576 29 536 q 21 654 21 617 q 23 710 21 686 q 35 750 25 734 q 66 773 45 766 q 126 781 87 781 q 163 778 142 781 q 205 767 185 775 q 239 746 225 760 q 254 713 254 733 q 248 646 254 679 q 242 578 242 613 q 245 544 242 563 q 256 508 248 525 q 277 480 264 492 q 310 469 290 469 q 348 483 334 469 q 371 515 363 496 q 381 557 378 535 q 384 597 384 580 q 377 661 384 630 q 370 720 370 692 q 382 752 370 740 q 411 772 394 764 q 448 782 429 779 q 481 785 467 785 q 516 782 497 785 q 553 772 536 779 q 585 753 571 765 q 605 725 600 742 q 641 567 629 649 q 652 406 652 486 q 634 234 652 316 q 574 88 616 151 q 463 -13 532 25 q 291 -50 393 -50 z "},"z":{"ha":627,"x_min":17,"x_max":603,"o":"m 285 14 q 226 15 256 14 q 168 22 196 17 q 116 38 140 28 q 73 66 92 48 q 44 111 55 84 q 34 174 34 137 q 54 246 34 210 q 105 317 75 282 q 171 384 136 351 q 237 447 206 417 q 288 504 267 477 q 308 551 308 530 q 303 564 308 559 q 291 571 298 568 q 276 574 284 574 q 263 575 269 575 q 176 569 219 575 q 89 563 133 563 q 58 575 72 563 q 36 605 45 587 q 22 641 26 622 q 17 675 17 661 q 32 727 17 703 q 60 752 41 742 q 103 770 79 763 q 156 781 127 777 q 211 788 184 785 q 261 791 237 790 q 300 791 284 791 q 355 790 324 791 q 419 783 387 788 q 484 767 452 777 q 540 741 515 758 q 579 701 564 725 q 595 644 595 677 q 576 567 595 608 q 529 485 557 526 q 467 403 500 443 q 406 330 434 363 q 359 273 378 297 q 340 241 340 250 q 347 234 340 235 q 357 233 353 233 q 430 239 393 233 q 503 245 466 245 q 577 224 552 245 q 603 151 603 203 q 595 100 603 124 q 571 57 587 76 q 533 27 555 39 q 483 16 511 16 q 384 14 433 15 q 285 14 334 14 z "},"{":{"ha":583,"x_min":34,"x_max":549,"o":"m 383 -142 q 292 -139 334 -142 q 221 -119 251 -136 q 176 -68 192 -103 q 159 28 159 -34 q 165 129 159 79 q 171 229 171 178 q 161 309 171 279 q 135 356 151 338 q 102 386 120 374 q 70 410 85 397 q 44 441 54 422 q 34 493 34 460 q 45 548 34 529 q 73 579 56 568 q 110 599 90 591 q 146 620 130 607 q 175 655 163 633 q 186 718 186 677 q 183 765 186 741 q 178 812 181 788 q 172 859 175 836 q 170 906 170 882 q 181 996 170 961 q 217 1051 193 1031 q 278 1078 241 1071 q 367 1085 315 1085 q 430 1083 401 1085 q 478 1070 458 1081 q 509 1035 498 1059 q 519 968 519 1012 q 512 913 519 933 q 493 882 505 893 q 467 867 481 871 q 436 861 452 863 q 405 857 420 859 q 378 845 390 854 q 359 820 366 837 q 352 772 352 803 q 356 730 352 751 q 363 688 359 709 q 371 646 368 667 q 375 604 375 625 q 359 529 375 562 q 308 473 343 495 q 353 433 336 458 q 382 380 371 409 q 397 320 393 351 q 401 260 401 289 q 397 219 401 239 q 388 178 393 199 q 378 138 382 158 q 374 96 374 117 q 374 82 374 90 q 378 70 375 75 q 386 61 380 64 q 399 57 391 57 q 430 61 415 57 q 460 65 445 65 q 526 41 503 65 q 549 -24 549 18 q 536 -90 549 -66 q 499 -125 522 -114 q 447 -140 477 -137 q 383 -142 416 -142 z "},"|":{"ha":798,"x_min":302,"x_max":495,"o":"m 322 -109 q 316 -61 319 -100 q 312 36 314 -22 q 309 167 310 94 q 307 317 308 240 q 306 468 307 393 q 305 605 305 543 q 305 712 305 667 q 305 774 305 758 q 304 836 305 802 q 303 904 304 869 q 303 972 302 939 q 307 1033 304 1006 q 317 1063 309 1053 q 338 1078 326 1074 q 365 1084 350 1083 q 395 1085 380 1085 q 417 1085 405 1085 q 442 1082 430 1084 q 465 1077 454 1080 q 481 1067 475 1073 q 490 1047 489 1058 q 492 1026 492 1037 q 492 950 494 988 q 491 874 491 912 q 492 501 492 686 q 493 127 493 315 q 493 98 493 117 q 494 55 494 79 q 495 7 494 32 q 495 -40 495 -18 q 494 -81 494 -63 q 491 -108 493 -99 q 479 -127 488 -120 q 458 -138 471 -134 q 432 -142 446 -141 q 407 -142 418 -142 q 383 -142 396 -142 q 358 -138 370 -141 q 337 -128 347 -135 q 322 -109 327 -121 z "},"}":{"ha":584,"x_min":34,"x_max":550,"o":"m 34 -24 q 57 42 34 18 q 123 65 81 65 q 154 61 138 65 q 184 57 169 57 q 198 61 193 57 q 206 70 203 64 q 209 83 208 76 q 210 96 210 90 q 205 138 210 117 q 196 178 201 158 q 187 218 191 198 q 182 260 182 239 q 186 320 182 289 q 201 380 191 351 q 230 433 212 409 q 275 473 248 458 q 224 529 240 495 q 208 604 208 562 q 212 646 208 625 q 220 689 216 667 q 228 731 224 710 q 231 774 231 752 q 224 821 231 804 q 205 846 217 838 q 178 857 193 854 q 148 861 163 859 q 117 867 132 863 q 90 882 102 871 q 71 913 78 892 q 64 968 64 933 q 75 1035 64 1011 q 105 1070 85 1059 q 153 1083 125 1081 q 214 1085 180 1085 q 304 1078 267 1085 q 366 1051 342 1071 q 402 996 391 1031 q 414 904 414 960 q 411 857 414 880 q 406 810 409 833 q 400 764 403 787 q 397 717 397 741 q 409 655 397 677 q 437 621 420 633 q 474 599 454 608 q 511 579 494 591 q 539 548 528 568 q 550 493 550 528 q 540 441 550 460 q 514 410 530 422 q 481 386 499 397 q 448 356 463 374 q 422 308 433 338 q 412 228 412 278 q 418 128 412 178 q 424 28 424 79 q 408 -68 424 -34 q 362 -119 391 -103 q 291 -139 332 -136 q 200 -142 250 -142 q 137 -140 167 -142 q 83 -125 106 -137 q 47 -90 60 -114 q 34 -24 34 -66 z "},"~":{"ha":581,"x_min":34,"x_max":547,"o":"m 114 353 q 87 359 101 353 q 61 375 73 366 q 42 398 50 385 q 34 425 34 411 q 46 480 34 451 q 78 532 58 509 q 124 571 98 555 q 178 586 150 586 q 229 576 205 586 q 276 556 253 567 q 323 535 300 545 q 371 526 346 526 q 398 535 387 526 q 418 556 409 545 q 438 576 428 567 q 463 586 449 586 q 492 578 477 586 q 519 559 507 571 q 539 533 532 547 q 547 503 547 518 q 528 453 547 479 q 484 406 510 427 q 427 372 457 385 q 374 359 397 359 q 333 370 352 359 q 297 393 315 380 q 261 417 279 406 q 224 428 243 428 q 189 416 203 428 q 164 391 175 405 q 141 365 153 376 q 114 353 130 353 z "},"¡":{"ha":317,"x_min":34,"x_max":283,"o":"m 155 -256 q 110 -254 130 -256 q 77 -242 90 -251 q 56 -217 63 -233 q 48 -173 48 -200 q 45 19 48 -76 q 43 211 43 114 q 43 287 43 254 q 53 340 43 319 q 90 372 64 361 q 168 382 116 382 q 193 381 180 382 q 217 376 205 380 q 239 365 229 372 q 256 346 250 357 q 264 321 261 338 q 268 280 267 303 q 270 232 269 258 q 271 182 271 206 q 271 139 271 159 q 271 109 271 119 q 271 66 271 94 q 271 4 271 38 q 269 -66 271 -30 q 266 -135 268 -103 q 259 -192 263 -168 q 248 -226 254 -216 q 229 -242 239 -236 q 205 -251 218 -248 q 180 -255 193 -254 q 155 -256 167 -256 m 155 431 q 110 438 132 431 q 71 457 87 444 q 44 489 54 469 q 34 534 34 508 q 45 583 34 562 q 73 619 56 604 q 115 642 91 634 q 163 650 138 650 q 210 642 188 650 q 248 620 231 634 q 274 585 264 605 q 283 539 283 564 q 273 492 283 512 q 244 458 262 471 q 203 438 227 445 q 155 431 180 431 z "},"¢":{"ha":667,"x_min":34,"x_max":633,"o":"m 272 -129 q 249 -126 261 -129 q 225 -117 236 -123 q 208 -102 215 -111 q 201 -79 201 -93 q 204 -22 201 -51 q 208 35 206 7 q 128 94 161 58 q 74 175 95 130 q 44 268 54 219 q 34 367 34 317 q 51 501 34 433 q 102 626 68 569 q 189 725 137 684 q 312 782 241 767 q 315 837 314 809 q 322 891 317 865 q 330 908 324 901 q 345 919 336 915 q 363 924 353 922 q 382 926 373 926 q 408 923 393 926 q 435 914 422 920 q 456 898 448 908 q 465 874 465 888 q 459 824 465 850 q 450 774 454 799 q 512 744 481 764 q 566 697 543 724 q 604 637 590 670 q 618 569 618 604 q 608 525 618 544 q 581 492 598 505 q 542 471 564 478 q 497 464 520 464 q 459 472 473 464 q 436 492 445 480 q 423 519 428 505 q 411 546 418 534 q 393 566 404 558 q 362 574 382 574 q 326 563 342 574 q 299 534 311 552 q 280 493 288 515 q 267 447 272 470 q 260 402 262 424 q 258 366 258 381 q 261 322 258 348 q 272 273 264 296 q 296 232 281 249 q 335 215 311 215 q 372 225 355 215 q 403 251 388 235 q 432 283 418 266 q 460 316 446 301 q 492 342 475 332 q 530 352 509 352 q 571 339 552 352 q 603 306 589 326 q 625 263 617 286 q 633 221 633 241 q 618 167 633 193 q 579 118 603 141 q 524 76 555 96 q 461 42 493 56 q 398 20 429 28 q 344 10 368 12 q 340 -35 340 -11 q 334 -80 339 -60 q 315 -115 329 -101 q 272 -129 302 -129 z "},"£":{"ha":727,"x_min":34,"x_max":693,"o":"m 365 16 q 292 18 328 16 q 220 25 256 20 q 178 44 193 29 q 155 78 163 58 q 146 122 148 98 q 144 168 144 145 q 151 191 144 178 q 165 219 157 203 q 180 257 174 235 q 186 309 186 279 q 186 327 186 318 q 185 344 186 335 q 127 343 157 344 q 68 346 97 343 q 52 351 59 347 q 41 364 44 355 q 35 388 36 374 q 34 413 34 401 q 47 450 34 437 q 80 466 60 462 q 121 471 99 471 q 161 471 143 471 q 148 518 155 494 q 135 567 141 542 q 125 616 129 591 q 121 664 121 641 q 144 774 121 726 q 204 856 166 823 q 295 907 243 889 q 406 924 347 924 q 467 918 435 924 q 531 900 499 912 q 593 871 564 888 q 644 830 622 853 q 680 779 667 807 q 693 716 693 750 q 684 673 693 695 q 660 634 675 652 q 625 606 645 617 q 583 595 605 595 q 550 604 563 595 q 526 624 536 612 q 506 651 515 636 q 483 677 496 665 q 451 698 469 690 q 404 706 432 706 q 349 688 370 706 q 328 635 328 670 q 332 597 328 618 q 344 554 337 576 q 359 512 351 533 q 372 475 367 492 q 450 475 411 475 q 528 473 489 475 q 579 419 579 471 q 578 387 579 401 q 571 363 576 372 q 553 349 565 354 q 519 345 541 345 l 401 345 q 397 286 401 313 q 378 230 393 260 l 605 229 q 650 222 635 229 q 672 204 665 216 q 680 173 679 192 q 680 130 680 155 q 679 98 680 115 q 671 67 677 81 q 655 42 666 52 q 627 29 645 31 q 496 19 561 22 q 365 16 431 16 z "},"¤":{"ha":475,"x_min":34,"x_max":441,"o":"m 372 245 q 356 250 363 245 q 342 262 349 255 q 330 276 336 269 q 319 289 325 283 q 277 272 300 277 q 232 267 255 267 q 192 272 212 267 q 154 287 172 276 q 144 275 150 282 q 132 261 138 268 q 118 250 125 254 q 103 245 111 245 q 82 252 94 245 q 60 267 71 258 q 41 287 49 276 q 34 307 34 298 q 39 325 34 315 q 52 344 44 334 q 67 362 59 354 q 80 377 75 371 q 62 472 62 424 q 81 568 62 522 q 68 582 77 573 q 53 600 60 590 q 40 618 45 609 q 34 635 34 628 q 41 653 34 643 q 57 672 47 663 q 78 688 67 682 q 98 694 90 694 q 114 689 106 694 q 129 678 121 685 q 143 665 136 671 q 154 652 149 658 q 195 668 173 664 q 238 672 216 672 q 280 667 260 672 q 320 652 301 663 q 332 664 325 657 q 346 678 338 671 q 361 689 353 684 q 376 694 369 694 q 396 688 385 694 q 417 672 407 682 q 434 653 427 663 q 441 635 441 643 q 435 618 441 628 q 421 600 429 609 q 406 582 414 590 q 393 568 397 573 q 412 471 412 520 q 395 378 412 423 q 407 364 399 372 q 422 346 415 355 q 435 326 430 336 q 441 307 441 316 q 433 287 441 298 q 415 267 426 276 q 392 252 404 258 q 372 245 380 245 m 236 391 q 256 400 248 391 q 268 420 264 408 q 274 446 273 433 q 276 468 276 459 q 275 493 276 477 q 269 522 273 508 q 256 547 264 536 q 234 557 248 557 q 213 549 222 557 q 200 529 205 541 q 193 505 195 517 q 191 482 191 492 q 193 457 191 473 q 200 427 195 441 q 214 402 205 412 q 236 391 223 391 z "},"¥":{"ha":800,"x_min":34,"x_max":766,"o":"m 461 16 q 411 15 437 16 q 360 21 384 15 q 333 39 345 25 q 315 72 322 52 q 302 115 307 92 q 295 161 298 138 q 290 203 292 184 q 288 235 289 223 q 221 235 255 235 q 154 237 186 234 q 134 245 141 239 q 123 261 127 252 q 119 281 120 271 q 119 302 119 292 q 126 335 119 320 q 152 355 133 350 q 182 361 166 359 q 216 363 199 363 q 249 363 233 363 q 280 364 265 363 l 280 390 q 246 389 270 390 q 197 389 222 388 q 151 394 172 390 q 126 409 130 399 q 120 433 122 418 q 119 457 119 448 q 129 493 119 481 q 155 510 139 505 q 190 515 171 515 q 227 516 209 515 q 194 554 214 532 q 154 603 175 576 q 111 659 132 630 q 73 714 90 687 q 45 765 56 741 q 34 806 34 789 q 50 843 34 823 q 89 881 66 863 q 135 911 111 899 q 174 924 159 924 q 219 904 196 924 q 265 855 242 884 q 309 791 288 826 q 349 728 330 757 q 382 679 367 699 q 406 659 397 659 q 429 679 415 659 q 459 729 442 699 q 495 794 475 759 q 537 859 515 829 q 581 908 558 888 q 625 928 603 928 q 671 916 647 928 q 717 883 696 903 q 752 840 739 863 q 766 794 766 816 q 753 760 766 781 q 721 713 741 739 q 676 660 701 688 q 629 605 652 631 q 587 557 606 579 q 559 521 568 535 q 596 522 577 521 q 630 518 615 522 q 655 502 646 513 q 665 465 665 490 q 661 426 665 441 q 650 403 657 411 q 631 392 642 395 q 604 389 620 389 q 576 390 591 389 q 543 391 561 391 l 544 367 q 583 368 562 367 q 622 365 604 369 q 652 349 640 361 q 665 311 665 337 q 661 271 665 286 q 650 248 657 256 q 631 237 642 240 q 604 235 619 235 q 577 235 591 235 q 545 237 562 236 q 545 210 545 227 q 544 174 545 193 q 541 133 543 154 q 536 93 539 112 q 530 59 534 74 q 522 37 526 45 q 495 19 511 22 q 461 16 479 16 z "},"¦":{"ha":256,"x_min":30,"x_max":222,"o":"m 146 507 l 126 507 q 109 508 120 507 q 87 509 98 508 q 65 513 75 511 q 51 522 55 516 q 44 554 47 527 q 39 620 41 581 q 36 704 37 659 q 35 789 35 749 q 34 861 34 830 q 34 901 34 891 q 32 971 34 945 q 36 1011 30 997 q 63 1030 43 1025 q 127 1035 83 1035 q 186 1034 167 1035 q 213 1025 205 1034 q 220 999 220 1017 q 220 944 220 980 q 221 784 220 863 q 222 623 222 704 q 222 604 222 619 q 221 571 222 589 q 221 539 221 554 q 220 522 220 524 q 208 513 218 516 q 186 509 198 510 q 163 507 174 507 q 146 507 152 507 m 146 -284 l 126 -284 q 109 -284 120 -284 q 87 -282 98 -283 q 65 -278 75 -281 q 51 -270 55 -275 q 44 -237 47 -264 q 39 -171 41 -210 q 36 -87 37 -132 q 35 -2 35 -43 q 34 69 34 38 q 34 110 34 100 q 32 179 34 153 q 36 220 30 205 q 63 239 43 234 q 127 243 83 243 q 187 243 168 243 q 213 234 206 242 q 220 207 220 226 q 220 153 220 189 q 221 -8 220 72 q 222 -168 222 -87 q 222 -188 222 -172 q 221 -220 222 -203 q 221 -252 221 -237 q 220 -269 220 -267 q 208 -278 218 -275 q 186 -283 198 -281 q 163 -284 174 -284 q 146 -284 152 -284 z "},"§":{"ha":631,"x_min":34,"x_max":597,"o":"m 340 369 q 349 369 344 369 q 359 371 354 370 q 367 376 363 373 q 370 384 370 379 q 359 405 370 395 q 334 423 349 415 q 303 436 319 431 q 279 441 288 441 q 258 435 267 441 q 249 416 249 429 q 260 395 249 404 q 285 380 271 387 q 315 372 300 374 q 340 369 331 369 m 276 -127 q 187 -118 230 -127 q 111 -86 144 -109 q 58 -28 78 -64 q 38 61 38 8 q 42 96 38 78 q 54 127 45 113 q 76 151 62 142 q 111 160 90 160 q 158 154 135 160 q 203 139 180 147 q 249 125 226 132 q 296 119 271 119 q 320 124 308 119 q 332 144 332 130 q 310 182 332 169 q 255 205 288 195 q 183 227 222 216 q 111 259 144 238 q 56 315 78 280 q 34 407 34 350 q 47 476 34 444 q 81 538 60 509 q 45 596 56 562 q 34 665 34 631 q 47 737 34 703 q 83 800 60 771 q 136 851 106 829 q 201 890 167 874 q 272 915 235 907 q 343 924 309 924 q 382 921 359 924 q 431 911 405 918 q 482 895 456 905 q 528 872 507 885 q 561 842 548 859 q 574 805 574 825 q 564 763 574 785 q 537 723 553 741 q 499 692 520 705 q 458 680 479 680 q 436 683 447 680 q 414 690 425 686 q 392 696 403 693 q 370 699 381 699 q 345 696 360 699 q 316 687 330 693 q 292 672 302 681 q 281 650 281 663 q 288 636 281 642 q 302 626 294 630 q 319 620 310 622 q 334 616 328 617 q 433 590 385 604 q 517 551 480 576 q 575 487 553 526 q 597 385 597 447 q 586 317 597 350 q 555 256 575 285 q 588 195 578 231 q 597 125 597 159 q 568 15 597 62 q 492 -64 538 -33 q 388 -112 446 -96 q 276 -127 331 -127 z "},"¨":{"ha":452,"x_min":34,"x_max":418,"o":"m 124 868 q 86 876 103 868 q 58 898 70 884 q 40 930 46 912 q 34 968 34 949 q 41 1007 34 989 q 60 1039 47 1025 q 89 1060 72 1053 q 127 1068 106 1068 q 164 1061 148 1068 q 191 1042 180 1054 q 208 1013 202 1029 q 214 977 214 996 q 208 937 214 956 q 192 902 203 918 q 163 878 180 887 q 124 868 146 868 m 328 868 q 291 876 307 868 q 262 898 274 884 q 244 930 250 912 q 238 968 238 949 q 244 1007 238 989 q 263 1039 251 1025 q 293 1060 275 1053 q 331 1068 310 1068 q 395 1042 372 1068 q 418 977 418 1016 q 412 937 418 956 q 396 902 407 918 q 368 878 385 887 q 328 868 351 868 z "},"©":{"ha":853,"x_min":34,"x_max":819,"o":"m 427 52 q 319 68 370 52 q 224 112 268 83 q 145 179 180 140 q 85 264 110 218 q 47 362 60 310 q 34 469 34 414 q 63 627 34 552 q 145 761 93 703 q 269 853 197 819 q 427 887 341 887 q 584 853 512 887 q 708 761 656 819 q 790 628 761 703 q 819 469 819 552 q 806 362 819 414 q 768 263 793 310 q 708 178 743 217 q 629 112 673 140 q 535 68 586 83 q 427 52 484 52 m 450 180 q 348 207 391 180 q 276 277 304 234 q 234 372 248 319 q 220 477 220 425 q 235 580 220 530 q 277 670 249 631 q 349 734 306 710 q 452 759 393 759 q 516 749 487 759 q 567 722 545 740 q 600 676 588 703 q 612 612 612 648 q 604 583 612 595 q 585 562 597 570 q 558 550 573 554 q 528 547 543 547 q 494 552 507 547 q 475 566 481 557 q 465 584 468 574 q 458 602 461 593 q 449 616 454 610 q 431 621 443 621 q 398 604 411 621 q 378 563 386 587 q 368 514 371 538 q 365 475 365 490 q 367 440 365 460 q 376 401 370 420 q 396 369 383 382 q 428 355 408 355 q 454 362 445 355 q 469 379 463 369 q 479 401 475 389 q 492 424 484 414 q 514 441 500 434 q 553 448 528 448 q 583 439 571 448 q 603 417 595 431 q 614 388 611 404 q 617 357 617 372 q 605 289 617 321 q 570 233 592 257 q 517 195 548 209 q 450 180 486 180 m 427 136 q 551 163 494 136 q 649 237 608 191 q 713 344 690 283 q 736 469 736 404 q 713 595 736 534 q 649 702 690 656 q 552 776 608 748 q 427 804 495 804 q 302 776 359 804 q 204 702 245 748 q 140 595 163 656 q 117 469 117 534 q 140 344 117 404 q 204 237 163 283 q 302 163 245 191 q 427 136 359 136 z "},"ª":{"ha":456,"x_min":34,"x_max":422,"o":"m 340 570 q 307 577 316 570 q 295 591 298 583 q 290 605 292 599 q 275 612 287 612 q 255 607 267 612 q 228 595 243 602 q 195 584 212 589 q 160 579 178 579 q 107 591 130 579 q 67 623 83 603 q 42 669 51 643 q 34 722 34 694 q 43 778 34 753 q 71 821 53 803 q 113 848 88 838 q 168 858 138 858 q 204 855 186 858 q 239 852 222 852 q 267 860 257 852 q 277 886 277 867 q 268 901 277 897 q 250 905 259 905 q 213 899 232 905 q 175 887 193 894 q 140 876 157 881 q 111 870 123 870 q 87 878 98 870 q 68 898 76 886 q 55 924 60 910 q 50 949 50 938 q 83 998 50 984 q 162 1024 121 1014 q 245 1035 204 1035 q 332 1016 298 1035 q 386 965 366 997 q 414 892 406 933 q 422 806 422 851 q 421 758 422 787 q 417 698 420 728 q 409 640 414 667 q 396 593 404 612 q 387 582 393 587 q 372 575 380 578 q 355 571 363 572 q 340 570 346 570 m 211 709 q 240 711 228 709 q 261 719 253 713 q 273 736 269 725 q 277 764 277 747 q 273 780 277 775 q 258 785 269 785 q 234 782 248 785 q 208 772 220 779 q 187 755 195 766 q 178 732 178 745 q 189 713 178 718 q 211 709 199 709 m 322 364 q 247 365 284 364 q 172 364 210 365 q 139 364 152 364 q 118 369 126 364 q 107 386 111 374 q 104 420 104 397 l 104 439 q 105 454 104 445 q 107 471 105 463 q 112 488 109 480 q 121 498 115 496 q 150 506 130 503 q 193 509 170 508 q 237 511 216 511 q 269 511 258 511 q 311 512 295 511 q 337 506 328 512 q 349 486 346 500 q 352 440 352 471 q 352 418 352 431 q 350 393 353 405 q 341 373 348 381 q 322 364 335 364 z "},"«":{"ha":638,"x_min":34,"x_max":604,"o":"m 245 270 q 221 278 237 270 q 187 300 206 287 q 148 330 168 314 q 109 362 127 347 q 75 391 90 378 q 53 410 60 404 q 38 437 41 420 q 34 468 34 454 q 38 498 34 483 q 54 524 42 513 q 76 546 62 532 q 108 576 91 559 q 145 609 125 592 q 182 639 164 625 q 215 661 200 652 q 239 669 230 669 q 272 662 255 669 q 304 643 290 655 q 328 616 319 631 q 338 583 338 600 q 327 557 338 569 q 300 535 316 545 q 265 515 283 524 q 230 499 246 507 q 203 484 214 491 q 192 469 192 476 q 203 456 192 463 q 230 441 214 449 q 264 426 245 434 q 299 408 283 418 q 326 385 315 397 q 337 357 337 373 q 329 326 337 341 q 307 297 320 310 q 277 277 294 285 q 245 270 260 270 m 512 270 q 488 278 504 270 q 454 300 473 287 q 415 330 435 314 q 376 362 394 347 q 342 391 357 378 q 320 410 328 404 q 305 437 309 420 q 301 468 301 454 q 305 498 301 483 q 320 524 309 513 q 395 593 357 559 q 473 658 433 627 q 507 669 488 669 q 539 662 522 669 q 571 643 557 655 q 595 615 585 631 q 604 583 604 600 q 593 557 604 569 q 567 534 583 545 q 532 515 551 524 q 497 498 513 507 q 470 483 481 490 q 459 469 459 476 q 470 456 459 463 q 497 441 481 449 q 531 426 513 434 q 566 408 550 418 q 593 385 582 397 q 604 357 604 373 q 595 326 604 341 q 573 298 587 310 q 544 278 560 286 q 512 270 528 270 z "},"¬":{"ha":470,"x_min":34,"x_max":436,"o":"m 361 315 q 304 322 321 315 q 281 342 286 328 q 278 379 276 357 q 281 433 281 401 q 280 448 281 441 q 275 460 279 455 q 266 469 272 466 q 250 472 260 472 q 161 470 205 471 q 71 469 116 469 q 49 478 56 469 q 38 499 41 487 q 34 526 35 512 q 34 551 34 541 q 41 587 34 570 q 69 610 49 604 q 157 622 111 621 q 247 624 204 624 q 302 624 275 624 q 357 623 329 623 q 389 620 374 623 q 414 610 404 617 q 430 591 425 604 q 436 559 436 579 q 436 508 436 534 q 435 454 436 481 q 430 401 433 427 q 420 351 427 375 q 397 323 415 330 q 361 315 380 315 z "},"®":{"ha":853,"x_min":34,"x_max":819,"o":"m 427 52 q 319 68 370 52 q 224 112 268 83 q 145 179 180 140 q 85 264 110 218 q 47 362 60 310 q 34 469 34 414 q 63 627 34 552 q 145 761 93 703 q 269 853 197 819 q 427 887 341 887 q 584 853 512 887 q 708 761 656 819 q 790 628 761 703 q 819 469 819 552 q 806 362 819 414 q 768 263 793 310 q 708 178 743 217 q 629 112 673 140 q 535 68 586 83 q 427 52 484 52 m 312 178 q 290 181 300 178 q 269 191 279 184 q 247 231 255 202 q 234 293 239 259 q 229 358 230 326 q 228 408 228 390 q 233 522 228 465 q 247 635 239 578 q 269 698 252 673 q 309 736 285 722 q 365 756 334 751 q 431 761 396 761 q 504 746 471 761 q 561 705 536 730 q 598 644 585 679 q 611 571 611 610 q 599 506 611 538 q 560 454 587 474 q 546 444 555 450 q 537 432 537 438 q 545 422 537 427 q 556 415 553 417 q 585 388 572 405 q 607 351 598 371 q 621 310 616 331 q 625 270 625 288 q 616 235 625 250 q 594 211 608 220 q 562 198 580 202 q 527 193 545 193 q 513 194 521 193 q 496 197 505 195 q 481 203 488 199 q 473 214 475 208 q 463 253 469 227 q 447 307 456 279 q 426 355 438 334 q 397 376 414 376 q 385 367 388 376 q 382 351 382 357 q 387 310 382 330 q 391 269 391 290 q 387 232 391 249 q 373 204 382 216 q 349 185 364 192 q 312 178 334 178 m 399 489 q 419 496 410 489 q 433 513 427 503 q 442 535 439 524 q 445 556 445 547 q 436 586 445 572 q 409 599 427 599 q 395 586 399 599 q 390 557 391 573 q 389 525 389 541 q 390 503 390 509 q 392 493 390 497 q 399 489 393 489 m 427 136 q 551 163 494 136 q 649 237 608 191 q 713 344 690 283 q 736 469 736 404 q 713 595 736 534 q 649 702 690 656 q 552 776 608 748 q 427 804 495 804 q 302 776 359 804 q 204 702 245 748 q 140 595 163 656 q 117 469 117 534 q 140 344 117 404 q 204 237 163 283 q 302 163 245 191 q 427 136 359 136 z "},"¯":{"ha":528,"x_min":34,"x_max":493,"o":"m 164 715 q 129 714 145 715 q 100 713 113 713 q 71 716 83 713 q 51 728 59 719 q 38 752 43 736 q 34 795 34 768 q 35 815 34 805 q 41 833 37 825 q 52 848 45 842 q 69 858 58 855 q 123 866 89 863 q 194 871 157 869 q 266 872 231 872 q 322 872 301 872 q 359 873 335 872 q 408 873 383 874 q 454 867 433 871 q 482 851 475 863 q 491 829 488 841 q 493 806 493 817 q 487 747 493 766 q 466 721 481 728 q 427 716 451 715 q 366 717 403 717 q 265 716 315 717 q 164 715 215 716 z "},"°":{"ha":431,"x_min":34,"x_max":397,"o":"m 204 508 q 130 522 162 508 q 77 561 98 536 q 45 620 56 586 q 34 694 34 654 q 47 779 34 737 q 86 852 60 820 q 148 904 111 884 q 231 924 184 924 q 303 908 272 924 q 355 867 334 893 q 387 807 376 842 q 397 734 397 773 q 385 651 397 692 q 347 578 372 610 q 286 527 322 547 q 204 508 250 508 m 218 646 q 236 653 229 646 q 247 669 243 659 q 253 690 252 679 q 255 709 255 701 q 254 727 255 716 q 249 749 253 739 q 239 766 245 759 q 222 773 233 773 q 202 766 210 773 q 190 747 195 758 q 183 725 185 736 q 182 704 182 713 q 183 686 182 696 q 189 667 185 675 q 200 652 193 659 q 218 646 207 646 z "},"±":{"ha":529,"x_min":35,"x_max":495,"o":"m 264 278 q 224 286 239 278 q 203 306 210 294 q 194 335 196 319 q 192 367 193 351 q 192 397 192 382 q 187 420 191 411 q 174 428 184 426 q 149 429 163 429 q 117 429 134 429 q 85 430 100 429 q 59 437 70 432 q 43 452 47 441 q 37 480 38 466 q 35 509 35 495 q 42 548 35 534 q 61 569 50 562 q 86 578 72 576 q 115 580 100 580 q 152 579 134 580 q 178 586 169 579 q 188 605 186 592 q 188 635 189 618 q 186 670 186 652 q 192 704 186 688 q 212 728 197 719 q 254 738 226 738 q 311 732 292 738 q 336 714 329 727 q 342 678 343 701 q 342 622 342 656 q 352 589 342 597 q 380 582 363 582 q 408 584 393 582 q 439 585 422 585 q 483 566 471 585 q 495 519 495 547 q 491 465 495 484 q 475 439 487 447 q 443 431 463 432 q 390 431 422 431 q 354 425 365 431 q 341 409 344 419 q 340 382 338 398 q 342 346 342 366 q 339 308 342 321 q 326 288 335 294 q 301 280 317 281 q 264 278 286 278 m 166 83 q 135 82 150 83 q 109 81 121 81 q 81 84 93 81 q 61 95 69 87 q 48 118 53 103 q 44 159 44 134 q 45 177 44 168 q 51 195 47 186 q 61 209 54 203 q 77 218 67 215 q 107 223 88 221 q 150 227 127 226 q 198 229 173 229 q 247 230 223 230 q 290 231 270 231 q 323 231 310 231 q 355 232 338 231 q 389 233 372 233 q 421 231 406 233 q 449 221 437 229 q 468 202 460 214 q 475 168 475 189 q 475 149 475 159 q 473 127 475 138 q 468 107 471 117 q 456 92 464 98 q 438 85 449 86 q 417 83 427 83 q 292 84 353 85 q 166 83 230 83 z "},"²":{"ha":406,"x_min":32,"x_max":371,"o":"m 153 464 q 111 466 129 464 q 79 476 92 468 q 60 499 66 484 q 54 543 54 515 q 61 564 54 555 q 78 581 68 573 q 114 612 93 591 q 156 656 136 632 q 190 704 176 680 q 204 748 204 729 q 200 764 204 758 q 185 770 196 770 q 167 762 174 770 q 152 744 159 753 q 133 725 144 734 q 104 717 122 717 q 78 723 91 717 q 55 739 65 729 q 38 761 45 748 q 32 787 32 774 q 48 833 32 812 q 89 867 65 853 q 141 889 113 882 q 190 897 168 897 q 247 887 220 897 q 295 860 274 878 q 328 817 316 842 q 340 760 340 792 q 334 718 340 740 q 318 674 328 696 q 296 634 309 653 q 272 599 284 614 q 288 602 280 601 q 304 602 296 602 q 329 600 317 602 q 350 591 341 597 q 365 574 359 585 q 371 549 371 564 q 368 525 371 537 q 360 502 366 513 q 345 484 354 492 q 322 475 336 477 q 238 466 280 469 q 153 464 195 464 z "},"³":{"ha":416,"x_min":34,"x_max":382,"o":"m 168 463 q 126 467 149 463 q 82 481 102 471 q 48 506 62 490 q 34 546 34 522 q 40 574 34 561 q 55 596 45 587 q 77 612 64 606 q 105 618 90 618 q 126 615 116 618 q 146 610 136 613 q 167 605 157 607 q 188 602 177 602 q 200 603 193 602 q 212 606 206 604 q 221 612 217 608 q 224 623 224 616 q 215 640 224 635 q 194 644 205 644 q 170 642 182 644 q 144 640 157 640 q 104 656 121 640 q 87 696 87 672 q 94 721 87 712 q 111 734 101 730 q 132 741 121 739 q 154 745 144 743 q 170 751 163 747 q 177 762 177 754 q 169 769 177 768 q 156 770 160 770 q 131 766 142 770 q 105 762 119 762 q 82 766 93 762 q 63 778 71 770 q 49 797 54 786 q 44 820 44 808 q 61 856 44 842 q 101 878 77 870 q 149 888 124 886 q 191 890 174 890 q 238 887 213 890 q 286 873 264 883 q 322 845 307 863 q 336 800 336 827 q 322 754 336 774 q 288 721 309 734 q 324 707 307 716 q 354 685 341 698 q 374 654 367 671 q 382 616 382 637 q 361 548 382 577 q 308 500 340 519 q 239 472 277 481 q 168 463 201 463 z "},"´":{"ha":331,"x_min":34,"x_max":297,"o":"m 102 868 q 80 873 92 868 q 58 888 68 879 q 41 908 47 897 q 34 930 34 920 q 45 953 34 937 q 75 990 57 969 q 114 1034 92 1011 q 155 1075 135 1057 q 191 1106 175 1094 q 214 1118 207 1118 q 243 1109 229 1118 q 270 1087 258 1101 q 290 1058 282 1074 q 297 1028 297 1042 q 286 1002 297 1013 q 267 986 281 998 q 234 959 253 974 q 194 928 216 944 q 154 898 173 911 q 121 877 136 885 q 102 868 107 868 z "},"µ":{"ha":692,"x_min":34,"x_max":659,"o":"m 174 -164 q 132 -158 153 -164 q 96 -138 111 -151 q 72 -97 81 -125 q 55 -31 62 -68 q 43 49 47 7 q 37 131 39 92 q 35 204 35 171 q 34 256 34 237 q 35 322 34 282 q 39 409 36 362 q 45 505 41 456 q 56 600 50 554 q 72 682 63 645 q 93 742 81 720 q 131 778 106 766 q 182 789 156 789 q 225 783 205 789 q 260 763 245 776 q 283 731 275 750 q 291 689 291 713 q 287 604 291 646 q 282 519 282 562 q 282 485 282 507 q 284 439 282 464 q 290 389 286 414 q 302 342 294 363 q 323 308 310 321 q 354 295 336 295 q 387 311 374 295 q 406 350 399 328 q 414 396 412 372 q 416 433 416 419 q 412 544 416 489 q 408 655 408 600 q 412 707 408 684 q 429 747 416 730 q 461 772 441 764 q 515 781 482 781 q 556 775 535 781 q 592 755 576 768 q 618 715 608 741 q 637 657 629 690 q 649 589 644 625 q 655 518 653 553 q 658 453 657 484 q 659 404 659 423 q 659 353 659 382 q 657 290 659 323 q 653 222 656 257 q 644 157 650 188 q 629 99 638 125 q 606 58 620 73 q 582 37 595 45 q 552 24 568 28 q 520 17 536 19 q 488 16 503 16 q 451 23 463 16 q 434 39 439 31 q 425 56 428 48 q 414 63 422 63 q 396 57 408 63 q 367 43 384 50 q 328 29 349 35 q 281 22 306 22 q 281 -46 281 -12 q 273 -105 281 -79 q 241 -148 264 -132 q 174 -164 219 -164 z "},"¶":{"ha":1003,"x_min":34,"x_max":969,"o":"m 435 24 q 386 26 408 24 q 349 38 364 28 q 325 65 333 47 q 316 114 316 83 q 323 216 316 165 q 331 319 331 267 q 330 348 331 332 q 323 379 328 364 q 308 403 318 393 q 281 412 298 413 q 262 411 271 412 q 243 410 253 410 q 154 429 193 410 q 88 480 115 448 q 47 555 61 512 q 34 646 34 598 q 50 746 34 696 q 98 835 65 795 q 160 891 127 872 q 229 917 193 909 q 304 924 264 924 q 387 924 343 924 q 470 925 429 924 q 552 925 511 925 q 600 925 569 925 q 670 924 631 924 q 751 921 709 923 q 830 916 793 920 q 898 908 868 913 q 941 896 927 903 q 956 879 950 892 q 964 851 961 866 q 968 821 967 836 q 969 797 969 806 q 964 742 969 762 q 951 712 960 722 q 933 697 943 701 q 912 691 923 694 q 890 683 901 688 q 871 666 880 678 q 861 632 863 656 q 860 580 859 608 q 861 528 860 553 q 863 490 863 503 q 860 296 863 393 q 857 102 857 199 q 843 61 857 77 q 807 38 828 46 q 761 27 785 30 q 718 25 737 25 q 689 27 703 25 q 662 35 674 29 q 640 51 649 40 q 627 77 631 61 q 606 248 610 160 q 602 419 602 335 q 607 542 602 481 q 611 665 611 604 q 606 673 611 669 q 595 679 602 676 q 583 682 589 681 q 573 683 576 683 q 543 653 543 683 l 543 644 q 556 510 551 576 q 562 375 562 444 q 562 329 562 359 q 559 264 561 300 q 552 192 557 229 q 540 122 548 155 q 519 66 532 90 q 490 35 507 43 q 463 26 477 29 q 435 24 449 24 z "},"·":{"ha":345,"x_min":34,"x_max":197,"o":"m 116 381 q 82 388 98 381 q 57 406 67 395 q 40 433 46 418 q 34 467 34 449 q 40 500 34 484 q 58 527 47 515 q 84 545 69 538 q 118 551 100 551 q 175 530 153 551 q 197 473 197 509 q 191 438 197 455 q 176 409 186 422 q 151 389 165 397 q 116 381 136 381 z "},"∙":{"ha":345,"x_min":34,"x_max":197,"o":"m 116 381 q 82 388 98 381 q 57 406 67 395 q 40 433 46 418 q 34 467 34 449 q 40 500 34 484 q 58 527 47 515 q 84 545 69 538 q 118 551 100 551 q 175 530 153 551 q 197 473 197 509 q 191 438 197 455 q 176 409 186 422 q 151 389 165 397 q 116 381 136 381 z "},"¸":{"ha":277,"x_min":34,"x_max":243,"o":"m 98 -192 q 71 -190 83 -192 q 51 -183 59 -189 q 38 -167 43 -178 q 34 -139 34 -157 q 39 -107 34 -118 q 53 -93 44 -97 q 76 -89 62 -89 q 104 -90 89 -90 q 117 -89 109 -90 q 133 -86 125 -88 q 146 -80 140 -84 q 152 -69 152 -76 q 140 -54 152 -58 q 120 -50 129 -50 q 106 -52 113 -50 q 92 -57 98 -54 q 81 -61 85 -59 q 73 -63 76 -63 q 51 -52 60 -63 q 41 -28 41 -41 q 44 -11 41 -24 q 51 20 47 3 q 59 53 55 37 q 66 74 63 68 q 82 87 70 83 q 103 90 94 90 q 117 89 109 90 q 133 84 125 87 q 146 76 141 81 q 151 63 151 71 q 149 51 151 56 q 142 40 146 45 q 136 28 138 34 q 133 16 133 23 q 137 8 133 11 q 147 5 141 6 q 158 5 153 5 q 167 5 164 5 q 199 -2 184 5 q 223 -22 213 -9 q 238 -50 233 -34 q 243 -81 243 -65 q 230 -132 243 -111 q 196 -166 217 -153 q 149 -186 175 -180 q 98 -192 123 -192 z "},"¹":{"ha":326,"x_min":34,"x_max":292,"o":"m 210 465 q 193 467 202 465 q 175 471 184 468 q 160 480 167 474 q 149 494 153 486 q 141 527 144 506 q 136 573 138 547 q 134 626 134 598 q 133 679 133 654 q 133 726 132 705 q 133 760 133 747 l 133 768 q 126 770 130 770 q 109 769 117 770 q 91 767 100 767 q 51 782 67 767 q 34 821 34 797 q 53 861 34 845 q 98 887 72 878 q 152 901 124 897 q 199 905 180 905 q 235 901 216 905 q 265 883 254 898 q 274 868 271 876 q 278 852 277 861 q 288 702 283 778 q 292 552 292 626 q 290 508 292 525 q 280 481 288 490 q 256 469 273 472 q 210 465 240 465 z "},"º":{"ha":438,"x_min":34,"x_max":404,"o":"m 215 465 q 137 484 170 465 q 80 534 103 503 q 45 604 57 565 q 34 683 34 643 q 46 765 34 725 q 83 837 59 805 q 142 888 107 869 q 224 907 178 907 q 302 888 269 907 q 359 839 336 869 q 393 769 382 808 q 404 689 404 730 q 392 607 404 648 q 355 535 379 567 q 296 485 332 504 q 215 465 261 465 m 214 614 q 233 624 226 614 q 244 645 240 633 q 250 671 248 658 q 251 692 251 684 q 250 712 251 700 q 245 735 249 724 q 235 755 241 747 q 218 763 229 763 q 200 754 207 763 q 189 732 193 745 q 183 705 184 719 q 182 684 182 692 q 183 664 182 676 q 187 641 184 652 q 197 622 191 630 q 214 614 203 614 z "},"»":{"ha":638,"x_min":34,"x_max":604,"o":"m 127 270 q 95 277 111 270 q 65 297 78 285 q 43 326 52 310 q 35 357 35 341 q 45 385 35 373 q 72 408 56 397 q 107 426 88 418 q 142 441 126 434 q 169 455 158 449 q 180 469 180 462 q 169 484 180 476 q 142 499 158 491 q 107 515 125 507 q 72 535 88 524 q 45 557 56 545 q 34 583 34 569 q 43 616 34 600 q 67 643 53 631 q 99 662 82 655 q 132 669 117 669 q 157 661 142 669 q 190 639 172 652 q 227 609 208 625 q 264 576 246 592 q 296 546 281 559 q 319 524 311 532 q 334 498 330 513 q 338 468 338 483 q 334 437 338 454 q 319 410 330 420 q 296 391 311 404 q 263 362 281 378 q 224 330 244 347 q 184 300 203 314 q 150 278 165 287 q 127 270 135 270 m 394 270 q 362 277 378 270 q 332 297 345 285 q 310 326 319 310 q 302 357 302 341 q 313 385 302 373 q 339 408 323 397 q 374 426 355 418 q 409 441 393 434 q 436 456 425 449 q 447 469 447 463 q 436 483 447 476 q 409 498 425 490 q 374 515 393 507 q 339 535 355 524 q 312 557 323 545 q 301 583 301 569 q 311 615 301 600 q 334 643 320 631 q 366 662 349 655 q 399 669 383 669 q 433 658 418 669 q 511 593 473 627 q 586 524 549 559 q 601 498 597 513 q 604 468 604 483 q 601 437 604 454 q 586 410 597 420 q 564 391 579 404 q 531 363 549 378 q 491 331 512 347 q 452 301 471 314 q 417 279 433 288 q 394 270 402 270 z "},"¼":{"ha":910,"x_min":68,"x_max":842,"o":"m 244 465 q 227 467 236 465 q 209 471 218 468 q 194 480 201 474 q 183 494 186 486 q 175 527 178 506 q 170 573 172 547 q 168 626 168 598 q 166 679 167 654 q 166 726 166 705 q 167 760 167 747 l 167 768 q 160 770 164 770 q 143 769 151 770 q 125 767 134 767 q 84 782 101 767 q 68 821 68 797 q 87 861 68 845 q 132 887 106 878 q 186 901 158 897 q 233 905 214 905 q 269 901 250 905 q 299 883 288 898 q 308 868 304 876 q 312 852 311 861 q 321 702 317 778 q 326 552 326 626 q 324 508 326 525 q 314 481 322 490 q 290 469 307 472 q 244 465 274 465 m 342 16 q 313 19 329 16 q 283 29 297 22 q 260 47 269 36 q 250 75 250 58 q 259 129 250 87 q 283 228 269 170 q 318 356 298 286 q 359 500 338 427 q 402 643 380 573 q 442 770 423 713 q 475 866 460 827 q 496 916 489 905 q 514 929 503 926 q 537 932 526 932 q 563 929 549 932 q 589 919 577 926 q 609 902 601 912 q 617 877 617 891 q 611 845 617 871 q 596 778 606 819 q 573 686 586 738 q 545 576 559 634 q 513 458 530 519 q 481 340 497 398 q 451 231 465 283 q 424 138 436 179 q 404 70 412 97 q 391 36 395 43 q 370 19 385 22 q 342 16 355 16 m 663 240 q 670 241 668 240 q 672 265 672 252 q 672 290 672 278 l 644 241 q 654 240 649 240 q 663 240 659 240 m 730 0 q 684 9 697 0 q 666 33 670 18 q 663 67 662 47 q 659 109 663 87 q 646 122 657 119 q 621 125 635 125 q 591 124 606 125 q 568 122 576 122 q 537 131 551 122 q 513 152 523 139 q 498 182 504 165 q 493 214 493 198 q 512 273 493 246 q 534 301 520 285 q 565 335 547 317 q 601 371 582 353 q 638 404 620 389 q 673 429 656 419 q 703 442 690 439 q 729 444 716 444 q 770 438 755 444 q 793 421 785 433 q 804 393 802 410 q 806 354 806 376 q 805 295 806 324 q 802 235 804 265 q 832 219 822 234 q 842 186 842 205 q 840 166 842 177 q 831 145 837 155 q 818 128 826 135 q 800 120 810 121 q 802 110 802 115 q 802 66 802 86 q 796 31 802 45 q 775 8 790 16 q 730 0 760 0 z "},"½":{"ha":918,"x_min":68,"x_max":850,"o":"m 244 465 q 197 477 214 465 q 176 521 180 490 q 168 640 170 582 q 167 760 166 698 l 167 768 q 160 770 164 770 q 143 769 151 770 q 125 767 134 767 q 84 782 100 767 q 68 821 68 796 q 87 861 68 845 q 132 887 106 878 q 186 901 158 897 q 233 905 214 905 q 260 902 246 905 q 285 894 273 900 q 304 878 296 888 q 312 852 311 868 l 320 688 q 323 620 321 654 q 326 552 326 586 q 324 508 326 525 q 314 481 322 490 q 290 469 307 472 q 244 465 274 465 m 632 0 q 590 2 608 0 q 559 12 572 4 q 539 36 546 20 q 533 79 533 52 q 541 101 533 92 q 557 117 548 110 q 594 148 572 127 q 635 192 615 168 q 669 241 655 216 q 684 284 684 265 q 680 300 684 294 q 665 307 675 307 q 647 299 654 307 q 632 280 640 290 q 613 262 624 271 q 583 254 602 254 q 557 260 570 254 q 534 275 545 266 q 518 298 524 285 q 511 323 511 311 q 528 370 511 349 q 569 404 545 390 q 620 425 593 418 q 669 433 648 433 q 726 423 699 433 q 774 396 753 414 q 807 354 795 379 q 820 297 820 329 q 814 255 820 277 q 798 211 808 233 q 776 170 788 190 q 751 135 764 151 q 784 139 768 139 q 809 136 797 139 q 830 126 821 133 q 845 110 839 120 q 850 85 850 100 q 848 61 850 74 q 839 38 845 49 q 824 20 833 28 q 802 11 814 13 q 717 2 760 5 q 632 0 674 0 m 342 16 q 313 19 329 16 q 283 29 297 22 q 260 47 269 36 q 250 75 250 58 q 259 130 250 89 q 283 230 269 172 q 318 359 298 289 q 360 503 338 430 q 402 646 381 576 q 442 772 424 715 q 475 867 460 829 q 496 916 489 905 q 514 929 503 926 q 537 932 526 932 q 563 929 549 932 q 589 919 577 926 q 609 902 601 912 q 617 877 617 891 q 608 830 617 869 q 585 734 600 792 q 552 605 571 676 q 513 458 534 533 q 473 312 493 384 q 437 181 454 239 q 408 84 420 123 q 391 36 396 45 q 370 19 384 22 q 342 16 356 16 z "},"¾":{"ha":961,"x_min":68,"x_max":893,"o":"m 202 463 q 160 467 183 463 q 116 481 136 471 q 82 506 96 490 q 68 546 68 522 q 74 574 68 561 q 89 596 79 587 q 111 612 98 606 q 139 618 124 618 q 160 615 150 618 q 180 610 170 613 q 201 605 191 607 q 222 602 211 602 q 234 603 227 602 q 245 606 240 604 q 255 612 251 608 q 258 623 258 616 q 249 640 258 635 q 228 644 239 644 q 203 642 216 644 q 178 640 191 640 q 138 656 155 640 q 121 696 121 672 q 128 721 121 712 q 145 734 135 730 q 166 741 155 739 q 188 745 178 743 q 204 751 197 747 q 211 762 211 754 q 202 769 211 768 q 190 770 194 770 q 164 766 176 770 q 139 762 153 762 q 116 766 127 762 q 97 778 105 770 q 83 797 88 786 q 78 820 78 808 q 95 856 78 842 q 135 878 111 870 q 183 888 158 886 q 224 890 208 890 q 272 887 247 890 q 319 873 298 883 q 356 845 341 863 q 370 800 370 827 q 356 754 370 774 q 322 721 342 734 q 358 707 341 716 q 388 685 375 698 q 408 654 401 671 q 416 616 416 637 q 395 548 416 577 q 342 500 374 519 q 273 472 311 481 q 202 463 235 463 m 405 16 q 376 19 392 16 q 346 29 360 22 q 323 47 332 36 q 313 75 313 58 q 322 129 313 87 q 347 228 332 170 q 381 356 361 286 q 422 500 401 427 q 465 643 444 573 q 505 770 486 713 q 538 866 524 827 q 559 916 552 905 q 577 929 566 926 q 600 932 589 932 q 626 929 612 932 q 652 919 640 926 q 672 902 664 912 q 680 877 680 891 q 674 845 680 871 q 659 778 669 819 q 636 686 649 738 q 608 576 623 634 q 576 458 593 519 q 544 340 560 398 q 514 231 528 283 q 487 138 499 179 q 467 70 475 97 q 454 36 458 43 q 433 19 448 22 q 405 16 418 16 m 714 240 q 721 241 719 240 q 723 265 723 252 q 723 290 723 278 l 695 241 q 705 240 700 240 q 714 240 709 240 m 781 0 q 734 9 748 0 q 717 33 721 18 q 713 67 713 47 q 710 109 714 87 q 697 122 708 119 q 671 125 686 125 q 642 124 656 125 q 618 122 627 122 q 588 131 602 122 q 564 152 574 139 q 549 182 555 165 q 544 214 544 198 q 563 273 544 246 q 585 301 571 285 q 615 335 598 317 q 652 371 633 353 q 689 404 671 389 q 724 429 707 419 q 753 442 741 439 q 780 444 767 444 q 821 438 806 444 q 844 421 836 433 q 855 393 852 410 q 857 354 857 376 q 856 295 857 324 q 852 235 854 265 q 883 219 873 234 q 893 186 893 205 q 890 166 893 177 q 882 145 888 155 q 869 128 877 135 q 850 120 861 121 q 853 110 853 115 q 853 66 853 86 q 847 31 853 45 q 826 8 841 16 q 781 0 811 0 z "},"¿":{"ha":568,"x_min":34,"x_max":534,"o":"m 275 -258 q 183 -243 227 -258 q 106 -200 139 -229 q 54 -132 73 -172 q 34 -41 34 -92 q 42 21 34 -8 q 65 78 51 51 q 100 128 80 104 q 144 172 121 152 q 197 238 177 200 q 217 319 216 276 q 217 344 217 332 q 222 368 218 356 q 243 386 225 380 q 285 393 262 391 q 330 393 308 394 q 363 393 352 393 q 389 384 379 393 q 405 363 399 376 q 412 336 410 351 q 414 309 414 321 q 402 238 414 271 q 372 177 391 205 q 333 123 354 148 q 294 74 313 98 q 264 28 276 51 q 252 -16 252 6 q 256 -32 252 -24 q 269 -39 259 -39 q 298 -30 287 -39 q 317 -8 309 -22 q 332 20 325 5 q 349 48 339 35 q 374 70 359 61 q 414 78 389 78 q 462 73 440 78 q 500 57 484 68 q 525 26 516 45 q 534 -22 534 7 q 511 -115 534 -72 q 452 -190 488 -158 q 369 -240 415 -222 q 275 -258 322 -258 m 304 431 q 259 438 281 431 q 220 457 237 444 q 193 489 203 470 q 183 534 183 509 q 194 583 183 562 q 223 619 205 604 q 264 642 241 634 q 313 650 288 650 q 359 642 338 650 q 397 620 381 634 q 423 585 414 606 q 433 539 433 565 q 422 492 433 512 q 393 458 411 471 q 352 438 376 444 q 304 431 329 431 z "},"À":{"ha":749,"x_min":12,"x_max":732,"o":"m 575 18 q 533 35 550 18 q 504 79 516 53 q 481 137 491 106 q 463 194 472 168 q 443 238 454 220 q 417 256 432 256 q 393 255 410 256 q 359 254 377 255 q 325 251 341 253 q 303 247 309 250 q 279 216 291 242 q 256 156 268 189 q 232 93 244 123 q 205 50 219 62 q 181 37 195 40 q 153 33 167 33 q 107 39 132 33 q 61 56 83 44 q 26 85 40 67 q 12 128 12 103 q 21 222 12 166 q 46 341 31 277 q 81 473 62 405 q 122 604 101 541 q 164 721 144 667 q 202 810 185 774 q 267 892 226 861 q 366 924 309 924 q 431 916 403 924 q 481 892 460 908 q 519 851 503 876 q 547 793 535 827 q 575 711 557 764 q 613 593 593 658 q 655 458 634 528 q 693 325 676 388 q 721 212 710 262 q 732 138 732 162 q 715 92 732 113 q 675 54 699 70 q 624 27 651 37 q 575 18 597 18 m 337 429 q 360 429 345 429 q 391 431 376 429 q 418 439 407 433 q 430 456 430 445 q 427 471 430 459 q 420 500 425 484 q 409 536 415 517 q 396 571 403 555 q 384 598 390 587 q 372 608 378 608 q 360 598 367 608 q 347 572 353 588 q 333 536 340 555 q 322 498 327 517 q 314 466 317 480 q 311 444 311 451 q 320 431 311 433 q 337 429 329 429 m 393 1013 q 374 1022 388 1013 q 341 1043 359 1030 q 301 1073 322 1057 q 261 1103 280 1088 q 228 1130 242 1118 q 209 1147 214 1142 q 198 1173 198 1158 q 205 1203 198 1187 q 225 1233 213 1219 q 252 1255 237 1246 q 281 1263 267 1263 q 304 1253 290 1263 q 336 1225 319 1242 q 372 1188 353 1208 q 407 1150 391 1168 q 435 1118 422 1132 q 452 1098 447 1103 q 460 1076 460 1088 q 454 1054 460 1065 q 437 1034 448 1042 q 415 1019 427 1025 q 393 1013 404 1013 z "},"Á":{"ha":749,"x_min":12,"x_max":732,"o":"m 575 18 q 533 35 550 18 q 504 79 516 53 q 481 137 491 106 q 463 194 472 168 q 443 238 454 220 q 417 256 432 256 q 393 255 410 256 q 359 254 377 255 q 325 251 341 253 q 303 247 309 250 q 279 216 291 242 q 256 156 268 189 q 232 93 244 123 q 205 50 219 62 q 181 37 195 40 q 153 33 167 33 q 107 39 132 33 q 61 56 83 44 q 26 85 40 67 q 12 128 12 103 q 21 222 12 166 q 46 341 31 277 q 81 473 62 405 q 122 604 101 541 q 164 721 144 667 q 202 810 185 774 q 267 892 226 861 q 366 924 309 924 q 431 916 403 924 q 481 892 460 908 q 519 851 503 876 q 547 793 535 827 q 575 711 557 764 q 613 593 593 658 q 655 458 634 528 q 693 325 676 388 q 721 212 710 262 q 732 138 732 162 q 715 92 732 113 q 675 54 699 70 q 624 27 651 37 q 575 18 597 18 m 337 429 q 360 429 345 429 q 391 431 376 429 q 418 439 407 433 q 430 456 430 445 q 427 471 430 459 q 420 500 425 484 q 409 536 415 517 q 396 571 403 555 q 384 598 390 587 q 372 608 378 608 q 360 598 367 608 q 347 572 353 588 q 333 536 340 555 q 322 498 327 517 q 314 466 317 480 q 311 444 311 451 q 320 431 311 433 q 337 429 329 429 m 353 1013 q 331 1019 342 1013 q 309 1033 319 1024 q 292 1054 298 1042 q 285 1076 285 1065 q 296 1098 285 1082 q 326 1135 308 1114 q 365 1179 343 1156 q 406 1220 386 1202 q 442 1251 426 1239 q 465 1263 458 1263 q 494 1255 479 1263 q 521 1233 509 1246 q 541 1203 533 1219 q 548 1173 548 1187 q 537 1147 548 1158 q 518 1131 532 1143 q 485 1104 504 1119 q 445 1073 467 1089 q 405 1043 424 1057 q 372 1022 387 1030 q 353 1013 358 1013 z "},"Â":{"ha":749,"x_min":12,"x_max":732,"o":"m 575 18 q 533 35 550 18 q 504 79 516 53 q 481 137 491 106 q 463 194 472 168 q 443 238 454 220 q 417 256 432 256 q 393 255 410 256 q 359 254 377 255 q 325 251 341 253 q 303 247 309 250 q 279 216 291 242 q 256 156 268 189 q 232 93 244 123 q 205 50 219 62 q 181 37 195 40 q 153 33 167 33 q 107 39 132 33 q 61 56 83 44 q 26 85 40 67 q 12 128 12 103 q 21 222 12 166 q 46 341 31 277 q 81 473 62 405 q 122 604 101 541 q 164 721 144 667 q 202 810 185 774 q 267 892 226 861 q 366 924 309 924 q 431 916 403 924 q 481 892 460 908 q 519 851 503 876 q 547 793 535 827 q 575 711 557 764 q 613 593 593 658 q 655 458 634 528 q 693 325 676 388 q 721 212 710 262 q 732 138 732 162 q 715 92 732 113 q 675 54 699 70 q 624 27 651 37 q 575 18 597 18 m 337 429 q 360 429 345 429 q 391 431 376 429 q 418 439 407 433 q 430 456 430 445 q 427 471 430 459 q 420 500 425 484 q 409 536 415 517 q 396 571 403 555 q 384 598 390 587 q 372 608 378 608 q 360 598 367 608 q 347 572 353 588 q 333 536 340 555 q 322 498 327 517 q 314 466 317 480 q 311 444 311 451 q 320 431 311 433 q 337 429 329 429 m 467 1013 q 430 1020 444 1013 q 410 1036 417 1026 q 400 1059 403 1046 q 394 1084 397 1072 q 388 1107 392 1097 q 374 1125 384 1118 q 361 1105 365 1117 q 354 1082 357 1094 q 349 1057 351 1069 q 340 1035 346 1044 q 322 1019 334 1025 q 291 1013 311 1013 q 272 1014 283 1013 q 251 1018 260 1015 q 235 1027 241 1021 q 228 1045 228 1034 q 234 1080 228 1061 q 252 1120 241 1100 q 277 1160 262 1141 q 309 1195 292 1179 q 343 1219 326 1210 q 378 1228 361 1228 q 421 1217 402 1228 q 455 1188 440 1205 q 480 1149 469 1171 q 499 1109 492 1128 q 505 1097 501 1105 q 511 1080 508 1088 q 516 1063 514 1072 q 518 1050 518 1055 q 513 1033 518 1040 q 501 1021 509 1025 q 485 1015 494 1017 q 467 1013 475 1013 z "},"Ã":{"ha":749,"x_min":12,"x_max":732,"o":"m 575 18 q 533 35 550 18 q 504 79 516 53 q 481 137 491 106 q 463 194 472 168 q 443 238 454 220 q 417 256 432 256 q 393 255 410 256 q 359 254 377 255 q 325 251 341 253 q 303 247 309 250 q 279 216 291 242 q 256 156 268 189 q 232 93 244 123 q 205 50 219 62 q 181 37 195 40 q 153 33 167 33 q 107 39 132 33 q 61 56 83 44 q 26 85 40 67 q 12 128 12 103 q 21 222 12 166 q 46 341 31 277 q 81 473 62 405 q 122 604 101 541 q 164 721 144 667 q 202 810 185 774 q 267 892 226 861 q 366 924 309 924 q 431 916 403 924 q 481 892 460 908 q 519 851 503 876 q 547 793 535 827 q 575 711 557 764 q 613 593 593 658 q 655 458 634 528 q 693 325 676 388 q 721 212 710 262 q 732 138 732 162 q 715 92 732 113 q 675 54 699 70 q 624 27 651 37 q 575 18 597 18 m 337 429 q 360 429 345 429 q 391 431 376 429 q 418 439 407 433 q 430 456 430 445 q 427 471 430 459 q 420 500 425 484 q 409 536 415 517 q 396 571 403 555 q 384 598 390 587 q 372 608 378 608 q 360 598 367 608 q 347 572 353 588 q 333 536 340 555 q 322 498 327 517 q 314 466 317 480 q 311 444 311 451 q 320 431 311 433 q 337 429 329 429 m 250 1013 q 230 1018 240 1013 q 213 1030 220 1022 q 200 1047 205 1038 q 195 1067 195 1057 q 204 1104 195 1085 q 227 1139 213 1123 q 259 1164 241 1154 q 296 1175 277 1175 q 330 1168 314 1175 q 362 1154 347 1162 q 395 1140 378 1146 q 429 1133 411 1133 q 448 1140 440 1133 q 461 1154 455 1146 q 475 1168 468 1162 q 493 1175 482 1175 q 513 1169 503 1175 q 532 1156 524 1164 q 545 1137 540 1147 q 550 1117 550 1127 q 537 1082 550 1100 q 507 1050 525 1065 q 469 1026 489 1036 q 432 1017 448 1017 q 404 1025 417 1017 q 378 1041 391 1032 q 352 1057 365 1050 q 327 1065 340 1065 q 304 1057 313 1065 q 286 1039 294 1048 q 270 1021 278 1029 q 250 1013 261 1013 z "},"Ä":{"ha":749,"x_min":12,"x_max":732,"o":"m 575 18 q 533 35 550 18 q 504 79 516 53 q 481 137 491 106 q 463 194 472 168 q 443 238 454 220 q 417 256 432 256 q 393 255 410 256 q 359 254 377 255 q 325 251 341 253 q 303 247 309 250 q 279 216 291 242 q 256 156 268 189 q 232 93 244 123 q 205 50 219 62 q 181 37 195 40 q 153 33 167 33 q 107 39 132 33 q 61 56 83 44 q 26 85 40 67 q 12 128 12 103 q 21 222 12 166 q 46 341 31 277 q 81 473 62 405 q 122 604 101 541 q 164 721 144 667 q 202 810 185 774 q 267 892 226 861 q 366 924 309 924 q 431 916 403 924 q 481 892 460 908 q 519 851 503 876 q 547 793 535 827 q 575 711 557 764 q 613 593 593 658 q 655 458 634 528 q 693 325 676 388 q 721 212 710 262 q 732 138 732 162 q 715 92 732 113 q 675 54 699 70 q 624 27 651 37 q 575 18 597 18 m 337 429 q 360 429 345 429 q 391 431 376 429 q 418 439 407 433 q 430 456 430 445 q 427 471 430 459 q 420 500 425 484 q 409 536 415 517 q 396 571 403 555 q 384 598 390 587 q 372 608 378 608 q 360 598 367 608 q 347 572 353 588 q 333 536 340 555 q 322 498 327 517 q 314 466 317 480 q 311 444 311 451 q 320 431 311 433 q 337 429 329 429 m 271 1013 q 234 1021 250 1013 q 205 1043 217 1029 q 187 1076 193 1057 q 181 1114 181 1094 q 188 1152 181 1134 q 207 1184 195 1170 q 236 1205 219 1198 q 275 1213 254 1213 q 311 1206 295 1213 q 338 1187 327 1199 q 355 1158 349 1175 q 361 1122 361 1141 q 355 1082 361 1101 q 339 1047 350 1063 q 311 1023 328 1032 q 271 1013 294 1013 m 475 1013 q 438 1021 454 1013 q 409 1043 421 1029 q 391 1076 397 1057 q 385 1114 385 1094 q 392 1152 385 1134 q 410 1184 398 1170 q 440 1205 422 1198 q 478 1213 457 1213 q 542 1187 519 1213 q 565 1122 565 1161 q 559 1082 565 1101 q 543 1047 554 1063 q 515 1023 532 1032 q 475 1013 498 1013 z "},"Å":{"ha":749,"x_min":12,"x_max":732,"o":"m 575 18 q 533 35 550 18 q 504 79 516 53 q 481 137 491 106 q 463 194 472 168 q 443 238 454 220 q 417 256 432 256 q 393 255 410 256 q 359 254 377 255 q 325 251 341 253 q 303 247 309 250 q 279 216 291 242 q 256 156 268 189 q 232 93 244 123 q 205 50 219 62 q 181 37 195 40 q 153 33 167 33 q 107 39 132 33 q 61 56 83 44 q 26 85 40 67 q 12 128 12 103 q 21 222 12 166 q 46 341 31 277 q 81 473 62 405 q 122 604 101 541 q 164 721 144 667 q 202 810 185 774 q 267 892 226 861 q 366 924 309 924 q 431 916 403 924 q 481 892 460 908 q 519 851 503 876 q 547 793 535 827 q 575 711 557 764 q 613 593 593 658 q 655 458 634 528 q 693 325 676 388 q 721 212 710 262 q 732 138 732 162 q 715 92 732 113 q 675 54 699 70 q 624 27 651 37 q 575 18 597 18 m 337 429 q 360 429 345 429 q 391 431 376 429 q 418 439 407 433 q 430 456 430 445 q 427 471 430 459 q 420 500 425 484 q 409 536 415 517 q 396 571 403 555 q 384 598 390 587 q 372 608 378 608 q 360 598 367 608 q 347 572 353 588 q 333 536 340 555 q 322 498 327 517 q 314 466 317 480 q 311 444 311 451 q 320 431 311 433 q 337 429 329 429 m 373 1013 q 328 1022 348 1013 q 293 1046 307 1031 q 270 1082 278 1061 q 262 1128 262 1103 q 271 1173 262 1152 q 295 1209 279 1194 q 332 1233 311 1224 q 377 1241 353 1241 q 420 1234 400 1241 q 454 1212 439 1226 q 476 1179 468 1198 q 484 1137 484 1160 q 477 1090 484 1112 q 455 1050 469 1067 q 420 1023 441 1034 q 373 1013 399 1013 m 373 1067 q 389 1074 382 1067 q 398 1092 395 1082 q 402 1114 401 1103 q 404 1132 404 1125 q 402 1148 404 1139 q 397 1166 401 1158 q 388 1181 394 1175 q 373 1187 382 1187 q 357 1181 363 1187 q 348 1164 351 1174 q 343 1145 345 1155 q 342 1128 342 1135 q 343 1111 342 1121 q 348 1090 345 1100 q 357 1074 351 1081 q 373 1067 363 1067 z "},"Æ":{"ha":1029,"x_min":12,"x_max":1084,"o":"m 337 429 q 360 429 345 429 q 391 431 376 429 q 418 439 407 433 q 430 456 430 445 q 427 472 430 459 q 420 501 425 484 q 409 537 415 518 q 396 572 403 556 q 384 598 390 587 q 372 608 378 608 q 360 598 367 608 q 347 572 353 588 q 333 537 340 556 q 322 499 327 517 q 314 466 317 481 q 311 444 311 451 q 320 432 311 434 q 337 429 330 429 m 575 18 q 550 22 562 18 q 530 35 538 26 q 512 64 522 44 q 494 108 503 83 q 475 158 485 132 q 457 206 466 184 q 439 242 448 228 q 423 256 431 256 q 396 255 413 256 q 362 254 380 255 q 329 252 345 254 q 303 247 313 250 q 287 231 295 244 q 272 198 279 217 q 256 156 264 179 q 240 113 248 134 q 223 75 231 92 q 205 50 214 58 q 181 37 195 40 q 153 33 167 33 q 107 39 132 33 q 61 55 83 44 q 26 85 40 66 q 12 128 12 103 q 21 222 12 166 q 46 341 31 277 q 81 473 62 405 q 122 604 101 541 q 164 721 144 667 q 202 810 185 774 q 267 892 226 861 q 366 924 309 924 q 479 893 437 924 q 545 796 522 863 q 588 859 561 834 q 648 898 614 884 q 719 918 682 912 q 794 924 757 924 q 830 922 809 924 q 876 917 852 920 q 925 908 900 913 q 971 893 949 902 q 1009 874 993 885 q 1032 848 1025 863 q 1041 821 1038 835 q 1044 793 1044 807 q 1040 758 1044 777 q 1027 724 1036 740 q 1005 697 1019 708 q 971 687 991 687 q 868 696 918 687 q 766 713 817 705 l 759 713 q 741 708 748 713 q 730 693 734 702 q 724 675 726 685 q 722 656 722 665 q 725 617 722 634 q 737 588 728 600 q 760 570 745 576 q 798 564 774 564 q 852 569 825 564 q 907 574 879 574 q 939 571 923 574 q 967 558 954 567 q 988 537 980 550 q 996 506 996 524 q 989 468 996 488 q 970 433 982 449 q 941 407 958 417 q 904 397 924 397 q 860 403 881 397 q 815 409 838 409 q 770 394 787 409 q 753 351 753 380 q 770 296 753 314 q 823 277 787 277 q 867 281 845 277 q 910 288 888 284 q 952 295 931 292 q 996 298 974 298 q 1061 276 1038 298 q 1084 211 1084 253 q 1079 163 1084 189 q 1062 114 1074 137 q 1033 75 1051 92 q 989 53 1015 58 q 893 40 943 44 q 797 36 844 36 q 733 39 765 36 q 671 51 702 42 q 625 27 650 37 q 575 18 601 18 z "},"Ç":{"ha":676,"x_min":18,"x_max":635,"o":"m 357 -192 q 330 -190 342 -192 q 310 -183 318 -189 q 297 -167 302 -178 q 293 -139 293 -157 q 298 -107 293 -117 q 313 -93 304 -96 q 335 -89 322 -89 q 363 -90 349 -90 q 376 -89 368 -90 q 392 -86 384 -88 q 405 -80 399 -84 q 411 -69 411 -76 q 408 -60 411 -64 q 399 -54 404 -56 q 389 -51 394 -52 q 379 -50 383 -50 q 365 -52 372 -50 q 351 -57 357 -54 q 340 -61 345 -59 q 332 -63 335 -63 q 321 -60 327 -63 q 310 -51 315 -56 q 301 -40 304 -46 q 300 -28 298 -34 l 313 33 q 220 66 262 42 q 145 126 178 91 q 89 204 113 161 q 49 296 64 248 q 26 392 33 343 q 18 488 18 441 q 40 649 18 570 q 106 790 62 728 q 219 890 151 852 q 380 928 288 928 q 479 913 434 928 q 558 869 525 899 q 609 798 591 840 q 628 699 628 755 q 616 653 628 673 q 586 622 604 634 q 544 603 567 609 q 496 597 520 597 q 444 606 463 597 q 414 627 425 614 q 398 655 403 640 q 387 684 393 671 q 373 705 382 696 q 345 714 363 714 q 309 701 325 714 q 282 668 294 688 q 264 623 271 648 q 252 572 256 597 q 245 524 248 547 q 243 487 243 502 q 245 451 243 471 q 250 411 246 431 q 261 370 254 390 q 279 335 269 351 q 306 310 290 319 q 342 300 321 300 q 375 309 360 300 q 400 331 389 318 q 419 360 412 345 q 433 391 427 376 q 451 420 441 410 q 473 436 460 431 q 502 443 486 441 q 535 444 517 444 q 582 431 563 444 q 613 396 602 417 q 630 351 625 376 q 635 302 635 326 q 618 202 635 250 q 569 117 601 154 q 493 56 537 79 q 395 28 449 32 q 392 16 392 22 q 396 8 392 11 q 406 5 400 6 q 417 5 411 5 q 426 5 422 5 q 458 -2 444 5 q 482 -22 472 -9 q 497 -50 492 -34 q 502 -81 502 -65 q 489 -133 502 -112 q 455 -167 476 -154 q 408 -186 434 -180 q 357 -192 382 -192 z "},"È":{"ha":617,"x_min":38,"x_max":602,"o":"m 314 36 q 263 38 292 36 q 206 46 235 40 q 153 66 178 53 q 117 100 129 79 q 91 165 102 127 q 71 247 79 203 q 56 340 62 292 q 45 434 50 388 q 40 520 41 479 q 38 592 38 562 q 47 731 38 670 q 85 836 56 793 q 169 901 115 878 q 312 924 222 924 q 348 922 327 924 q 394 917 370 920 q 443 908 418 913 q 489 893 467 902 q 527 874 511 885 q 550 848 543 863 q 559 821 556 835 q 562 793 562 807 q 557 759 562 777 q 545 724 553 740 q 522 697 536 708 q 489 687 508 687 q 386 696 436 687 q 283 713 335 705 l 277 713 q 260 709 267 713 q 249 697 253 704 q 242 681 244 690 q 239 663 239 671 q 242 623 239 641 q 252 591 244 604 q 275 571 260 578 q 315 564 290 564 q 369 569 342 564 q 424 574 396 574 q 456 571 440 574 q 485 559 472 567 q 506 538 498 551 q 513 506 513 525 q 507 468 513 488 q 488 433 500 449 q 458 407 475 417 q 422 397 441 397 q 377 403 399 397 q 333 409 356 409 q 288 395 304 409 q 271 351 271 380 q 288 296 271 314 q 341 277 304 277 q 385 281 363 277 q 428 288 406 284 q 470 295 449 292 q 513 298 492 298 q 579 276 555 298 q 602 211 602 253 q 597 162 602 188 q 580 114 591 136 q 551 74 569 91 q 507 53 533 58 q 411 40 460 43 q 314 36 362 36 m 340 1013 q 321 1022 335 1013 q 288 1043 307 1030 q 248 1073 269 1057 q 208 1103 227 1088 q 175 1130 189 1118 q 156 1147 161 1142 q 145 1173 145 1158 q 153 1203 145 1187 q 172 1233 160 1219 q 199 1255 184 1246 q 229 1263 214 1263 q 251 1253 237 1263 q 283 1225 266 1242 q 319 1188 300 1208 q 354 1150 338 1168 q 382 1118 370 1132 q 399 1098 394 1103 q 408 1076 408 1088 q 401 1054 408 1065 q 385 1034 395 1042 q 362 1019 374 1025 q 340 1013 351 1013 z "},"É":{"ha":617,"x_min":38,"x_max":602,"o":"m 314 36 q 263 38 292 36 q 206 46 235 40 q 153 66 178 53 q 117 100 129 79 q 91 165 102 127 q 71 247 79 203 q 56 340 62 292 q 45 434 50 388 q 40 520 41 479 q 38 592 38 562 q 47 731 38 670 q 85 836 56 793 q 169 901 115 878 q 312 924 222 924 q 348 922 327 924 q 394 917 370 920 q 443 908 418 913 q 489 893 467 902 q 527 874 511 885 q 550 848 543 863 q 559 821 556 835 q 562 793 562 807 q 557 759 562 777 q 545 724 553 740 q 522 697 536 708 q 489 687 508 687 q 386 696 436 687 q 283 713 335 705 l 277 713 q 260 709 267 713 q 249 697 253 704 q 242 681 244 690 q 239 663 239 671 q 242 623 239 641 q 252 591 244 604 q 275 571 260 578 q 315 564 290 564 q 369 569 342 564 q 424 574 396 574 q 456 571 440 574 q 485 559 472 567 q 506 538 498 551 q 513 506 513 525 q 507 468 513 488 q 488 433 500 449 q 458 407 475 417 q 422 397 441 397 q 377 403 399 397 q 333 409 356 409 q 288 395 304 409 q 271 351 271 380 q 288 296 271 314 q 341 277 304 277 q 385 281 363 277 q 428 288 406 284 q 470 295 449 292 q 513 298 492 298 q 579 276 555 298 q 602 211 602 253 q 597 162 602 188 q 580 114 591 136 q 551 74 569 91 q 507 53 533 58 q 411 40 460 43 q 314 36 362 36 m 300 1013 q 278 1019 290 1013 q 256 1033 266 1024 q 239 1054 245 1042 q 232 1076 232 1065 q 243 1098 232 1082 q 273 1135 255 1114 q 312 1179 290 1156 q 353 1220 333 1202 q 389 1251 373 1239 q 412 1263 405 1263 q 441 1255 427 1263 q 468 1233 456 1246 q 488 1203 480 1219 q 495 1173 495 1187 q 484 1147 495 1158 q 465 1131 479 1143 q 432 1104 451 1119 q 392 1073 414 1089 q 352 1043 371 1057 q 319 1022 334 1030 q 300 1013 305 1013 z "},"Ê":{"ha":617,"x_min":38,"x_max":602,"o":"m 314 36 q 263 38 292 36 q 206 46 235 40 q 153 66 178 53 q 117 100 129 79 q 91 165 102 127 q 71 247 79 203 q 56 340 62 292 q 45 434 50 388 q 40 520 41 479 q 38 592 38 562 q 47 731 38 670 q 85 836 56 793 q 169 901 115 878 q 312 924 222 924 q 348 922 327 924 q 394 917 370 920 q 443 908 418 913 q 489 893 467 902 q 527 874 511 885 q 550 848 543 863 q 559 821 556 835 q 562 793 562 807 q 557 759 562 777 q 545 724 553 740 q 522 697 536 708 q 489 687 508 687 q 386 696 436 687 q 283 713 335 705 l 277 713 q 260 709 267 713 q 249 697 253 704 q 242 681 244 690 q 239 663 239 671 q 242 623 239 641 q 252 591 244 604 q 275 571 260 578 q 315 564 290 564 q 369 569 342 564 q 424 574 396 574 q 456 571 440 574 q 485 559 472 567 q 506 538 498 551 q 513 506 513 525 q 507 468 513 488 q 488 433 500 449 q 458 407 475 417 q 422 397 441 397 q 377 403 399 397 q 333 409 356 409 q 288 395 304 409 q 271 351 271 380 q 288 296 271 314 q 341 277 304 277 q 385 281 363 277 q 428 288 406 284 q 470 295 449 292 q 513 298 492 298 q 579 276 555 298 q 602 211 602 253 q 597 162 602 188 q 580 114 591 136 q 551 74 569 91 q 507 53 533 58 q 411 40 460 43 q 314 36 362 36 m 414 1013 q 377 1020 391 1013 q 357 1036 364 1026 q 347 1059 350 1046 q 341 1084 344 1072 q 335 1107 339 1097 q 321 1125 331 1118 q 308 1105 312 1117 q 301 1082 304 1094 q 296 1057 298 1069 q 287 1035 293 1044 q 270 1019 281 1025 q 238 1013 258 1013 q 219 1014 230 1013 q 198 1018 208 1015 q 182 1027 189 1021 q 175 1045 175 1034 q 181 1080 175 1061 q 199 1120 188 1100 q 224 1160 210 1141 q 256 1195 239 1179 q 291 1219 273 1210 q 326 1228 309 1228 q 368 1217 349 1228 q 402 1188 387 1205 q 428 1149 416 1171 q 446 1109 439 1128 q 452 1097 448 1105 q 458 1080 455 1088 q 463 1063 461 1072 q 465 1050 465 1055 q 460 1033 465 1040 q 448 1021 456 1025 q 432 1015 441 1017 q 414 1013 422 1013 z "},"Ë":{"ha":617,"x_min":38,"x_max":602,"o":"m 314 36 q 263 38 292 36 q 206 46 235 40 q 153 66 178 53 q 117 100 129 79 q 91 165 102 127 q 71 247 79 203 q 56 340 62 292 q 45 434 50 388 q 40 520 41 479 q 38 592 38 562 q 47 731 38 670 q 85 836 56 793 q 169 901 115 878 q 312 924 222 924 q 348 922 327 924 q 394 917 370 920 q 443 908 418 913 q 489 893 467 902 q 527 874 511 885 q 550 848 543 863 q 559 821 556 835 q 562 793 562 807 q 557 759 562 777 q 545 724 553 740 q 522 697 536 708 q 489 687 508 687 q 386 696 436 687 q 283 713 335 705 l 277 713 q 260 709 267 713 q 249 697 253 704 q 242 681 244 690 q 239 663 239 671 q 242 623 239 641 q 252 591 244 604 q 275 571 260 578 q 315 564 290 564 q 369 569 342 564 q 424 574 396 574 q 456 571 440 574 q 485 559 472 567 q 506 538 498 551 q 513 506 513 525 q 507 468 513 488 q 488 433 500 449 q 458 407 475 417 q 422 397 441 397 q 377 403 399 397 q 333 409 356 409 q 288 395 304 409 q 271 351 271 380 q 288 296 271 314 q 341 277 304 277 q 385 281 363 277 q 428 288 406 284 q 470 295 449 292 q 513 298 492 298 q 579 276 555 298 q 602 211 602 253 q 597 162 602 188 q 580 114 591 136 q 551 74 569 91 q 507 53 533 58 q 411 40 460 43 q 314 36 362 36 m 218 1013 q 181 1021 197 1013 q 152 1043 164 1029 q 134 1076 140 1057 q 128 1114 128 1094 q 135 1152 128 1134 q 154 1184 142 1170 q 183 1205 166 1198 q 222 1213 201 1213 q 258 1206 242 1213 q 285 1187 274 1199 q 302 1158 296 1175 q 308 1122 308 1141 q 302 1082 308 1101 q 286 1047 297 1063 q 258 1023 275 1032 q 218 1013 241 1013 m 422 1013 q 385 1021 401 1013 q 356 1043 368 1029 q 338 1076 345 1057 q 332 1114 332 1094 q 339 1152 332 1134 q 357 1184 345 1170 q 387 1205 370 1198 q 425 1213 404 1213 q 489 1187 466 1213 q 512 1122 512 1161 q 507 1082 512 1101 q 490 1047 501 1063 q 462 1023 479 1032 q 422 1013 445 1013 z "},"Ì":{"ha":365,"x_min":-2,"x_max":294,"o":"m 157 28 q 135 28 146 28 q 114 32 124 29 q 96 42 104 35 q 83 60 88 48 q 72 109 77 76 q 63 184 66 142 q 58 274 60 227 q 54 365 56 321 q 53 445 53 408 q 52 502 52 481 l 53 802 q 88 893 53 865 q 182 920 123 920 q 210 918 196 920 q 235 911 223 916 q 256 896 247 905 q 269 871 264 886 q 275 833 272 861 q 280 765 277 805 q 284 676 282 725 q 288 575 286 627 q 291 471 290 523 q 293 374 292 420 q 294 293 294 329 q 294 237 294 258 q 294 166 294 201 q 291 94 294 130 q 282 60 290 75 q 255 39 275 44 q 206 31 231 34 q 157 28 180 28 m 193 1013 q 174 1022 188 1013 q 141 1043 159 1030 q 101 1073 122 1057 q 61 1103 80 1088 q 28 1130 42 1118 q 9 1147 14 1142 q -2 1173 -2 1158 q 5 1203 -2 1187 q 25 1233 13 1219 q 52 1255 37 1246 q 81 1263 66 1263 q 104 1253 90 1263 q 136 1225 119 1242 q 172 1188 153 1208 q 207 1150 191 1168 q 235 1118 222 1132 q 252 1098 247 1103 q 260 1076 260 1088 q 254 1054 260 1065 q 237 1034 248 1042 q 215 1019 227 1025 q 193 1013 203 1013 z "},"Í":{"ha":365,"x_min":52,"x_max":348,"o":"m 157 28 q 135 28 146 28 q 114 32 124 29 q 96 42 104 35 q 83 60 88 48 q 72 109 77 76 q 63 184 66 142 q 58 274 60 227 q 54 365 56 321 q 53 445 53 408 q 52 502 52 481 l 53 802 q 88 893 53 865 q 182 920 123 920 q 210 918 196 920 q 235 911 223 916 q 256 896 247 905 q 269 871 264 886 q 275 833 272 861 q 280 765 277 805 q 284 676 282 725 q 288 575 286 627 q 291 471 290 523 q 293 374 292 420 q 294 293 294 329 q 294 237 294 258 q 294 166 294 201 q 291 94 294 130 q 282 60 290 75 q 255 39 275 44 q 206 31 231 34 q 157 28 180 28 m 153 1013 q 131 1019 142 1013 q 109 1033 119 1024 q 92 1054 98 1042 q 85 1076 85 1065 q 96 1098 85 1082 q 125 1135 108 1114 q 164 1179 143 1156 q 206 1220 186 1202 q 242 1251 226 1239 q 264 1263 258 1263 q 294 1255 279 1263 q 321 1233 309 1246 q 340 1203 333 1219 q 348 1173 348 1187 q 337 1147 348 1158 q 318 1131 332 1143 q 285 1104 304 1119 q 245 1073 267 1089 q 205 1043 224 1057 q 172 1022 186 1030 q 153 1013 158 1013 z "},"Î":{"ha":365,"x_min":28,"x_max":318,"o":"m 157 28 q 135 28 146 28 q 114 32 124 29 q 96 42 104 35 q 83 60 88 48 q 72 109 77 76 q 63 184 66 142 q 58 274 60 227 q 54 365 56 321 q 53 445 53 408 q 52 502 52 481 l 53 802 q 88 893 53 865 q 182 920 123 920 q 210 918 196 920 q 235 911 223 916 q 256 896 247 905 q 269 871 264 886 q 275 833 272 861 q 280 765 277 805 q 284 676 282 725 q 288 575 286 627 q 291 471 290 523 q 293 374 292 420 q 294 293 294 329 q 294 237 294 258 q 294 166 294 201 q 291 94 294 130 q 282 60 290 75 q 255 39 275 44 q 206 31 231 34 q 157 28 180 28 m 267 1013 q 230 1020 243 1013 q 210 1036 217 1026 q 200 1059 203 1046 q 194 1084 197 1072 q 188 1107 192 1097 q 174 1125 184 1118 q 161 1105 165 1117 q 154 1082 157 1094 q 149 1057 151 1069 q 140 1035 146 1044 q 122 1019 134 1025 q 91 1013 111 1013 q 72 1014 83 1013 q 51 1018 60 1015 q 35 1027 41 1021 q 28 1045 28 1034 q 34 1080 28 1061 q 52 1120 41 1100 q 77 1160 62 1141 q 109 1195 92 1179 q 143 1219 125 1210 q 178 1228 161 1228 q 221 1217 202 1228 q 255 1188 240 1205 q 280 1149 269 1171 q 299 1109 292 1128 q 304 1097 301 1105 q 311 1080 308 1088 q 316 1063 314 1072 q 318 1050 318 1055 q 313 1033 318 1040 q 301 1021 309 1025 q 284 1015 294 1017 q 267 1013 275 1013 z "},"Ï":{"ha":365,"x_min":-19,"x_max":365,"o":"m 157 28 q 135 28 146 28 q 114 32 124 29 q 96 42 104 35 q 83 60 88 48 q 72 109 77 76 q 63 184 66 142 q 58 274 60 227 q 54 365 56 321 q 53 445 53 408 q 52 502 52 481 l 53 802 q 88 893 53 865 q 182 920 123 920 q 210 918 196 920 q 235 911 223 916 q 256 896 247 905 q 269 871 264 886 q 275 833 272 861 q 280 765 277 805 q 284 676 282 725 q 288 575 286 627 q 291 471 290 523 q 293 374 292 420 q 294 293 294 329 q 294 237 294 258 q 294 166 294 201 q 291 94 294 130 q 282 60 290 75 q 255 39 275 44 q 206 31 231 34 q 157 28 180 28 m 71 1013 q 34 1021 50 1013 q 5 1043 17 1029 q -13 1076 -7 1057 q -19 1114 -19 1094 q -12 1152 -19 1134 q 7 1184 -5 1170 q 36 1205 19 1198 q 75 1213 54 1213 q 111 1206 95 1213 q 138 1187 127 1199 q 155 1158 149 1175 q 161 1122 161 1141 q 155 1082 161 1101 q 139 1047 150 1063 q 111 1023 127 1032 q 71 1013 94 1013 m 275 1013 q 238 1021 254 1013 q 209 1043 221 1029 q 191 1076 197 1057 q 185 1114 185 1094 q 192 1152 185 1134 q 210 1184 198 1170 q 240 1205 222 1198 q 278 1213 257 1213 q 342 1187 319 1213 q 365 1122 365 1161 q 359 1082 365 1101 q 343 1047 354 1063 q 315 1023 332 1032 q 275 1013 298 1013 z "},"Ð":{"ha":681,"x_min":-51,"x_max":640,"o":"m 287 355 q 323 372 309 355 q 347 411 338 389 q 360 458 356 434 q 364 499 364 483 q 361 537 364 515 q 350 579 358 559 q 329 614 342 600 q 295 629 315 629 q 286 619 289 629 q 281 598 283 610 q 280 575 280 586 q 279 560 279 564 q 314 555 302 559 q 331 541 326 550 q 338 517 337 532 q 339 483 339 503 q 337 448 339 462 q 329 426 336 434 q 309 416 322 418 q 273 414 296 414 l 273 389 q 273 380 273 386 q 275 369 273 374 q 279 359 276 363 q 287 355 281 355 m 180 45 q 154 46 166 45 q 131 49 142 46 q 110 58 120 52 q 90 76 100 64 q 70 117 78 91 q 56 174 61 142 q 48 240 51 205 q 45 307 46 274 q 44 367 44 339 q 45 414 45 395 q -2 413 17 414 q -31 418 -20 412 q -46 440 -42 424 q -51 488 -51 456 q -43 529 -51 515 q -21 548 -35 543 q 11 555 -7 554 q 51 557 30 555 q 62 681 56 618 q 79 804 68 743 q 99 855 85 834 q 132 888 113 876 q 177 907 152 901 q 231 913 202 913 q 389 882 315 913 q 518 798 463 851 q 607 671 574 744 q 640 515 640 599 q 623 392 640 452 q 577 280 607 332 q 506 185 547 228 q 413 111 464 142 q 303 63 362 80 q 180 45 244 45 z "},"Ñ":{"ha":808,"x_min":50,"x_max":739,"o":"m 228 36 q 193 38 213 36 q 153 47 172 41 q 117 63 133 53 q 95 89 101 73 q 79 154 86 113 q 67 248 72 196 q 59 357 62 300 q 54 467 56 414 q 51 565 52 520 q 50 638 50 610 q 50 691 50 660 q 52 755 50 722 q 58 818 54 787 q 71 867 62 848 q 92 896 77 884 q 123 915 106 908 q 160 926 141 922 q 197 929 180 929 q 231 925 216 929 q 257 911 246 920 q 277 889 269 903 q 294 857 286 876 q 309 822 298 848 q 335 762 320 795 q 368 691 351 728 q 402 624 385 654 q 435 573 420 593 q 460 553 450 553 q 473 563 468 553 q 481 584 478 572 q 486 607 484 595 q 488 624 488 619 q 498 752 496 688 q 505 881 501 817 q 513 903 505 893 q 533 919 522 913 q 557 929 545 926 q 581 933 570 933 q 609 932 593 933 q 642 928 625 931 q 675 922 659 926 q 701 911 690 918 q 711 887 707 908 q 720 832 716 865 q 727 756 724 798 q 732 668 730 713 q 735 578 734 623 q 738 496 736 534 q 739 430 739 458 q 739 390 739 401 q 739 353 739 378 q 738 297 739 328 q 735 233 737 267 q 728 170 732 199 q 718 118 724 140 q 703 87 712 95 q 640 51 676 62 q 568 39 604 39 q 528 50 545 39 q 499 78 511 60 q 455 151 476 114 q 415 225 435 188 q 374 301 395 263 q 332 375 354 338 q 328 381 331 377 q 322 391 326 386 q 316 399 319 395 q 309 402 312 402 q 303 397 305 402 q 301 387 302 393 q 300 375 300 380 q 300 368 300 369 q 304 304 300 336 q 311 241 307 273 q 319 178 315 210 q 322 115 322 146 q 316 75 322 91 q 297 51 309 60 q 267 39 285 43 q 228 36 250 36 m 272 1013 q 252 1018 262 1013 q 234 1030 242 1022 q 222 1047 227 1038 q 217 1067 217 1057 q 226 1104 217 1085 q 249 1139 235 1123 q 281 1164 263 1154 q 317 1175 299 1175 q 352 1168 336 1175 q 384 1154 368 1162 q 416 1140 400 1146 q 450 1133 433 1133 q 469 1140 462 1133 q 483 1154 477 1146 q 497 1168 490 1162 q 515 1175 504 1175 q 535 1169 525 1175 q 553 1156 545 1164 q 567 1137 562 1147 q 572 1117 572 1127 q 559 1082 572 1100 q 529 1050 547 1065 q 490 1026 511 1036 q 454 1017 470 1017 q 426 1025 439 1017 q 399 1041 412 1032 q 374 1057 387 1050 q 349 1065 361 1065 q 326 1057 335 1065 q 308 1039 316 1048 q 291 1021 300 1029 q 272 1013 283 1013 z "},"Ò":{"ha":755,"x_min":20,"x_max":709,"o":"m 360 27 q 253 45 301 27 q 167 94 205 63 q 101 168 129 125 q 56 258 74 210 q 28 359 37 307 q 20 462 20 411 q 29 569 20 515 q 57 674 38 623 q 104 770 75 726 q 171 849 132 815 q 260 902 210 882 q 371 921 310 921 q 478 903 430 921 q 564 852 526 884 q 629 778 602 821 q 674 686 656 735 q 701 585 692 637 q 709 481 709 532 q 701 375 709 429 q 673 270 692 321 q 626 175 654 220 q 559 98 598 131 q 471 46 520 65 q 360 27 421 27 m 354 286 q 382 296 370 286 q 401 325 393 307 q 415 363 410 342 q 423 405 420 385 q 427 444 426 426 q 428 473 428 462 q 427 503 428 484 q 423 546 426 523 q 415 594 420 570 q 402 638 410 618 q 382 671 393 659 q 354 684 370 684 q 326 674 338 684 q 304 649 313 665 q 289 613 295 633 q 279 573 283 593 q 274 536 275 553 q 272 507 272 518 q 273 474 272 495 q 278 429 275 454 q 288 379 282 404 q 303 333 294 353 q 325 299 312 312 q 354 286 337 286 m 391 1013 q 372 1022 387 1013 q 339 1043 358 1030 q 300 1073 321 1057 q 260 1103 279 1088 q 227 1130 241 1118 q 208 1147 213 1142 q 197 1173 197 1158 q 204 1203 197 1187 q 223 1233 212 1219 q 250 1255 235 1246 q 280 1263 265 1263 q 303 1253 288 1263 q 335 1225 317 1242 q 371 1188 352 1208 q 405 1150 389 1168 q 433 1118 421 1132 q 450 1098 446 1103 q 459 1076 459 1088 q 453 1054 459 1065 q 436 1034 446 1042 q 414 1019 426 1025 q 391 1013 402 1013 z "},"Ó":{"ha":755,"x_min":20,"x_max":709,"o":"m 360 27 q 253 45 301 27 q 167 94 205 63 q 101 168 129 125 q 56 258 74 210 q 28 359 37 307 q 20 462 20 411 q 29 569 20 515 q 57 674 38 623 q 104 770 75 726 q 171 849 132 815 q 260 902 210 882 q 371 921 310 921 q 478 903 430 921 q 564 852 526 884 q 629 778 602 821 q 674 686 656 735 q 701 585 692 637 q 709 481 709 532 q 701 375 709 429 q 673 270 692 321 q 626 175 654 220 q 559 98 598 131 q 471 46 520 65 q 360 27 421 27 m 354 286 q 382 296 370 286 q 401 325 393 307 q 415 363 410 342 q 423 405 420 385 q 427 444 426 426 q 428 473 428 462 q 427 503 428 484 q 423 546 426 523 q 415 594 420 570 q 402 638 410 618 q 382 671 393 659 q 354 684 370 684 q 326 674 338 684 q 304 649 313 665 q 289 613 295 633 q 279 573 283 593 q 274 536 275 553 q 272 507 272 518 q 273 474 272 495 q 278 429 275 454 q 288 379 282 404 q 303 333 294 353 q 325 299 312 312 q 354 286 337 286 m 352 1013 q 329 1019 341 1013 q 307 1033 317 1024 q 290 1054 297 1042 q 283 1076 283 1065 q 295 1098 283 1082 q 324 1135 307 1114 q 363 1179 342 1156 q 405 1220 385 1202 q 440 1251 425 1239 q 463 1263 456 1263 q 493 1255 478 1263 q 520 1233 508 1246 q 539 1203 532 1219 q 547 1173 547 1187 q 536 1147 547 1158 q 517 1131 531 1143 q 484 1104 503 1119 q 444 1073 465 1089 q 404 1043 422 1057 q 371 1022 385 1030 q 352 1013 357 1013 z "},"Ô":{"ha":755,"x_min":20,"x_max":709,"o":"m 360 27 q 253 45 301 27 q 167 94 205 63 q 101 168 129 125 q 56 258 74 210 q 28 359 37 307 q 20 462 20 411 q 29 569 20 515 q 57 674 38 623 q 104 770 75 726 q 171 849 132 815 q 260 902 210 882 q 371 921 310 921 q 478 903 430 921 q 564 852 526 884 q 629 778 602 821 q 674 686 656 735 q 701 585 692 637 q 709 481 709 532 q 701 375 709 429 q 673 270 692 321 q 626 175 654 220 q 559 98 598 131 q 471 46 520 65 q 360 27 421 27 m 354 286 q 382 296 370 286 q 401 325 393 307 q 415 363 410 342 q 423 405 420 385 q 427 444 426 426 q 428 473 428 462 q 427 503 428 484 q 423 546 426 523 q 415 594 420 570 q 402 638 410 618 q 382 671 393 659 q 354 684 370 684 q 326 674 338 684 q 304 649 313 665 q 289 613 295 633 q 279 573 283 593 q 274 536 275 553 q 272 507 272 518 q 273 474 272 495 q 278 429 275 454 q 288 379 282 404 q 303 333 294 353 q 325 299 312 312 q 354 286 337 286 m 466 1013 q 429 1020 442 1013 q 409 1036 416 1026 q 398 1059 401 1046 q 393 1084 395 1072 q 387 1107 391 1097 q 373 1125 382 1118 q 359 1105 363 1117 q 353 1082 355 1094 q 347 1057 350 1069 q 338 1035 345 1044 q 321 1019 332 1025 q 290 1013 310 1013 q 270 1014 281 1013 q 250 1018 259 1015 q 233 1027 240 1021 q 227 1045 227 1034 q 233 1080 227 1061 q 250 1120 239 1100 q 276 1160 261 1141 q 308 1195 291 1179 q 342 1219 324 1210 q 377 1228 360 1228 q 420 1217 401 1228 q 453 1188 439 1205 q 479 1149 468 1171 q 498 1109 490 1128 q 503 1097 500 1105 q 510 1080 507 1088 q 515 1063 513 1072 q 517 1050 517 1055 q 512 1033 517 1040 q 500 1021 507 1025 q 483 1015 492 1017 q 466 1013 474 1013 z "},"Õ":{"ha":755,"x_min":20,"x_max":709,"o":"m 360 27 q 253 45 301 27 q 167 94 205 63 q 101 168 129 125 q 56 258 74 210 q 28 359 37 307 q 20 462 20 411 q 29 569 20 515 q 57 674 38 623 q 104 770 75 726 q 171 849 132 815 q 260 902 210 882 q 371 921 310 921 q 478 903 430 921 q 564 852 526 884 q 629 778 602 821 q 674 686 656 735 q 701 585 692 637 q 709 481 709 532 q 701 375 709 429 q 673 270 692 321 q 626 175 654 220 q 559 98 598 131 q 471 46 520 65 q 360 27 421 27 m 354 286 q 382 296 370 286 q 401 325 393 307 q 415 363 410 342 q 423 405 420 385 q 427 444 426 426 q 428 473 428 462 q 427 503 428 484 q 423 546 426 523 q 415 594 420 570 q 402 638 410 618 q 382 671 393 659 q 354 684 370 684 q 326 674 338 684 q 304 649 313 665 q 289 613 295 633 q 279 573 283 593 q 274 536 275 553 q 272 507 272 518 q 273 474 272 495 q 278 429 275 454 q 288 379 282 404 q 303 333 294 353 q 325 299 312 312 q 354 286 337 286 m 249 1013 q 229 1018 239 1013 q 211 1030 219 1022 q 199 1047 203 1038 q 194 1067 194 1057 q 203 1104 194 1085 q 226 1139 212 1123 q 258 1164 240 1154 q 294 1175 276 1175 q 329 1168 313 1175 q 361 1154 345 1162 q 393 1140 377 1146 q 427 1133 410 1133 q 446 1140 439 1133 q 460 1154 454 1146 q 474 1168 467 1162 q 492 1175 481 1175 q 512 1169 502 1175 q 530 1156 522 1164 q 544 1137 538 1147 q 549 1117 549 1127 q 536 1082 549 1100 q 506 1050 524 1065 q 467 1026 488 1036 q 431 1017 447 1017 q 402 1025 416 1017 q 376 1041 389 1032 q 351 1057 363 1050 q 326 1065 338 1065 q 302 1057 312 1065 q 285 1039 293 1048 q 268 1021 277 1029 q 249 1013 260 1013 z "},"Ö":{"ha":755,"x_min":20,"x_max":709,"o":"m 360 27 q 253 45 301 27 q 167 94 205 63 q 101 168 129 125 q 56 258 74 210 q 28 359 37 307 q 20 462 20 411 q 29 569 20 515 q 57 674 38 623 q 104 770 75 726 q 171 849 132 815 q 260 902 210 882 q 371 921 310 921 q 478 903 430 921 q 564 852 526 884 q 629 778 602 821 q 674 686 656 735 q 701 585 692 637 q 709 481 709 532 q 701 375 709 429 q 673 270 692 321 q 626 175 654 220 q 559 98 598 131 q 471 46 520 65 q 360 27 421 27 m 354 286 q 382 296 370 286 q 401 325 393 307 q 415 363 410 342 q 423 405 420 385 q 427 444 426 426 q 428 473 428 462 q 427 503 428 484 q 423 546 426 523 q 415 594 420 570 q 402 638 410 618 q 382 671 393 659 q 354 684 370 684 q 326 674 338 684 q 304 649 313 665 q 289 613 295 633 q 279 573 283 593 q 274 536 275 553 q 272 507 272 518 q 273 474 272 495 q 278 429 275 454 q 288 379 282 404 q 303 333 294 353 q 325 299 312 312 q 354 286 337 286 m 270 1013 q 232 1021 249 1013 q 204 1043 216 1029 q 186 1076 192 1057 q 180 1114 180 1094 q 186 1152 180 1134 q 205 1184 193 1170 q 235 1205 218 1198 q 273 1213 252 1213 q 310 1206 294 1213 q 337 1187 326 1199 q 354 1158 348 1175 q 359 1122 359 1141 q 354 1082 359 1101 q 337 1047 349 1063 q 309 1023 326 1032 q 270 1013 292 1013 m 474 1013 q 436 1021 453 1013 q 408 1043 420 1029 q 390 1076 396 1057 q 384 1114 384 1094 q 390 1152 384 1134 q 409 1184 397 1170 q 438 1205 421 1198 q 477 1213 456 1213 q 541 1187 517 1213 q 564 1122 564 1161 q 558 1082 564 1101 q 542 1047 553 1063 q 513 1023 530 1032 q 474 1013 496 1013 z "},"×":{"ha":463,"x_min":34,"x_max":429,"o":"m 130 272 q 104 281 119 272 q 76 303 90 290 q 53 332 62 317 q 44 358 44 347 q 55 389 44 372 q 80 421 66 406 q 105 450 94 437 q 117 468 117 463 q 104 490 117 476 q 75 518 91 503 q 47 549 60 534 q 34 574 34 564 q 43 600 34 585 q 65 628 52 615 q 94 651 79 642 q 120 661 109 661 q 151 649 134 661 q 183 624 168 638 q 211 599 198 610 q 228 588 223 588 q 251 601 237 588 q 279 628 264 613 q 310 655 294 642 q 340 667 326 667 q 368 657 352 667 q 397 633 383 648 q 420 604 410 619 q 429 576 429 588 q 417 546 429 561 q 390 518 405 532 q 363 492 375 505 q 351 471 351 480 q 363 450 351 462 q 390 424 375 437 q 417 395 405 410 q 429 365 429 380 q 419 337 429 353 q 396 308 410 322 q 366 285 382 294 q 338 275 351 275 q 309 288 323 275 q 281 314 294 300 q 255 340 267 328 q 231 353 242 353 q 210 340 222 353 q 183 312 197 328 q 156 284 170 297 q 130 272 142 272 z "},"Ø":{"ha":755,"x_min":20,"x_max":709,"o":"m 354 286 q 382 296 370 286 q 401 325 393 307 q 415 363 410 342 q 423 405 420 385 q 427 444 426 426 q 428 473 428 462 q 427 503 428 484 q 423 546 426 523 q 415 594 420 570 q 402 638 410 618 q 382 671 393 659 q 354 684 370 684 q 326 674 338 684 q 304 649 313 665 q 289 613 295 633 q 279 573 283 593 q 274 536 275 553 q 272 507 272 518 q 273 474 272 495 q 278 429 275 454 q 288 379 282 404 q 303 333 294 353 q 325 299 312 312 q 354 286 337 286 m 253 -12 q 223 -8 239 -12 q 193 3 207 -5 q 170 23 179 11 q 161 52 161 35 q 163 74 161 62 q 168 95 166 85 q 98 171 126 129 q 52 260 69 213 q 27 358 35 307 q 20 462 20 410 q 30 579 20 520 q 62 693 39 639 q 120 794 84 748 q 208 873 156 840 q 286 908 244 895 q 370 921 327 921 q 384 921 377 921 q 397 920 390 920 q 405 938 401 930 q 414 950 408 945 q 427 958 419 956 q 448 960 435 960 q 474 957 460 960 q 500 946 488 953 q 520 928 513 939 q 528 902 528 917 q 527 890 528 897 q 524 878 526 884 q 611 804 576 848 q 668 706 646 759 q 700 595 690 653 q 709 481 709 538 q 701 375 709 429 q 673 270 692 321 q 626 175 654 220 q 559 98 598 131 q 471 46 520 65 q 360 27 421 27 q 334 28 347 27 q 309 32 321 29 q 301 11 304 19 q 291 -2 297 3 q 277 -9 286 -7 q 253 -12 268 -12 z "},"Ù":{"ha":706,"x_min":33,"x_max":651,"o":"m 337 23 q 227 49 274 23 q 146 118 180 75 q 90 217 112 161 q 55 332 68 273 q 38 449 43 391 q 33 555 33 507 q 34 604 33 574 q 39 670 35 634 q 48 743 42 705 q 62 814 54 781 q 83 872 71 847 q 112 908 96 897 q 155 921 132 921 q 199 918 175 921 q 242 905 222 914 q 275 879 262 896 q 288 837 288 863 q 288 822 288 829 q 286 807 287 814 q 280 693 282 749 q 277 578 277 636 q 277 544 277 569 q 279 488 277 519 q 284 423 281 457 q 296 361 288 389 q 315 315 303 334 q 343 297 326 297 q 372 313 360 297 q 392 352 384 328 q 404 406 399 376 q 410 464 408 436 q 413 516 412 492 q 413 551 413 539 q 412 633 413 592 q 408 715 410 674 q 399 787 405 751 q 394 859 394 824 q 402 888 394 877 q 424 907 411 900 q 452 917 437 914 q 483 920 468 920 q 515 917 498 920 q 550 907 533 913 q 580 890 566 901 q 600 864 593 880 q 624 784 614 829 q 640 690 633 739 q 648 594 646 642 q 651 510 651 547 q 646 402 651 458 q 628 292 641 347 q 592 189 614 238 q 534 103 569 140 q 451 45 499 66 q 337 23 402 23 m 361 1013 q 342 1022 357 1013 q 310 1043 328 1030 q 270 1073 291 1057 q 230 1103 249 1088 q 197 1130 211 1118 q 178 1147 182 1142 q 167 1173 167 1158 q 174 1203 167 1187 q 194 1233 182 1219 q 220 1255 205 1246 q 250 1263 235 1263 q 273 1253 258 1263 q 305 1225 288 1242 q 341 1188 322 1208 q 375 1150 359 1168 q 404 1118 391 1132 q 420 1098 416 1103 q 429 1076 429 1088 q 423 1054 429 1065 q 406 1034 416 1042 q 384 1019 396 1025 q 361 1013 372 1013 z "},"Ú":{"ha":706,"x_min":33,"x_max":651,"o":"m 337 23 q 227 49 274 23 q 146 118 180 75 q 90 217 112 161 q 55 332 68 273 q 38 449 43 391 q 33 555 33 507 q 34 604 33 574 q 39 670 35 634 q 48 743 42 705 q 62 814 54 781 q 83 872 71 847 q 112 908 96 897 q 155 921 132 921 q 199 918 175 921 q 242 905 222 914 q 275 879 262 896 q 288 837 288 863 q 288 822 288 829 q 286 807 287 814 q 280 693 282 749 q 277 578 277 636 q 277 544 277 569 q 279 488 277 519 q 284 423 281 457 q 296 361 288 389 q 315 315 303 334 q 343 297 326 297 q 372 313 360 297 q 392 352 384 328 q 404 406 399 376 q 410 464 408 436 q 413 516 412 492 q 413 551 413 539 q 412 633 413 592 q 408 715 410 674 q 399 787 405 751 q 394 859 394 824 q 402 888 394 877 q 424 907 411 900 q 452 917 437 914 q 483 920 468 920 q 515 917 498 920 q 550 907 533 913 q 580 890 566 901 q 600 864 593 880 q 624 784 614 829 q 640 690 633 739 q 648 594 646 642 q 651 510 651 547 q 646 402 651 458 q 628 292 641 347 q 592 189 614 238 q 534 103 569 140 q 451 45 499 66 q 337 23 402 23 m 322 1013 q 299 1019 311 1013 q 277 1033 288 1024 q 260 1054 267 1042 q 254 1076 254 1065 q 265 1098 254 1082 q 294 1135 277 1114 q 333 1179 312 1156 q 375 1220 355 1202 q 411 1251 395 1239 q 433 1263 427 1263 q 463 1255 448 1263 q 490 1233 478 1246 q 509 1203 502 1219 q 517 1173 517 1187 q 506 1147 517 1158 q 487 1131 501 1143 q 454 1104 473 1119 q 414 1073 435 1089 q 374 1043 393 1057 q 341 1022 355 1030 q 322 1013 327 1013 z "},"Û":{"ha":706,"x_min":33,"x_max":651,"o":"m 337 23 q 227 49 274 23 q 146 118 180 75 q 90 217 112 161 q 55 332 68 273 q 38 449 43 391 q 33 555 33 507 q 34 604 33 574 q 39 670 35 634 q 48 743 42 705 q 62 814 54 781 q 83 872 71 847 q 112 908 96 897 q 155 921 132 921 q 199 918 175 921 q 242 905 222 914 q 275 879 262 896 q 288 837 288 863 q 288 822 288 829 q 286 807 287 814 q 280 693 282 749 q 277 578 277 636 q 277 544 277 569 q 279 488 277 519 q 284 423 281 457 q 296 361 288 389 q 315 315 303 334 q 343 297 326 297 q 372 313 360 297 q 392 352 384 328 q 404 406 399 376 q 410 464 408 436 q 413 516 412 492 q 413 551 413 539 q 412 633 413 592 q 408 715 410 674 q 399 787 405 751 q 394 859 394 824 q 402 888 394 877 q 424 907 411 900 q 452 917 437 914 q 483 920 468 920 q 515 917 498 920 q 550 907 533 913 q 580 890 566 901 q 600 864 593 880 q 624 784 614 829 q 640 690 633 739 q 648 594 646 642 q 651 510 651 547 q 646 402 651 458 q 628 292 641 347 q 592 189 614 238 q 534 103 569 140 q 451 45 499 66 q 337 23 402 23 m 436 1013 q 399 1020 412 1013 q 379 1036 386 1026 q 369 1059 372 1046 q 363 1084 366 1072 q 357 1107 361 1097 q 343 1125 353 1118 q 330 1105 334 1117 q 323 1082 326 1094 q 317 1057 320 1069 q 309 1035 315 1044 q 291 1019 302 1025 q 260 1013 280 1013 q 240 1014 252 1013 q 220 1018 229 1015 q 203 1027 210 1021 q 197 1045 197 1034 q 203 1080 197 1061 q 220 1120 210 1100 q 246 1160 231 1141 q 278 1195 261 1179 q 312 1219 294 1210 q 347 1228 330 1228 q 390 1217 371 1228 q 424 1188 409 1205 q 449 1149 438 1171 q 468 1109 460 1128 q 473 1097 470 1105 q 480 1080 477 1088 q 485 1063 483 1072 q 487 1050 487 1055 q 482 1033 487 1040 q 470 1021 477 1025 q 453 1015 463 1017 q 436 1013 444 1013 z "},"Ü":{"ha":706,"x_min":33,"x_max":651,"o":"m 337 23 q 227 49 274 23 q 146 118 180 75 q 90 217 112 161 q 55 332 68 273 q 38 449 43 391 q 33 555 33 507 q 34 604 33 574 q 39 670 35 634 q 48 743 42 705 q 62 814 54 781 q 83 872 71 847 q 112 908 96 897 q 155 921 132 921 q 199 918 175 921 q 242 905 222 914 q 275 879 262 896 q 288 837 288 863 q 288 822 288 829 q 286 807 287 814 q 280 693 282 749 q 277 578 277 636 q 277 544 277 569 q 279 488 277 519 q 284 423 281 457 q 296 361 288 389 q 315 315 303 334 q 343 297 326 297 q 372 313 360 297 q 392 352 384 328 q 404 406 399 376 q 410 464 408 436 q 413 516 412 492 q 413 551 413 539 q 412 633 413 592 q 408 715 410 674 q 399 787 405 751 q 394 859 394 824 q 402 888 394 877 q 424 907 411 900 q 452 917 437 914 q 483 920 468 920 q 515 917 498 920 q 550 907 533 913 q 580 890 566 901 q 600 864 593 880 q 624 784 614 829 q 640 690 633 739 q 648 594 646 642 q 651 510 651 547 q 646 402 651 458 q 628 292 641 347 q 592 189 614 238 q 534 103 569 140 q 451 45 499 66 q 337 23 402 23 m 240 1013 q 202 1021 219 1013 q 174 1043 186 1029 q 156 1076 162 1057 q 150 1114 150 1094 q 157 1152 150 1134 q 176 1184 163 1170 q 205 1205 188 1198 q 243 1213 222 1213 q 280 1206 264 1213 q 307 1187 296 1199 q 324 1158 318 1175 q 330 1122 330 1141 q 324 1082 330 1101 q 308 1047 319 1063 q 279 1023 296 1032 q 240 1013 262 1013 m 444 1013 q 407 1021 423 1013 q 378 1043 390 1029 q 360 1076 366 1057 q 354 1114 354 1094 q 360 1152 354 1134 q 379 1184 367 1170 q 409 1205 391 1198 q 447 1213 426 1213 q 511 1187 488 1213 q 534 1122 534 1161 q 528 1082 534 1101 q 512 1047 523 1063 q 484 1023 500 1032 q 444 1013 467 1013 z "},"Ý":{"ha":693,"x_min":-18,"x_max":715,"o":"m 376 16 q 324 18 345 16 q 291 28 304 20 q 269 56 277 37 q 255 106 261 74 q 229 381 229 242 q 225 421 229 401 q 213 459 222 441 q 181 509 202 481 q 134 568 159 537 q 81 631 109 599 q 32 695 54 664 q -4 755 10 726 q -18 806 -18 783 q -1 843 -18 823 q 37 881 15 863 q 83 911 60 899 q 123 924 107 924 q 168 904 144 924 q 213 855 191 884 q 257 791 236 826 q 297 728 279 757 q 331 679 316 699 q 355 659 346 659 q 377 679 363 659 q 408 729 391 699 q 444 794 425 759 q 485 859 464 829 q 529 908 507 888 q 574 928 551 928 q 620 916 595 928 q 666 883 645 903 q 701 839 687 863 q 715 793 715 815 q 699 752 715 777 q 657 697 682 727 q 603 636 632 668 q 548 573 573 604 q 506 516 523 543 q 490 469 490 489 q 492 368 490 418 q 494 267 494 318 q 493 237 494 256 q 492 195 493 218 q 490 147 492 172 q 486 101 489 123 q 479 62 484 79 q 470 37 475 45 q 452 22 463 27 q 427 16 440 18 q 401 15 414 14 q 376 16 388 16 m 329 1013 q 306 1019 318 1013 q 284 1033 294 1024 q 267 1054 274 1042 q 260 1076 260 1065 q 272 1098 260 1082 q 301 1135 283 1114 q 340 1179 319 1156 q 381 1220 361 1202 q 417 1251 401 1239 q 440 1263 433 1263 q 470 1255 455 1263 q 497 1233 485 1246 q 516 1203 509 1219 q 524 1173 524 1187 q 513 1147 524 1158 q 494 1131 508 1143 q 461 1104 479 1119 q 421 1073 442 1089 q 381 1043 399 1057 q 348 1022 362 1030 q 329 1013 334 1013 z "},"Þ":{"ha":641,"x_min":43,"x_max":612,"o":"m 294 410 q 326 417 311 410 q 351 438 340 425 q 367 467 361 450 q 373 499 373 483 q 368 531 373 515 q 353 560 363 547 q 329 581 343 573 q 297 589 315 589 q 290 579 292 589 q 286 556 288 569 q 284 532 285 544 q 284 518 284 521 q 283 473 283 496 q 283 429 283 451 q 284 416 283 422 q 294 410 286 410 m 209 -120 q 184 -120 197 -120 q 160 -118 172 -119 q 110 -90 130 -115 q 77 -30 90 -66 q 57 50 64 6 q 47 134 50 93 q 44 211 44 176 q 43 267 43 247 q 46 391 43 330 q 57 515 50 453 l 102 911 q 218 1015 115 1015 q 262 1011 242 1015 q 297 998 283 1008 q 319 970 311 987 q 328 924 328 952 q 323 858 328 892 q 317 791 319 824 q 438 770 384 791 q 531 711 492 749 q 591 618 570 672 q 612 497 612 564 q 592 379 612 432 q 535 289 572 327 q 447 229 498 251 q 332 202 395 207 q 300 188 309 201 q 291 154 291 176 q 295 110 291 132 q 304 65 299 87 q 313 21 309 43 q 317 -24 317 -1 q 310 -72 317 -53 q 290 -101 303 -90 q 256 -116 276 -111 q 209 -120 235 -120 z "},"ß":{"ha":811,"x_min":52,"x_max":804,"o":"m 561 7 q 486 15 526 7 q 412 39 446 22 q 356 85 378 56 q 334 158 334 115 q 340 196 334 174 q 355 238 345 218 q 381 272 366 258 q 416 286 396 286 q 438 281 425 286 q 467 270 451 276 q 501 258 483 263 q 539 253 519 253 q 548 253 543 253 q 559 255 553 254 q 568 259 564 256 q 572 267 572 262 q 553 294 572 283 q 508 318 535 306 q 448 347 480 331 q 388 389 416 363 q 342 452 361 414 q 324 545 324 490 q 328 586 324 566 q 335 625 331 606 q 343 665 340 645 q 347 705 347 684 q 342 729 347 718 q 321 741 337 741 q 294 730 305 741 q 275 703 282 720 q 263 667 267 687 q 256 626 258 646 q 254 588 254 606 q 254 559 254 570 q 263 398 254 478 q 288 237 273 317 q 295 203 290 221 q 303 166 299 184 q 311 130 308 148 q 314 94 314 111 q 298 52 314 68 q 260 27 283 36 q 212 16 237 19 q 167 14 186 14 q 130 17 148 14 q 99 37 111 20 q 80 88 87 52 q 66 170 72 123 q 58 269 61 216 q 54 370 55 321 q 52 459 52 419 q 52 520 52 499 q 53 630 52 574 q 68 735 55 685 q 112 828 82 786 q 200 897 142 869 q 321 924 258 924 q 402 912 359 924 q 484 877 446 900 q 547 821 522 854 q 572 743 572 787 q 563 697 572 720 q 543 655 554 675 q 524 614 532 634 q 515 574 515 593 q 519 554 515 562 q 533 539 524 546 q 569 518 549 527 q 606 500 588 510 q 680 454 644 481 q 744 395 716 428 q 787 322 771 362 q 804 235 804 282 q 784 142 804 184 q 731 71 764 100 q 654 24 698 41 q 561 7 610 7 z "},"à":{"ha":669,"x_min":32,"x_max":621,"o":"m 495 33 q 457 38 471 33 q 437 50 444 43 q 428 67 431 58 q 422 83 425 76 q 415 96 420 91 q 397 101 410 101 q 367 93 385 101 q 327 75 349 85 q 278 56 304 64 q 223 48 252 48 q 140 70 176 48 q 80 125 104 91 q 44 201 56 159 q 32 286 32 243 q 45 374 32 333 q 84 446 58 415 q 148 494 110 476 q 235 512 186 512 q 290 508 263 512 q 344 503 316 503 q 387 516 372 503 q 401 558 401 530 q 387 583 401 577 q 358 589 374 589 q 300 581 332 589 q 240 561 269 572 q 186 541 210 550 q 149 532 162 532 q 111 546 127 532 q 81 581 94 560 q 63 624 69 601 q 56 664 56 646 q 106 745 56 721 q 226 789 162 771 q 352 807 290 807 q 448 791 407 807 q 519 748 490 776 q 569 684 549 721 q 600 605 588 648 q 616 517 611 563 q 621 426 621 471 q 620 375 621 404 q 617 312 619 345 q 613 245 616 279 q 605 178 610 210 q 595 118 601 146 q 581 71 589 90 q 566 52 576 60 q 544 40 556 45 q 518 34 532 36 q 495 33 505 33 m 300 263 q 336 268 317 263 q 371 279 355 273 q 391 293 385 285 q 399 310 397 300 q 400 332 401 320 q 400 356 400 344 q 395 381 400 372 q 372 390 389 390 q 333 384 354 390 q 293 367 311 378 q 262 339 275 356 q 250 302 250 323 q 266 272 250 280 q 300 263 281 263 m 366 868 q 347 877 361 868 q 314 898 332 885 q 274 927 295 911 q 234 958 253 943 q 201 985 215 973 q 182 1002 187 998 q 171 1028 171 1013 q 178 1058 171 1042 q 198 1087 186 1074 q 224 1109 210 1101 q 254 1118 239 1118 q 277 1107 262 1118 q 309 1080 292 1097 q 345 1043 326 1063 q 379 1005 363 1023 q 408 972 395 987 q 425 953 420 958 q 433 931 433 943 q 427 909 433 920 q 410 888 420 897 q 388 874 400 880 q 366 868 376 868 z "},"á":{"ha":669,"x_min":32,"x_max":621,"o":"m 495 33 q 457 38 471 33 q 437 50 444 43 q 428 67 431 58 q 422 83 425 76 q 415 96 420 91 q 397 101 410 101 q 367 93 385 101 q 327 75 349 85 q 278 56 304 64 q 223 48 252 48 q 140 70 176 48 q 80 125 104 91 q 44 201 56 159 q 32 286 32 243 q 45 374 32 333 q 84 446 58 415 q 148 494 110 476 q 235 512 186 512 q 290 508 263 512 q 344 503 316 503 q 387 516 372 503 q 401 558 401 530 q 387 583 401 577 q 358 589 374 589 q 300 581 332 589 q 240 561 269 572 q 186 541 210 550 q 149 532 162 532 q 111 546 127 532 q 81 581 94 560 q 63 624 69 601 q 56 664 56 646 q 106 745 56 721 q 226 789 162 771 q 352 807 290 807 q 448 791 407 807 q 519 748 490 776 q 569 684 549 721 q 600 605 588 648 q 616 517 611 563 q 621 426 621 471 q 620 375 621 404 q 617 312 619 345 q 613 245 616 279 q 605 178 610 210 q 595 118 601 146 q 581 71 589 90 q 566 52 576 60 q 544 40 556 45 q 518 34 532 36 q 495 33 505 33 m 300 263 q 336 268 317 263 q 371 279 355 273 q 391 293 385 285 q 399 310 397 300 q 400 332 401 320 q 400 356 400 344 q 395 381 400 372 q 372 390 389 390 q 333 384 354 390 q 293 367 311 378 q 262 339 275 356 q 250 302 250 323 q 266 272 250 280 q 300 263 281 263 m 326 868 q 303 873 315 868 q 281 888 292 879 q 264 908 271 897 q 258 930 258 920 q 269 953 258 937 q 298 990 281 969 q 337 1034 316 1011 q 379 1075 359 1057 q 415 1106 399 1094 q 437 1118 431 1118 q 467 1109 452 1118 q 494 1087 482 1101 q 513 1058 506 1074 q 521 1028 521 1042 q 510 1002 521 1013 q 491 986 505 998 q 458 959 477 974 q 418 928 439 944 q 378 898 397 911 q 345 877 359 885 q 326 868 331 868 z "},"â":{"ha":669,"x_min":32,"x_max":621,"o":"m 495 33 q 457 38 471 33 q 437 50 444 43 q 428 67 431 58 q 422 83 425 76 q 415 96 420 91 q 397 101 410 101 q 367 93 385 101 q 327 75 349 85 q 278 56 304 64 q 223 48 252 48 q 140 70 176 48 q 80 125 104 91 q 44 201 56 159 q 32 286 32 243 q 45 374 32 333 q 84 446 58 415 q 148 494 110 476 q 235 512 186 512 q 290 508 263 512 q 344 503 316 503 q 387 516 372 503 q 401 558 401 530 q 387 583 401 577 q 358 589 374 589 q 300 581 332 589 q 240 561 269 572 q 186 541 210 550 q 149 532 162 532 q 111 546 127 532 q 81 581 94 560 q 63 624 69 601 q 56 664 56 646 q 106 745 56 721 q 226 789 162 771 q 352 807 290 807 q 448 791 407 807 q 519 748 490 776 q 569 684 549 721 q 600 605 588 648 q 616 517 611 563 q 621 426 621 471 q 620 375 621 404 q 617 312 619 345 q 613 245 616 279 q 605 178 610 210 q 595 118 601 146 q 581 71 589 90 q 566 52 576 60 q 544 40 556 45 q 518 34 532 36 q 495 33 505 33 m 300 263 q 336 268 317 263 q 371 279 355 273 q 391 293 385 285 q 399 310 397 300 q 400 332 401 320 q 400 356 400 344 q 395 381 400 372 q 372 390 389 390 q 333 384 354 390 q 293 367 311 378 q 262 339 275 356 q 250 302 250 323 q 266 272 250 280 q 300 263 281 263 m 440 868 q 403 874 416 868 q 383 891 390 881 q 373 914 376 901 q 367 939 370 926 q 361 962 365 951 q 347 980 357 973 q 334 960 338 972 q 327 937 330 949 q 321 912 324 924 q 313 890 319 899 q 295 874 307 880 q 264 868 284 868 q 244 869 256 868 q 224 872 233 869 q 208 882 214 876 q 201 900 201 888 q 207 935 201 916 q 224 975 214 955 q 250 1015 235 996 q 282 1049 265 1034 q 316 1074 298 1065 q 351 1083 334 1083 q 394 1072 375 1083 q 428 1043 413 1060 q 453 1004 442 1025 q 472 964 465 983 q 477 951 474 960 q 484 935 481 943 q 489 918 487 926 q 491 905 491 910 q 486 887 491 895 q 474 876 481 880 q 457 870 467 872 q 440 868 448 868 z "},"ã":{"ha":669,"x_min":32,"x_max":621,"o":"m 495 33 q 457 38 471 33 q 437 50 444 43 q 428 67 431 58 q 422 83 425 76 q 415 96 420 91 q 397 101 410 101 q 367 93 385 101 q 327 75 349 85 q 278 56 304 64 q 223 48 252 48 q 140 70 176 48 q 80 125 104 91 q 44 201 56 159 q 32 286 32 243 q 45 374 32 333 q 84 446 58 415 q 148 494 110 476 q 235 512 186 512 q 290 508 263 512 q 344 503 316 503 q 387 516 372 503 q 401 558 401 530 q 387 583 401 577 q 358 589 374 589 q 300 581 332 589 q 240 561 269 572 q 186 541 210 550 q 149 532 162 532 q 111 546 127 532 q 81 581 94 560 q 63 624 69 601 q 56 664 56 646 q 106 745 56 721 q 226 789 162 771 q 352 807 290 807 q 448 791 407 807 q 519 748 490 776 q 569 684 549 721 q 600 605 588 648 q 616 517 611 563 q 621 426 621 471 q 620 375 621 404 q 617 312 619 345 q 613 245 616 279 q 605 178 610 210 q 595 118 601 146 q 581 71 589 90 q 566 52 576 60 q 544 40 556 45 q 518 34 532 36 q 495 33 505 33 m 300 263 q 336 268 317 263 q 371 279 355 273 q 391 293 385 285 q 399 310 397 300 q 400 332 401 320 q 400 356 400 344 q 395 381 400 372 q 372 390 389 390 q 333 384 354 390 q 293 367 311 378 q 262 339 275 356 q 250 302 250 323 q 266 272 250 280 q 300 263 281 263 m 223 868 q 203 872 213 868 q 185 885 193 877 q 173 902 178 892 q 168 922 168 911 q 177 959 168 940 q 200 994 186 978 q 232 1019 214 1009 q 269 1029 250 1029 q 303 1023 287 1029 q 335 1009 319 1017 q 368 995 351 1001 q 401 988 384 988 q 420 995 413 988 q 434 1009 428 1001 q 448 1023 441 1017 q 466 1029 455 1029 q 486 1024 476 1029 q 505 1010 496 1019 q 518 992 513 1002 q 523 972 523 982 q 510 937 523 955 q 480 905 498 920 q 441 881 462 890 q 405 872 421 872 q 377 880 390 872 q 351 896 363 887 q 325 912 338 905 q 300 920 313 920 q 277 911 286 920 q 259 894 267 903 q 242 876 251 884 q 223 868 234 868 z "},"ä":{"ha":669,"x_min":32,"x_max":621,"o":"m 495 33 q 457 38 471 33 q 437 50 444 43 q 428 67 431 58 q 422 83 425 76 q 415 96 420 91 q 397 101 410 101 q 367 93 385 101 q 327 75 349 85 q 278 56 304 64 q 223 48 252 48 q 140 70 176 48 q 80 125 104 91 q 44 201 56 159 q 32 286 32 243 q 45 374 32 333 q 84 446 58 415 q 148 494 110 476 q 235 512 186 512 q 290 508 263 512 q 344 503 316 503 q 387 516 372 503 q 401 558 401 530 q 387 583 401 577 q 358 589 374 589 q 300 581 332 589 q 240 561 269 572 q 186 541 210 550 q 149 532 162 532 q 111 546 127 532 q 81 581 94 560 q 63 624 69 601 q 56 664 56 646 q 106 745 56 721 q 226 789 162 771 q 352 807 290 807 q 448 791 407 807 q 519 748 490 776 q 569 684 549 721 q 600 605 588 648 q 616 517 611 563 q 621 426 621 471 q 620 375 621 404 q 617 312 619 345 q 613 245 616 279 q 605 178 610 210 q 595 118 601 146 q 581 71 589 90 q 566 52 576 60 q 544 40 556 45 q 518 34 532 36 q 495 33 505 33 m 300 263 q 336 268 317 263 q 371 279 355 273 q 391 293 385 285 q 399 310 397 300 q 400 332 401 320 q 400 356 400 344 q 395 381 400 372 q 372 390 389 390 q 333 384 354 390 q 293 367 311 378 q 262 339 275 356 q 250 302 250 323 q 266 272 250 280 q 300 263 281 263 m 244 868 q 207 876 223 868 q 178 898 190 884 q 160 930 166 912 q 154 968 154 949 q 161 1007 154 989 q 180 1039 168 1025 q 209 1060 192 1053 q 248 1068 227 1068 q 284 1061 268 1068 q 311 1042 300 1054 q 328 1013 322 1029 q 334 977 334 996 q 328 937 334 956 q 312 902 323 918 q 283 878 300 887 q 244 868 267 868 m 448 868 q 411 876 427 868 q 382 898 394 884 q 364 930 370 912 q 358 968 358 949 q 365 1007 358 989 q 383 1039 371 1025 q 413 1060 395 1053 q 451 1068 430 1068 q 515 1042 492 1068 q 538 977 538 1016 q 532 937 538 956 q 516 902 527 918 q 488 878 505 887 q 448 868 471 868 z "},"å":{"ha":669,"x_min":32,"x_max":621,"o":"m 495 33 q 457 38 471 33 q 437 50 444 43 q 428 67 431 58 q 422 83 425 76 q 415 96 420 91 q 397 101 410 101 q 367 93 385 101 q 327 75 349 85 q 278 56 304 64 q 223 48 252 48 q 140 70 176 48 q 80 125 104 91 q 44 201 56 159 q 32 286 32 243 q 45 374 32 333 q 84 446 58 415 q 148 494 110 476 q 235 512 186 512 q 290 508 263 512 q 344 503 316 503 q 387 516 372 503 q 401 558 401 530 q 387 583 401 577 q 358 589 374 589 q 300 581 332 589 q 240 561 269 572 q 186 541 210 550 q 149 532 162 532 q 111 546 127 532 q 81 581 94 560 q 63 624 69 601 q 56 664 56 646 q 106 745 56 721 q 226 789 162 771 q 352 807 290 807 q 448 791 407 807 q 519 748 490 776 q 569 684 549 721 q 600 605 588 648 q 616 517 611 563 q 621 426 621 471 q 620 375 621 404 q 617 312 619 345 q 613 245 616 279 q 605 178 610 210 q 595 118 601 146 q 581 71 589 90 q 566 52 576 60 q 544 40 556 45 q 518 34 532 36 q 495 33 505 33 m 300 263 q 336 268 317 263 q 371 279 355 273 q 391 293 385 285 q 399 310 397 300 q 400 332 401 320 q 400 356 400 344 q 395 381 400 372 q 372 390 389 390 q 333 384 354 390 q 293 367 311 378 q 262 339 275 356 q 250 302 250 323 q 266 272 250 280 q 300 263 281 263 m 346 868 q 300 877 321 868 q 266 901 280 886 q 243 937 251 916 q 235 983 235 958 q 243 1028 235 1007 q 268 1064 252 1049 q 304 1087 283 1079 q 350 1096 326 1096 q 393 1088 373 1096 q 427 1067 412 1081 q 449 1034 441 1053 q 457 991 457 1015 q 450 945 457 967 q 428 905 442 922 q 393 878 414 888 q 346 868 372 868 m 346 922 q 361 929 355 922 q 371 947 368 937 q 375 969 374 958 q 376 987 376 980 q 375 1003 376 994 q 370 1021 374 1013 q 361 1036 367 1030 q 346 1042 355 1042 q 330 1036 336 1042 q 321 1019 324 1029 q 316 1000 317 1010 q 315 983 315 989 q 316 965 315 976 q 321 945 317 955 q 330 929 324 936 q 346 922 336 922 z "},"æ":{"ha":1049,"x_min":32,"x_max":1120,"o":"m 300 263 q 336 268 317 263 q 371 279 354 273 q 391 293 385 285 q 399 311 397 300 q 400 332 401 321 q 400 356 400 344 q 395 381 400 372 q 372 390 389 390 q 333 384 354 390 q 293 367 311 378 q 262 339 275 356 q 250 302 250 323 q 266 272 250 280 q 300 263 281 263 m 751 460 q 801 466 775 460 q 852 475 827 473 q 873 482 865 476 q 882 503 882 488 q 875 528 882 517 q 857 546 868 538 q 832 558 846 554 q 807 562 819 562 q 777 557 793 562 q 748 544 761 553 q 726 521 734 534 q 717 492 717 508 q 726 468 717 476 q 751 460 736 460 m 825 16 q 698 38 760 16 q 591 108 637 59 q 579 72 586 87 q 561 49 572 58 q 535 36 551 40 q 495 33 519 33 q 457 38 471 33 q 437 50 444 43 q 428 67 431 58 q 422 83 425 76 q 415 96 420 91 q 397 101 410 101 q 368 93 386 101 q 327 75 349 85 q 278 56 304 64 q 223 48 252 48 q 140 70 176 48 q 80 125 104 91 q 44 201 56 159 q 32 286 32 243 q 45 374 32 333 q 84 446 58 415 q 148 494 110 476 q 235 512 186 512 q 290 508 263 512 q 344 503 316 503 q 387 516 372 503 q 401 558 401 530 q 387 583 401 577 q 358 589 374 589 q 301 581 332 589 q 240 561 270 572 q 185 541 210 550 q 149 532 161 532 q 111 546 127 532 q 81 581 94 560 q 63 624 69 601 q 56 664 56 646 q 106 745 56 721 q 226 789 162 771 q 352 807 290 807 q 487 773 431 807 q 578 667 544 739 q 677 755 618 723 q 807 788 736 788 q 925 760 873 788 q 1011 686 976 732 q 1065 582 1047 640 q 1084 463 1084 524 q 1076 422 1084 440 q 1056 392 1069 405 q 1024 371 1042 379 q 985 359 1006 363 q 879 340 932 351 q 774 314 825 330 q 750 302 760 310 q 741 277 741 294 q 746 259 741 267 q 757 244 750 250 q 773 234 764 237 q 792 230 783 230 q 838 237 814 230 q 885 255 861 244 q 932 279 909 267 q 975 303 955 292 q 1009 321 994 314 q 1033 328 1025 328 q 1070 314 1055 328 q 1098 279 1086 300 q 1114 236 1109 259 q 1120 195 1120 213 q 1104 141 1120 166 q 1065 97 1089 117 q 1009 62 1040 77 q 944 37 977 47 q 881 21 911 26 q 825 16 850 16 z "},"ç":{"ha":656,"x_min":32,"x_max":630,"o":"m 323 -212 q 297 -211 309 -212 q 277 -203 285 -209 q 264 -188 269 -198 q 260 -159 260 -177 q 265 -127 260 -138 q 280 -113 271 -117 q 302 -110 289 -109 q 330 -110 315 -110 q 343 -109 335 -110 q 358 -106 351 -109 q 372 -100 366 -104 q 378 -90 378 -96 q 366 -75 378 -79 q 346 -71 355 -71 q 332 -73 339 -71 q 318 -77 324 -75 q 307 -81 312 -79 q 299 -83 302 -83 q 276 -72 286 -83 q 267 -49 267 -61 q 272 -18 267 -35 q 280 13 277 -1 q 168 56 215 22 q 91 139 121 90 q 46 248 60 189 q 32 366 32 307 q 41 465 32 415 q 70 562 51 515 q 116 650 88 609 q 181 722 144 691 q 264 770 218 752 q 366 787 311 787 q 455 771 410 787 q 535 726 499 755 q 594 656 571 696 q 616 569 616 616 q 606 525 616 544 q 579 492 596 505 q 540 471 562 478 q 495 464 518 464 q 457 472 471 464 q 434 492 443 480 q 421 519 426 505 q 409 546 416 534 q 391 566 402 558 q 360 574 380 574 q 324 563 340 574 q 297 534 309 552 q 278 493 286 515 q 265 447 270 470 q 258 402 260 424 q 256 366 256 381 q 259 322 256 348 q 270 273 262 296 q 294 232 279 249 q 333 215 309 215 q 370 225 353 215 q 401 251 386 235 q 430 283 416 266 q 458 316 444 301 q 490 342 473 332 q 528 352 507 352 q 569 339 550 352 q 601 306 587 326 q 622 264 614 287 q 630 222 630 241 q 616 171 630 195 q 581 123 603 146 q 530 81 559 100 q 472 48 502 62 q 414 24 443 33 q 363 12 386 14 q 360 4 361 8 q 359 -4 359 0 q 363 -12 359 -9 q 372 -15 367 -14 q 384 -15 378 -16 q 393 -15 389 -15 q 425 -22 410 -15 q 449 -42 439 -30 q 464 -70 458 -54 q 469 -102 469 -85 q 456 -153 469 -132 q 422 -188 443 -174 q 375 -207 401 -201 q 323 -212 349 -212 z "},"è":{"ha":678,"x_min":31,"x_max":657,"o":"m 363 16 q 217 45 279 16 q 113 125 155 75 q 52 244 72 176 q 31 391 31 313 q 40 484 31 437 q 66 575 49 531 q 110 658 83 619 q 170 726 136 697 q 249 771 205 755 q 345 788 292 788 q 462 760 410 788 q 549 686 513 732 q 603 582 584 640 q 621 463 621 524 q 614 422 621 440 q 593 392 606 405 q 562 371 580 379 q 523 359 544 363 q 416 341 470 351 q 311 314 362 331 q 288 301 298 309 q 279 277 279 293 q 283 259 279 267 q 295 244 288 250 q 311 234 302 237 q 330 230 320 230 q 375 237 351 230 q 423 255 399 244 q 470 279 447 267 q 512 303 492 292 q 547 321 532 314 q 570 328 562 328 q 608 314 592 328 q 635 279 624 300 q 652 236 646 259 q 657 195 657 213 q 651 154 657 174 q 629 119 645 134 q 574 77 606 96 q 505 45 541 58 q 432 24 469 31 q 363 16 395 16 m 289 460 q 312 463 293 460 q 352 469 331 465 q 392 477 374 473 q 412 484 410 481 q 420 503 420 492 q 413 528 420 517 q 394 546 406 538 q 370 558 383 554 q 345 562 357 562 q 314 557 330 562 q 285 544 298 553 q 263 521 272 534 q 254 492 254 508 q 264 468 254 476 q 289 460 273 460 m 363 868 q 344 877 358 868 q 311 898 330 885 q 271 927 292 911 q 231 958 250 943 q 198 985 212 973 q 179 1002 184 998 q 168 1028 168 1013 q 176 1058 168 1042 q 195 1087 183 1074 q 222 1109 207 1101 q 252 1118 237 1118 q 274 1107 260 1118 q 306 1080 289 1097 q 342 1043 323 1063 q 377 1005 361 1023 q 405 972 393 987 q 422 953 417 958 q 431 931 431 943 q 424 909 431 920 q 408 888 418 897 q 386 874 397 880 q 363 868 374 868 z "},"é":{"ha":678,"x_min":31,"x_max":657,"o":"m 363 16 q 217 45 279 16 q 113 125 155 75 q 52 244 72 176 q 31 391 31 313 q 40 484 31 437 q 66 575 49 531 q 110 658 83 619 q 170 726 136 697 q 249 771 205 755 q 345 788 292 788 q 462 760 410 788 q 549 686 513 732 q 603 582 584 640 q 621 463 621 524 q 614 422 621 440 q 593 392 606 405 q 562 371 580 379 q 523 359 544 363 q 416 341 470 351 q 311 314 362 331 q 288 301 298 309 q 279 277 279 293 q 283 259 279 267 q 295 244 288 250 q 311 234 302 237 q 330 230 320 230 q 375 237 351 230 q 423 255 399 244 q 470 279 447 267 q 512 303 492 292 q 547 321 532 314 q 570 328 562 328 q 608 314 592 328 q 635 279 624 300 q 652 236 646 259 q 657 195 657 213 q 651 154 657 174 q 629 119 645 134 q 574 77 606 96 q 505 45 541 58 q 432 24 469 31 q 363 16 395 16 m 289 460 q 312 463 293 460 q 352 469 331 465 q 392 477 374 473 q 412 484 410 481 q 420 503 420 492 q 413 528 420 517 q 394 546 406 538 q 370 558 383 554 q 345 562 357 562 q 314 557 330 562 q 285 544 298 553 q 263 521 272 534 q 254 492 254 508 q 264 468 254 476 q 289 460 273 460 m 323 868 q 301 873 313 868 q 279 888 289 879 q 262 908 269 897 q 255 930 255 920 q 267 953 255 937 q 296 990 278 969 q 335 1034 313 1011 q 376 1075 356 1057 q 412 1106 396 1094 q 435 1118 428 1118 q 465 1109 450 1118 q 491 1087 479 1101 q 511 1058 503 1074 q 518 1028 518 1042 q 507 1002 518 1013 q 488 986 503 998 q 455 959 474 974 q 415 928 437 944 q 375 898 394 911 q 342 877 357 885 q 323 868 328 868 z "},"ê":{"ha":678,"x_min":31,"x_max":657,"o":"m 363 16 q 217 45 279 16 q 113 125 155 75 q 52 244 72 176 q 31 391 31 313 q 40 484 31 437 q 66 575 49 531 q 110 658 83 619 q 170 726 136 697 q 249 771 205 755 q 345 788 292 788 q 462 760 410 788 q 549 686 513 732 q 603 582 584 640 q 621 463 621 524 q 614 422 621 440 q 593 392 606 405 q 562 371 580 379 q 523 359 544 363 q 416 341 470 351 q 311 314 362 331 q 288 301 298 309 q 279 277 279 293 q 283 259 279 267 q 295 244 288 250 q 311 234 302 237 q 330 230 320 230 q 375 237 351 230 q 423 255 399 244 q 470 279 447 267 q 512 303 492 292 q 547 321 532 314 q 570 328 562 328 q 608 314 592 328 q 635 279 624 300 q 652 236 646 259 q 657 195 657 213 q 651 154 657 174 q 629 119 645 134 q 574 77 606 96 q 505 45 541 58 q 432 24 469 31 q 363 16 395 16 m 289 460 q 312 463 293 460 q 352 469 331 465 q 392 477 374 473 q 412 484 410 481 q 420 503 420 492 q 413 528 420 517 q 394 546 406 538 q 370 558 383 554 q 345 562 357 562 q 314 557 330 562 q 285 544 298 553 q 263 521 272 534 q 254 492 254 508 q 264 468 254 476 q 289 460 273 460 m 437 868 q 400 874 414 868 q 380 891 387 881 q 370 914 373 901 q 365 939 367 926 q 358 962 362 951 q 345 980 354 973 q 331 960 335 972 q 324 937 327 949 q 319 912 321 924 q 310 890 316 899 q 292 874 304 880 q 261 868 281 868 q 242 869 253 868 q 221 872 231 869 q 205 882 212 876 q 198 900 198 888 q 204 935 198 916 q 222 975 211 955 q 248 1015 233 996 q 279 1049 262 1034 q 314 1074 296 1065 q 349 1083 332 1083 q 391 1072 372 1083 q 425 1043 410 1060 q 451 1004 439 1025 q 469 964 462 983 q 475 951 471 960 q 481 935 478 943 q 486 918 484 926 q 488 905 488 910 q 484 887 488 895 q 471 876 479 880 q 455 870 464 872 q 437 868 446 868 z "}}}
